<svg width="506" height="62" viewBox="0 0 506 62" fill="none" xmlns="http://www.w3.org/2000/svg">
<path d="M0 61.8242H32.3708C42.9589 61.8242 51.1412 54.043 51.1412 43.5685C51.1412 37.3446 48.3385 31.9482 43.9958 28.6258C45.7453 25.8389 46.7813 22.5165 46.7813 18.8857C46.7813 8.20448 38.5948 0.00035078 27.9172 0.00035078H0V37.0378H32.3708C37.0426 37.0378 38.8078 38.8081 38.8078 43.5685C38.8078 47.819 37.136 49.3712 32.3708 49.3712H12.3547V41.495H0V61.8242ZM12.3547 24.6831V12.3498H27.9172C32.677 12.3498 34.448 14.1003 34.448 18.8857C34.448 23.131 32.677 24.6831 27.9172 24.6831H12.3547ZM74.9068 12.3498H127.814V0.000334503H74.9068V12.3498ZM95.2292 61.8242H107.584V16.8081H95.2292V61.8242ZM170.349 61.8242H183.933C194.615 61.8242 202.719 53.6362 202.719 42.9534V41.4018H190.365V42.9534C190.365 47.719 188.6 49.3712 183.933 49.3712H170.349C165.683 49.3712 163.912 47.719 163.912 42.9534V18.8857C163.912 14.1003 165.683 12.3498 170.349 12.3498H183.933C188.6 12.3498 190.365 14.1003 190.365 18.8857V20.3242H202.719V18.8857C202.719 8.20448 194.615 0.00035078 183.933 0.00035078H170.349C159.667 0.00035078 151.557 8.20448 151.557 18.8857V42.9534C151.557 53.6362 159.667 61.8242 170.349 61.8242Z" fill="#0852C9"/>
<path d="M227.797 61.8242H260.172C270.756 61.8242 278.938 54.043 278.938 43.5685C278.938 37.3446 276.136 31.9482 271.792 28.6258C273.542 25.8389 274.578 22.5165 274.578 18.8857C274.578 8.20448 266.396 0.00035078 255.714 0.00035078H227.797V37.0378H260.172C264.838 37.0378 266.605 38.8081 266.605 43.5685C266.605 47.819 264.933 49.3712 260.172 49.3712H240.152V41.495H227.797V61.8242ZM240.152 24.6831V12.3498H255.714C260.48 12.3498 262.245 14.1003 262.245 18.8857C262.245 23.131 260.48 24.6831 255.714 24.6831H240.152ZM321.474 61.8242H335.073C345.756 61.8242 353.844 53.6362 353.844 42.9534V18.8857C353.844 8.20448 345.756 0.00035078 335.073 0.00035078H321.474C310.792 0.00035078 302.704 8.20448 302.704 18.8857V37.0378H315.037V18.8857C315.037 14.1003 316.808 12.3498 321.474 12.3498H335.073C339.745 12.3498 341.49 14.1003 341.49 18.8857V42.9534C341.49 47.719 339.745 49.3712 335.073 49.3712H321.474C316.808 49.3712 315.037 47.719 315.037 42.9534V41.495H302.704V42.9534C302.704 53.6362 310.792 61.8242 321.474 61.8242ZM377.609 12.3498H430.516V0.000334503H377.609V12.3498ZM397.938 61.8242H410.286V16.8081H397.938V61.8242ZM456.974 61.8242H486.636C497.318 61.8242 505.406 53.6362 505.406 42.9534C505.406 32.4643 497.218 24.6831 486.636 24.6831H473.052C468.272 24.6831 466.614 23.131 466.614 18.8857C466.614 14.1003 468.385 12.3498 473.052 12.3498H499.297V0.00035078H473.052C462.349 0.00035078 454.266 8.20448 454.266 18.8857C454.266 29.355 462.469 37.0378 473.052 37.0378H486.636C491.401 37.0378 493.073 38.6883 493.073 42.9534C493.073 47.719 491.302 49.3712 486.636 49.3712H456.974V61.8242Z" fill="black"/>
</svg>
