<svg
  width="30"
  height="30"
  viewBox="0 0 30 30"
  fill="none"
  xmlns="http://www.w3.org/2000/svg"
>
<g filter="url(#filter0_dd_6203_1881)">
<g clip-path="url(#clip0_6203_1881)">
<rect x="7" y="2.38281" width="16" height="16" rx="8" fill="#1A47B8" />
<path
        fill-rule="evenodd"
        clip-rule="evenodd"
        d="M6.18369 2.46875H3.80078V5.13542L23.8049 18.4688L26.2008 18.4687V15.8021L6.18369 2.46875Z"
        fill="#EBEEF1"
      />
<path
        d="M4.59555 2.46875L26.2008 16.9065V18.4687L25.4246 18.4688L3.80078 4.01601V2.46875H4.59555Z"
        fill="#F93939"
      />
<path
        fill-rule="evenodd"
        clip-rule="evenodd"
        d="M24.0674 2.46875H26.2008V5.13542C26.2008 5.13542 12.3446 14.0187 5.93411 18.4688H3.80078V15.8021L24.0674 2.46875Z"
        fill="#EBEEF1"
      />
<path
        d="M26.2008 2.46875H25.4773L3.80078 16.919V18.4688H4.59555L26.2008 4.0277V2.46875Z"
        fill="#F93939"
      />
<path
        fill-rule="evenodd"
        clip-rule="evenodd"
        d="M11.947 2.46875H18.0732V7.40402H26.2008V13.5302H18.0732V18.4688H11.947V13.5302H3.80078V7.40402H11.947V2.46875Z"
        fill="#EBEEF1"
      />
<path
        fill-rule="evenodd"
        clip-rule="evenodd"
        d="M13.2324 2.46875H16.7692V8.6226H26.2008V12.3149H16.7692V18.4688H13.2324V12.3149H3.80078V8.6226H13.2324V2.46875Z"
        fill="#F93939"
      />
</g>
</g>
<defs>
<filter
      id="filter0_dd_6203_1881"
      x="0.142858"
      y="0.0970984"
      width="29.7143"
      height="29.7143"
      filterUnits="userSpaceOnUse"
      color-interpolation-filters="sRGB"
    >
<feFlood flood-opacity="0" result="BackgroundImageFix" />
<feColorMatrix
        in="SourceAlpha"
        type="matrix"
        values="0 0 0 0 0 0 0 0 0 0 0 0 0 0 0 0 0 0 127 0"
        result="hardAlpha"
      />
<feOffset dy="4.57143" />
<feGaussianBlur stdDeviation="3.42857" />
<feComposite in2="hardAlpha" operator="out" />
<feColorMatrix
        type="matrix"
        values="0 0 0 0 0.258824 0 0 0 0 0.278431 0 0 0 0 0.298039 0 0 0 0.08 0"
      />
<feBlend
        mode="normal"
        in2="BackgroundImageFix"
        result="effect1_dropShadow_6203_1881"
      />
<feColorMatrix
        in="SourceAlpha"
        type="matrix"
        values="0 0 0 0 0 0 0 0 0 0 0 0 0 0 0 0 0 0 127 0"
        result="hardAlpha"
      />
<feOffset />
<feGaussianBlur stdDeviation="0.285714" />
<feComposite in2="hardAlpha" operator="out" />
<feColorMatrix
        type="matrix"
        values="0 0 0 0 0.258824 0 0 0 0 0.278431 0 0 0 0 0.298039 0 0 0 0.32 0"
      />
<feBlend
        mode="normal"
        in2="effect1_dropShadow_6203_1881"
        result="effect2_dropShadow_6203_1881"
      />
<feBlend
        mode="normal"
        in="SourceGraphic"
        in2="effect2_dropShadow_6203_1881"
        result="shape"
      />
</filter>
<clipPath id="clip0_6203_1881">
<rect x="7" y="2.38281" width="16" height="16" rx="8" fill="white" />
</clipPath>
</defs>
</svg>
