<svg
  width="34"
  height="35"
  viewBox="0 2 34 40"
  fill="none"
  xmlns="http://www.w3.org/2000/svg"
>
<g filter="url(#filter0_dd_4158_26)">
<g clip-path="url(#clip0_4158_26)">
<rect x="7" y="2.625" width="20" height="20" rx="10" fill="#F93939" />
<path
        d="M32.3333 2.625H9.66667C8.19391 2.625 7 3.81891 7 5.29167V19.9583C7 21.4311 8.19391 22.625 9.66667 22.625H32.3333C33.8061 22.625 35 21.4311 35 19.9583V5.29167C35 3.81891 33.8061 2.625 32.3333 2.625Z"
        fill="#F93939"
      />
<path
        fill-rule="evenodd"
        clip-rule="evenodd"
        d="M7.00003 7.95836H35V17.2917H7.00003V7.95836Z"
        fill="#FFDA2C"
      />
<path
        fill-rule="evenodd"
        clip-rule="evenodd"
        d="M19.0001 10.921V14.281C19.0001 15.2144 18.1041 15.961 17.0001 15.961H14.3334C13.2321 15.9584 12.3334 15.2077 12.3334 14.2784V10.9184C12.3334 10.1557 12.9308 9.51837 13.7521 9.31171C14.0001 8.61837 14.7628 9.23971 15.6668 9.23971C16.5761 9.23971 17.3334 8.62237 17.5814 9.31304C18.4001 9.52504 19.0001 10.1637 19.0001 10.921Z"
        fill="#D4AF2C"
      />
<path
        fill-rule="evenodd"
        clip-rule="evenodd"
        d="M19 11.9583H20.3333V15.9583H19V11.9583ZM11 11.9583H12.3333V15.9583H11V11.9583Z"
        fill="#CBCBCB"
      />
<path
        fill-rule="evenodd"
        clip-rule="evenodd"
        d="M19 14.625H20.3333V15.9583H19V14.625ZM11 14.625H12.3333V15.9583H11V14.625Z"
        fill="#1A47B8"
      />
<path
        fill-rule="evenodd"
        clip-rule="evenodd"
        d="M19 10.625H20.3333V11.9583H19V10.625ZM11 10.625H12.3333V11.9583H11V10.625Z"
        fill="#D4AF2C"
      />
<path
        fill-rule="evenodd"
        clip-rule="evenodd"
        d="M13.6667 10.625H15V12.625H13.6667V10.625ZM16.3333 13.2917H17.6667V15.2917H16.3333V13.2917Z"
        fill="#AF010D"
      />
<path
        fill-rule="evenodd"
        clip-rule="evenodd"
        d="M16.3334 10.625H17.6667V12.625H16.3334V10.625Z"
        fill="#AE6A3E"
      />
<path
        fill-rule="evenodd"
        clip-rule="evenodd"
        d="M13.6667 13.2917H15V15.2917H13.6667V13.2917Z"
        fill="#FFDA2C"
      />
<path
        fill-rule="evenodd"
        clip-rule="evenodd"
        d="M15 10.625L13.6667 9.2917H17.6667L16.3334 10.625H15Z"
        fill="#AF010D"
      />
<path
        fill-rule="evenodd"
        clip-rule="evenodd"
        d="M14.9999 7.95836H16.3332V9.29169H14.9999V7.95836Z"
        fill="#D4AF2C"
      />
</g>
</g>
<defs>
<filter
      id="filter0_dd_4158_26"
      x="0.142858"
      y="0.339286"
      width="33.7143"
      height="33.7143"
      filterUnits="userSpaceOnUse"
      color-interpolation-filters="sRGB"
    >
<feFlood flood-opacity="0" result="BackgroundImageFix" />
<feColorMatrix
        in="SourceAlpha"
        type="matrix"
        values="0 0 0 0 0 0 0 0 0 0 0 0 0 0 0 0 0 0 127 0"
        result="hardAlpha"
      />
<feOffset dy="4.57143" />
<feGaussianBlur stdDeviation="3.42857" />
<feComposite in2="hardAlpha" operator="out" />
<feColorMatrix
        type="matrix"
        values="0 0 0 0 0.258824 0 0 0 0 0.278431 0 0 0 0 0.298039 0 0 0 0.08 0"
      />
<feBlend
        mode="normal"
        in2="BackgroundImageFix"
        result="effect1_dropShadow_4158_26"
      />
<feColorMatrix
        in="SourceAlpha"
        type="matrix"
        values="0 0 0 0 0 0 0 0 0 0 0 0 0 0 0 0 0 0 127 0"
        result="hardAlpha"
      />
<feOffset />
<feGaussianBlur stdDeviation="0.285714" />
<feComposite in2="hardAlpha" operator="out" />
<feColorMatrix
        type="matrix"
        values="0 0 0 0 0.258824 0 0 0 0 0.278431 0 0 0 0 0.298039 0 0 0 0.32 0"
      />
<feBlend
        mode="normal"
        in2="effect1_dropShadow_4158_26"
        result="effect2_dropShadow_4158_26"
      />
<feBlend
        mode="normal"
        in="SourceGraphic"
        in2="effect2_dropShadow_4158_26"
        result="shape"
      />
</filter>
<clipPath id="clip0_4158_26">
<rect x="7" y="2.625" width="20" height="20" rx="10" fill="white" />
</clipPath>
</defs>
</svg>
