<svg
  width="80"
  height="22"
  viewBox="0 0 80 22"
  fill="none"
  xmlns="http://www.w3.org/2000/svg"
>
<path
    d="M14.708 21.3828H0.96V1.27881H6.252V16.5948H14.708V21.3828ZM25.019 21.8028C19.223 21.8028 14.659 17.4068 14.659 11.3028C14.659 5.19881 19.223 0.858811 25.019 0.858811C30.843 0.858811 35.407 5.19881 35.407 11.3028C35.407 17.4068 30.843 21.8028 25.019 21.8028ZM25.019 17.0708C28.183 17.0708 29.947 14.4668 29.947 11.3028C29.947 8.13881 28.183 5.59081 25.019 5.59081C21.855 5.59081 20.091 8.13881 20.091 11.3028C20.091 14.4668 21.855 17.0708 25.019 17.0708ZM47.4155 21.8028C41.5635 21.8028 36.9715 17.4908 36.9715 11.2188C36.9715 5.28281 41.3395 0.858811 47.2475 0.858811C52.2875 0.858811 56.0115 3.77081 57.4115 8.27881H51.1395C50.6355 6.73881 49.1515 5.59081 47.1075 5.59081C44.5035 5.59081 42.4035 7.41081 42.4035 11.3588C42.4035 14.7188 44.0555 17.3228 47.6955 17.3228C49.9915 17.3228 51.4195 16.0348 52.0075 14.3548H47.1635V10.1828H57.6635C58.0835 16.8188 54.0795 21.8028 47.4155 21.8028ZM69.6167 21.8028C63.8207 21.8028 59.2567 17.4068 59.2567 11.3028C59.2567 5.19881 63.8207 0.858811 69.6167 0.858811C75.4407 0.858811 80.0047 5.19881 80.0047 11.3028C80.0047 17.4068 75.4407 21.8028 69.6167 21.8028ZM69.6167 17.0708C72.7807 17.0708 74.5447 14.4668 74.5447 11.3028C74.5447 8.13881 72.7807 5.59081 69.6167 5.59081C66.4527 5.59081 64.6887 8.13881 64.6887 11.3028C64.6887 14.4668 66.4527 17.0708 69.6167 17.0708Z"
    fill="#090909"
  />
</svg>
