<svg width="57" height="16" viewBox="0 0 57 16" fill="none" xmlns="http://www.w3.org/2000/svg">
<path d="M10.22 14.8828H0.4V0.522811H4.18V11.4628H10.22V14.8828ZM17.585 15.1828C13.445 15.1828 10.185 12.0428 10.185 7.68281C10.185 3.32281 13.445 0.222812 17.585 0.222812C21.745 0.222812 25.005 3.32281 25.005 7.68281C25.005 12.0428 21.745 15.1828 17.585 15.1828ZM17.585 11.8028C19.845 11.8028 21.105 9.94281 21.105 7.68281C21.105 5.42281 19.845 3.60281 17.585 3.60281C15.325 3.60281 14.065 5.42281 14.065 7.68281C14.065 9.94281 15.325 11.8028 17.585 11.8028ZM33.5825 15.1828C29.4025 15.1828 26.1225 12.1028 26.1225 7.62281C26.1225 3.38281 29.2425 0.222812 33.4625 0.222812C37.0625 0.222812 39.7225 2.30281 40.7225 5.52281H36.2425C35.8825 4.42281 34.8225 3.60281 33.3625 3.60281C31.5025 3.60281 30.0025 4.90281 30.0025 7.72281C30.0025 10.1228 31.1825 11.9828 33.7825 11.9828C35.4225 11.9828 36.4425 11.0628 36.8625 9.86281H33.4025V6.88281H40.9025C41.2025 11.6228 38.3425 15.1828 33.5825 15.1828ZM49.4405 15.1828C45.3005 15.1828 42.0405 12.0428 42.0405 7.68281C42.0405 3.32281 45.3005 0.222812 49.4405 0.222812C53.6005 0.222812 56.8605 3.32281 56.8605 7.68281C56.8605 12.0428 53.6005 15.1828 49.4405 15.1828ZM49.4405 11.8028C51.7005 11.8028 52.9605 9.94281 52.9605 7.68281C52.9605 5.42281 51.7005 3.60281 49.4405 3.60281C47.1805 3.60281 45.9205 5.42281 45.9205 7.68281C45.9205 9.94281 47.1805 11.8028 49.4405 11.8028Z" fill="#D9D9D9"/>
</svg>
