<svg width="218" height="219" viewBox="0 0 218 219" fill="none" xmlns="http://www.w3.org/2000/svg">
<g opacity="0.3">
<path d="M172.153 145.928V127.724C172.153 101.978 172.153 89.1055 164.191 81.1074C156.23 73.1094 143.416 73.1094 117.788 73.1094H99.667C74.0394 73.1094 61.2257 73.1094 53.2642 81.1074C45.3027 89.1055 45.3027 101.978 45.3027 127.724V145.928C45.3027 171.674 45.3027 184.546 53.2642 192.545C61.2257 200.543 74.0394 200.543 99.667 200.543H117.788C143.416 200.543 156.23 200.543 164.191 192.545C172.153 184.546 172.153 171.674 172.153 145.928Z" stroke="#EBEEF1" stroke-width="13.5911" stroke-linejoin="round"/>
<path d="M172.152 164.142C184.966 164.142 191.373 164.142 195.354 160.143C199.334 156.144 199.334 149.707 199.334 136.834C199.334 123.962 199.334 117.525 195.354 113.526C191.373 109.527 184.966 109.527 172.152 109.527" stroke="#EBEEF1" stroke-width="13.5911" stroke-linejoin="round"/>
<path d="M45.3032 164.142C32.4894 164.142 26.0826 164.142 22.1018 160.143C18.1211 156.144 18.1211 149.707 18.1211 136.834C18.1211 123.962 18.1211 117.525 22.1018 113.526C26.0826 109.527 32.4894 109.527 45.3032 109.527" stroke="#EBEEF1" stroke-width="13.5911" stroke-linejoin="round"/>
<path d="M122.319 32.1497C122.319 39.6903 116.234 45.8032 108.728 45.8032C101.222 45.8032 95.1367 39.6903 95.1367 32.1497C95.1367 24.609 101.222 18.4961 108.728 18.4961C116.234 18.4961 122.319 24.609 122.319 32.1497Z" stroke="#EBEEF1" stroke-width="13.5911"/>
<path d="M108.729 45.8203V73.1274" stroke="#EBEEF1" stroke-width="13.5911" stroke-linecap="round" stroke-linejoin="round"/>
<path d="M81.5469 118.625V127.727" stroke="#EBEEF1" stroke-width="13.5911" stroke-linecap="round" stroke-linejoin="round"/>
<path d="M135.91 118.625V127.727" stroke="#EBEEF1" stroke-width="13.5911" stroke-linecap="round" stroke-linejoin="round"/>
<path d="M90.6074 159.609C90.6074 159.609 96.6479 164.161 108.729 164.161C120.81 164.161 126.85 159.609 126.85 159.609" stroke="#EBEEF1" stroke-width="13.5911" stroke-linecap="round"/>
</g>
</svg>
