<svg
  width="24"
  height="25"
  viewBox="0 0 24 25"
  fill="none"
  xmlns="http://www.w3.org/2000/svg"
>
<path
    d="M6.57796 15.982C5.16296 16.824 1.45296 18.544 3.71296 20.697C4.81596 21.748 6.04496 22.5 7.58996 22.5H16.408C17.954 22.5 19.183 21.748 20.286 20.697C22.546 18.544 18.836 16.824 17.421 15.982C15.7788 15.0119 13.9063 14.5001 11.999 14.5001C10.0916 14.5001 8.22017 15.0119 6.57796 15.982ZM16.5 7C16.5 8.19347 16.0259 9.33807 15.1819 10.182C14.338 11.0259 13.1934 11.5 12 11.5C10.8065 11.5 9.66189 11.0259 8.81798 10.182C7.97407 9.33807 7.49996 8.19347 7.49996 7C7.49996 5.80653 7.97407 4.66193 8.81798 3.81802C9.66189 2.97411 10.8065 2.5 12 2.5C13.1934 2.5 14.338 2.97411 15.1819 3.81802C16.0259 4.66193 16.5 5.80653 16.5 7Z"
    stroke="#090909"
    stroke-width="1.5"
    stroke-linecap="round"
    stroke-linejoin="round"
  />
</svg>
