<svg
  width="145"
  height="33"
  viewBox="0 0 145 33"
  fill="#717375"
  xmlns="http://www.w3.org/2000/svg"
>
<mask
    id="mask0_150_123"
    style="mask-type:luminance"
    maskUnits="userSpaceOnUse"
    x="0"
    y="0"
    width="145"
    height="33"
  >
<path d="M144.209 0.546875H0.0195312V32.4113H144.209V0.546875Z" fill="white" />
</mask>
<g mask="url(#mask0_150_123)">
<g clipPath="url(#clip0_150_123)">
<path
        d="M5.22027 16.4841L2.61584 20.0827L0.0136719 16.4841L2.61584 12.8856L5.22027 16.4841ZM11.5353 7.7448L15.9962 13.9138L18.5984 10.3152L11.5353 0.550816L4.47454 10.3152L7.07671 13.9138L11.5376 7.7448H11.5353ZM20.4571 12.8856L17.8549 16.4841L20.4571 20.0827L23.057 16.4841L20.4571 12.8856ZM11.5353 25.2204L7.07446 19.0545L4.47228 22.6531L11.5331 32.4175L18.5961 22.6531L15.9939 19.0577L11.5353 25.2204ZM11.5353 20.0827L14.1375 16.4841L11.5353 12.8856L8.93315 16.4841L11.5353 20.0827ZM38.999 20.4285V20.3787C38.999 18.0295 38.0978 16.858 36.6333 16.0853C37.5345 15.3843 38.296 14.2876 38.296 12.3154V12.2656C38.296 9.52072 36.7054 7.7448 34.1235 7.7448H28.2613V25.2235H34.2722C37.1245 25.2235 39.0012 23.6252 38.999 20.4285ZM35.5339 12.9573C35.5339 14.2565 34.7589 14.8048 33.5288 14.8048H30.9694V11.1159H33.7135C34.8873 11.1159 35.5361 11.764 35.5361 12.9105L35.5339 12.9573ZM36.2368 19.9487C36.2368 21.2448 35.4978 21.843 34.27 21.843H30.9694V18.0046H34.1821C35.6105 18.0046 36.2391 18.7305 36.2391 19.9051L36.2368 19.9487ZM44.8386 25.2235V7.74792H42.0495V25.2235H44.8386ZM59.7848 25.2235V7.74792H57.0317V18.5093L51.1086 7.74792H48.547V25.2235H51.2911V14.11L57.4102 25.2204L59.7848 25.2235ZM75.1838 25.2235L69.7587 7.6233H67.197L61.7809 25.2235H64.6151L65.7754 21.304H71.1172L72.2752 25.2235H75.1838ZM70.1282 17.908H66.7645L68.4429 12.2438L70.1282 17.908ZM88.4357 25.2235V7.74792H85.6826V18.5093L79.7618 7.7448H77.1979V25.2204H79.9421V14.11L86.0634 25.2204L88.4357 25.2235ZM102.787 22.4007L101.019 19.9269C100.025 21.1732 99.1418 21.9739 97.6977 21.9739C95.5326 21.9739 94.0321 19.4814 94.0321 16.481V16.4312C94.0321 13.4371 95.5664 10.9882 97.6977 10.9882C98.9593 10.9882 99.9484 11.7359 100.928 12.9604L102.692 10.1407C101.521 8.54552 100.093 7.44571 97.7112 7.44571C93.8293 7.44571 91.1235 11.5147 91.1235 16.4748V16.5247C91.1235 21.5439 93.8856 25.5101 97.603 25.5101C100.034 25.5195 101.48 24.3231 102.778 22.4007H102.787ZM114.649 25.2235V21.7994H107.782V18.123H113.741V14.6958H107.782V11.1689H114.55V7.7448H105.02V25.2204L114.649 25.2235ZM117.965 25.2266V22.6032H119.628V25.2266H117.965ZM132.594 17.7584C132.594 22.8525 130.478 25.5008 127.32 25.5008C124.161 25.5008 122.054 22.8556 122.054 17.908V7.74169H123.481V17.7834C123.481 21.5533 124.922 23.675 127.347 23.675C129.676 23.675 131.159 21.7278 131.159 17.9049V7.73857H132.587L132.594 17.7584ZM140.083 15.5308C142.901 16.3813 144.203 17.8052 144.203 20.5127C144.203 23.5348 142.401 25.4946 139.884 25.4946C137.879 25.4946 136.235 24.5599 134.707 22.6936L135.604 21.2355C136.922 22.8837 138.186 23.7093 139.938 23.7093C141.635 23.6999 142.761 22.4786 142.761 20.7089C142.761 19.0577 142.128 18.1354 139.472 17.3596C136.564 16.4841 135.225 15.1787 135.225 12.2874C135.225 9.48644 136.98 7.49555 139.382 7.49555C141.004 7.43013 142.586 8.19657 143.825 9.64534L142.987 11.1658C141.813 9.84163 140.639 9.26523 139.337 9.26523C137.695 9.26523 136.636 10.5115 136.636 12.1129C136.649 13.7829 137.3 14.6958 140.083 15.5308Z"
        fill="#717375"
      />
</g>
</g>
<defs>
<clipPath id="clip0_150_123">
<rect
        width="144.19"
        height="31.8667"
        fill="white"
        transform="matrix(1 0 0 -1 0.0136719 32.4175)"
      />
</clipPath>
</defs>
</svg>
