<svg
  width="142"
  height="31"
  viewBox="0 0 142 31"
  fill="#717375"
  xmlns="http://www.w3.org/2000/svg"
>
<g clip-path="url(#clip0_4320_6277)">
<path
      d="M12.6583 13.5787L17.9734 7.68811L23.2886 13.5787L26.3799 10.1488L17.9734 0.828125L9.56699 10.1488L12.6583 13.5787ZM7.96577 12.6343L10.8124 15.8157L7.96577 18.9971L5.11914 15.8157L7.96577 12.6343ZM12.6583 18.0775L17.9734 23.9681L23.2886 18.0775L26.3799 21.5075L17.9957 30.8281L9.61147 21.5075L12.6583 18.0775ZM30.5609 15.8157L27.7142 18.9971L24.8676 15.8157L27.7142 12.6343L30.5609 15.8157Z"
      fill="#717375"
    />
<path
      d="M20.9983 15.4415L17.9738 12.0613L15.7498 14.5468L15.483 14.845L14.9492 15.4415L17.9738 18.8218L20.9983 15.4415ZM35.7652 8.30815H42.3702C44.0159 8.30815 45.2391 8.7804 46.0842 9.70003C46.7291 10.4208 47.0627 11.3156 47.0627 12.3844V12.4341C47.0627 12.8318 47.0182 13.2294 46.907 13.6271C46.7958 13.9751 46.6624 14.2734 46.5067 14.5716C46.3288 14.845 46.1509 15.0936 45.9285 15.2924C45.7061 15.4912 45.4615 15.6901 45.2169 15.8392C46.0397 16.1872 46.6847 16.6594 47.1517 17.256C47.6187 17.8525 47.8633 18.6727 47.8633 19.7166V19.7663C47.8633 20.4871 47.7299 21.1085 47.4853 21.6553C47.2406 22.2021 46.8626 22.6743 46.4178 22.9975C45.9508 23.3703 45.3948 23.6188 44.7276 23.8177C44.0604 23.9917 43.3488 24.0911 42.5481 24.0911H35.7874V8.30815H35.7652ZM41.7253 14.6959C42.4147 14.6959 42.9707 14.5716 43.371 14.2982C43.7713 14.0248 43.9715 13.6023 43.9715 13.0306V12.9809C43.9715 12.4589 43.7935 12.0613 43.4377 11.7879C43.0819 11.5144 42.5704 11.3653 41.9032 11.3653H38.812V14.6959C38.8342 14.6959 41.7253 14.6959 41.7253 14.6959ZM42.5481 21.0339C43.2376 21.0339 43.7935 20.8848 44.1716 20.6114C44.5719 20.338 44.7721 19.8906 44.7721 19.3189V19.2692C44.7721 18.7473 44.5942 18.3247 44.2161 18.0265C43.8603 17.7282 43.2598 17.5542 42.437 17.5542H38.812V21.0339H42.5481ZM51.8886 8.30815H55.2468V24.0662H51.8886V8.30815ZM59.9615 8.30815H62.8748L69.6133 18.0265V8.30815H72.7268V24.0662H70.0359L63.075 14.0497V24.0662H59.9615V8.30815ZM82.0451 8.30815H84.8695L90.8518 24.0662H87.6494L86.3817 20.5617H80.4883L79.2207 24.0662H76.085L82.0451 8.30815ZM85.2698 17.5294L83.4239 12.4589L81.5781 17.5294H85.2698ZM94.21 8.30815H97.1233L103.862 18.0265V8.30815H106.975V24.0662H104.284L97.3235 14.0497V24.0662H94.21V8.30815ZM118.473 24.0911C117.406 24.0911 116.405 23.8674 115.493 23.4448C114.603 23.0472 113.803 22.4506 113.113 21.705C112.446 20.9593 111.912 20.0646 111.557 19.0952C111.179 18.0762 110.978 16.9825 111.001 15.8889V15.8392C111.001 14.6959 111.179 13.6271 111.557 12.6329C111.912 11.6636 112.446 10.7688 113.113 9.99829C113.781 9.25264 114.581 8.65612 115.515 8.20873C116.449 7.7862 117.472 7.5625 118.584 7.5625C119.274 7.5625 119.874 7.61221 120.452 7.73649C121.008 7.86076 121.52 8.03475 121.987 8.23359C122.454 8.45728 122.876 8.70583 123.254 9.00409C123.633 9.30235 124.011 9.65032 124.344 9.99829L122.298 12.5832C121.72 12.0115 121.142 11.589 120.563 11.2659C119.985 10.9428 119.318 10.7937 118.584 10.7937C117.984 10.7937 117.406 10.9179 116.894 11.1913C116.383 11.4399 115.938 11.8127 115.56 12.2601C115.182 12.7323 114.892 13.2543 114.692 13.8508C114.492 14.4473 114.381 15.0936 114.381 15.7895V15.8392C114.381 16.5352 114.492 17.1814 114.692 17.7779C114.892 18.3744 115.182 18.9212 115.56 19.3686C115.938 19.816 116.36 20.1888 116.894 20.4622C117.428 20.7357 118.028 20.8599 118.606 20.8599C119.429 20.8599 120.141 20.6859 120.719 20.3628C121.297 20.0397 121.876 19.5675 122.432 18.9958L124.478 21.2576C124.1 21.705 123.721 22.1027 123.321 22.4506C122.921 22.7986 122.476 23.0969 122.009 23.3454C121.498 23.594 120.986 23.7928 120.43 23.9171C119.807 24.0165 119.185 24.0911 118.473 24.0911ZM127.791 8.30815H138.444V11.3902H130.86V14.5965H137.532V17.6785H130.86V20.9842H138.533V24.0662H127.791V8.30815Z"
      fill="#717375"
    />
</g>
<defs>
<clipPath id="clip0_4320_6277">
<rect
        width="141"
        height="30"
        fill="white"
        transform="translate(0.119141 0.828125)"
      />
</clipPath>
</defs>
</svg>
