<svg
  width="151"
  height="44"
  viewBox="0 0 151 44"
  fill="#717375"
  xmlns="http://www.w3.org/2000/svg"
>
<path
    d="M145.814 14.6484C145.96 14.6484 146.127 14.6856 146.231 14.797C146.335 14.9084 146.398 15.0383 146.377 15.1868V18.4358C146.377 18.5843 146.335 18.7143 146.231 18.8257C146.127 18.9185 145.96 18.9742 145.814 18.9742H142.774V31.8957C142.774 32.0442 142.732 32.1742 142.628 32.2856C142.524 32.3784 142.357 32.4341 142.211 32.4341H137.65C137.504 32.4341 137.338 32.397 137.233 32.2856C137.129 32.1742 137.067 32.0442 137.088 31.8957V18.9742H134.047C133.901 18.9742 133.734 18.937 133.63 18.8257C133.526 18.7143 133.464 18.5843 133.484 18.4358V15.1868C133.484 15.0383 133.526 14.9084 133.63 14.797C133.734 14.7041 133.901 14.6484 134.047 14.6484H137.088V10.0999C137.088 9.9514 137.129 9.82144 137.233 9.71005C137.338 9.61722 137.504 9.56152 137.65 9.56152H142.211C142.357 9.56152 142.524 9.59865 142.628 9.71005C142.732 9.82144 142.794 9.9514 142.774 10.0999V14.6484H145.814Z"
    fill="#717375"
  />
<path
    d="M132.694 23.2254C132.694 24.0051 132.61 24.5806 132.423 24.9334C132.235 25.2861 131.881 25.4346 131.319 25.4346H120.03C120.26 26.3072 120.843 27.087 121.655 27.6068C122.488 28.0895 123.529 28.3123 124.821 28.3308C125.425 28.3308 126.029 28.2566 126.612 28.1081C127.258 27.9038 127.882 27.6439 128.445 27.2912C128.653 27.1055 129.007 27.1055 129.215 27.2912C129.236 27.3097 129.257 27.3469 129.278 27.3654L131.256 29.1477C131.361 29.2405 131.402 29.3705 131.402 29.5005C131.381 29.6676 131.319 29.8161 131.173 29.9275C130.278 30.7815 129.215 31.4498 128.007 31.9325C126.82 32.3967 125.529 32.6195 124.238 32.6009C122.426 32.6195 120.655 32.211 119.093 31.3941C117.614 30.5958 116.406 29.4633 115.594 28.1081C114.761 26.6971 114.324 25.1376 114.344 23.541C114.324 21.9443 114.74 20.3849 115.552 18.9739C116.344 17.6372 117.531 16.5047 118.968 15.7249C120.405 14.9081 122.092 14.4996 123.8 14.5182C125.446 14.4996 127.049 14.9081 128.445 15.7064C129.799 16.4861 130.882 17.6 131.569 18.8811C132.34 20.2363 132.714 21.7216 132.694 23.2254ZM123.863 19.0481C122.925 19.0296 122.03 19.3081 121.322 19.8279C120.614 20.3292 120.155 21.0532 119.947 22.0372H127.632C127.466 21.0718 127.028 20.3292 126.341 19.8279C125.654 19.3081 124.779 19.0296 123.863 19.0481Z"
    fill="#717375"
  />
<path
    d="M111.865 14.9081C112.01 14.9081 112.177 14.9452 112.281 15.0566C112.385 15.168 112.448 15.2979 112.427 15.4465V32.2667C112.427 33.9933 111.927 35.4043 110.906 36.4811C109.928 37.5578 108.615 38.3747 107.137 38.8017C105.637 39.2473 104.075 39.4886 102.492 39.4701C100.93 39.4701 99.368 39.2659 97.8892 38.8203C96.5562 38.4676 95.3066 37.9106 94.2027 37.168C94.0569 37.0751 93.9736 36.9266 93.9736 36.7781C93.9736 36.6667 93.9944 36.5553 94.0569 36.4625L95.5357 33.9562C95.6815 33.7705 95.8481 33.6777 95.9939 33.6777C96.098 33.6777 96.2022 33.6962 96.3063 33.7519C97.1394 34.2161 98.035 34.5688 98.9722 34.7916C99.972 35.0144 101.013 35.1258 102.055 35.1258C103.284 35.1443 104.512 34.8659 105.595 34.346C106.658 33.8448 107.199 32.9908 107.199 31.8026V30.1503C105.72 31.7283 103.908 32.5081 101.721 32.5081C100.076 32.5266 98.4724 32.0996 97.1186 31.3013C95.744 30.4844 94.6193 29.3519 93.8903 28.0152C92.3699 25.1747 92.3699 21.8701 93.8903 19.011C94.6193 17.6743 95.744 16.5418 97.1186 15.7249C98.4724 14.9081 100.076 14.4996 101.721 14.5182C103.804 14.5182 105.575 15.2979 107.053 16.8389L107.157 15.4465C107.199 15.0937 107.407 14.9081 107.72 14.9081H111.865ZM102.45 27.6254C103.596 27.6254 104.7 27.1612 105.408 26.3629C106.199 25.5646 106.637 24.5435 106.637 23.4853C106.658 22.427 106.22 21.4059 105.429 20.6262C104.7 19.8279 103.617 19.3638 102.471 19.3823C101.326 19.3638 100.222 19.8093 99.4721 20.5891C98.6598 21.3688 98.2224 22.4085 98.2641 23.4853C98.2224 24.5806 98.639 25.6389 99.4513 26.4557C100.18 27.2169 101.284 27.6439 102.45 27.6254Z"
    fill="#717375"
  />
<path
    d="M90.83 14.6484C90.9758 14.6484 91.1424 14.6856 91.2466 14.797C91.3507 14.9084 91.4132 15.0383 91.3924 15.1868V18.4358C91.3924 18.5843 91.3507 18.7143 91.2466 18.8257C91.1424 18.9185 90.9758 18.9742 90.83 18.9742H87.7892V31.8957C87.7892 32.0442 87.7475 32.1742 87.6434 32.2856C87.5393 32.3784 87.3726 32.4341 87.2268 32.4341H82.6656C82.5198 32.4341 82.3532 32.397 82.249 32.2856C82.1449 32.1742 82.0824 32.0442 82.1033 31.8957V18.9742H79.0624C78.9166 18.9742 78.75 18.937 78.6459 18.8257C78.5417 18.7143 78.4793 18.5843 78.5001 18.4358V15.1868C78.5001 15.0383 78.5417 14.9084 78.6459 14.797C78.75 14.7041 78.9166 14.6484 79.0624 14.6484H82.1033V10.0999C82.1033 9.9514 82.1449 9.82144 82.249 9.71005C82.3532 9.61722 82.5198 9.56152 82.6656 9.56152H87.2268C87.3726 9.56152 87.5393 9.59865 87.6434 9.71005C87.7475 9.82144 87.81 9.9514 87.7892 10.0999V14.6484H90.83Z"
    fill="#717375"
  />
<path
    d="M73.5223 13.1813C72.71 13.1999 71.9186 12.9029 71.3562 12.3645C70.773 11.8075 70.4606 11.0835 70.4814 10.3223C70.4606 9.56109 70.773 8.83704 71.3562 8.28008C72.4392 7.22185 74.2721 7.12903 75.4801 8.09443C75.5634 8.15012 75.6259 8.22439 75.6883 8.28008C76.2715 8.83704 76.5839 9.56109 76.5631 10.3223C76.5839 11.0835 76.2715 11.8075 75.6883 12.3645C75.126 12.9029 74.3346 13.1999 73.5223 13.1813ZM70.6689 15.1678C70.6689 15.0193 70.7106 14.8894 70.8147 14.778C70.9188 14.6851 71.0854 14.6294 71.2312 14.6294H75.8133C75.9591 14.6294 76.1257 14.6666 76.2299 14.778C76.334 14.8894 76.3965 15.0193 76.3757 15.1678V31.8767C76.3757 32.0252 76.334 32.1552 76.2299 32.2666C76.1257 32.3594 75.9591 32.4151 75.8133 32.4151H71.2312C71.0854 32.4151 70.9188 32.378 70.8147 32.2666C70.7106 32.1552 70.6481 32.0252 70.6689 31.8767V15.1678Z"
    fill="#717375"
  />
<path
    d="M63.3567 19.0849C64.7938 19.4562 66.0643 20.2173 67.0016 21.257C68.0429 22.3709 68.6053 23.7819 68.5636 25.23C68.5636 27.6435 67.7305 29.4444 66.0851 30.6511C64.4606 31.8393 61.9821 32.4334 58.6289 32.4334H49.2773C49.1315 32.4334 48.9649 32.3962 48.8607 32.2849C48.7566 32.1735 48.6941 32.0435 48.7149 31.895V7.96418C48.7149 7.81565 48.7566 7.6857 48.8607 7.57431C48.9649 7.48148 49.1315 7.42578 49.2773 7.42578H58.5872C60.2534 7.42578 61.6905 7.70426 62.8777 8.27979C64.0232 8.79962 64.9813 9.59793 65.6061 10.6005C66.2518 11.603 66.585 12.7355 66.5642 13.8865C66.585 15.019 66.2726 16.1515 65.6061 17.1355C65.0229 18.0823 64.2731 18.7135 63.3567 19.0849ZM61.0657 14.6106C61.0657 13.0882 60.066 12.327 58.0665 12.327H54.6091V17.1169H58.0665C59.0038 17.1169 59.7327 16.9127 60.2742 16.5043C60.7949 16.0773 61.0657 15.446 61.0657 14.6106ZM58.858 27.5321C60.0243 27.5321 60.9407 27.2908 61.628 26.7895C62.3153 26.2882 62.6486 25.5456 62.6486 24.5431C62.6486 23.5591 62.3153 22.8536 61.628 22.4081C60.9407 21.9254 60.0243 21.684 58.858 21.684H54.6091V27.5321H58.858Z"
    fill="#717375"
  />
<path
    d="M16.0985 5.19867C16.5776 4.71597 17.2649 4.45605 17.973 4.45605H22.5551C22.93 4.47462 23.2424 4.7531 23.2216 5.08728C23.2216 5.2358 23.1591 5.36576 23.0341 5.47715L13.9533 14.4628H18.9519L24.0547 19.4755H13.9533L24.0547 29.4822H17.9522C17.2441 29.4822 16.5568 29.2223 16.0777 28.7396L5.85137 18.5658C4.93496 17.6561 4.93496 16.2636 5.85137 15.3539L16.0985 5.19867Z"
    fill="#717375"
  />
<path
    d="M30.1996 38.7279C29.7206 39.2106 29.0333 39.4705 28.3251 39.4705H23.7431C23.3682 39.4519 23.0558 39.1734 23.0766 38.8393C23.0766 38.6907 23.1391 38.5608 23.264 38.4494L32.324 29.4637H27.3254L22.2227 24.4696H32.324L22.2227 14.4629H28.3251C29.0333 14.4629 29.7206 14.7414 30.1996 15.2055L40.4468 25.3608C41.3632 26.2705 41.3632 27.6629 40.4468 28.5726L30.1996 38.7279Z"
    fill="#717375"
  />
</svg>
