<svg
  width="190"
  height="62"
  viewBox="0 0 190 62"
  fill="none"
  xmlns="http://www.w3.org/2000/svg"
>
<g id="bloomberg-ar21 1" style="mix-blend-mode:luminosity">
<path
      id="Vector"
      d="M16.2539 21.5898H27.819C29.9952 21.5898 31.6961 21.9421 32.8727 22.5578C34.1993 23.2725 34.9478 24.317 34.9478 25.5698C34.9478 27.0197 34.0287 27.9447 32.1588 28.495V28.5614C34.6067 29.0893 36.0028 30.4962 36.0028 32.2115C36.0028 33.8391 35.0505 35.1143 33.4523 35.8842C32.1257 36.4999 30.3569 36.8082 28.0432 36.8082H16.2744V21.5898H16.2539ZM26.6771 27.5496C27.9358 27.5496 28.8202 27.1105 28.8202 26.2079C28.8202 25.3503 27.8679 24.9112 26.644 24.9112H22.6642V27.5281H26.6756L26.6771 27.5496ZM27.2552 33.4429C28.6497 33.4429 29.703 32.8936 29.703 31.8808C29.703 30.825 28.5976 30.3186 27.2204 30.3186H22.6626V33.4409L27.2552 33.4429ZM37.1541 21.599H43.209V36.8388H37.1541V21.599Z"
      fill="#717375"
    />
<path
      id="Vector_2"
      d="M44.418 31.3984C44.418 27.9677 47.8529 25.6367 53.1593 25.6367C58.4657 25.6367 61.8327 27.9677 61.8327 31.3984C61.8327 34.8494 58.4657 37.16 53.1593 37.16C47.8529 37.16 44.418 34.8525 44.418 31.3984ZM55.8472 31.3984C55.8472 29.5074 54.8949 28.2975 53.0914 28.2975C51.2878 28.2975 50.4066 29.485 50.4066 31.3984C50.4066 33.3118 51.291 34.4992 53.0914 34.4992C54.8949 34.5217 55.8472 33.3332 55.8472 31.3984Z"
      fill="#717375"
    />
<path
      id="Vector_3"
      d="M62.5801 31.3984C62.5801 27.9677 66.015 25.6367 71.3214 25.6367C76.6278 25.6367 79.9948 27.9677 79.9948 31.3984C79.9948 34.8494 76.6278 37.16 71.3214 37.16C66.015 37.16 62.5801 34.8525 62.5801 31.3984ZM74.0093 31.3984C74.0093 29.5074 73.057 28.2975 71.2535 28.2975C69.4499 28.2975 68.5687 29.485 68.5687 31.3984C68.5687 33.3118 69.4531 34.4992 71.2535 34.4992C73.057 34.5217 74.0093 33.3332 74.0093 31.3984Z"
      fill="#717375"
    />
<path
      id="Vector_4"
      d="M81.2227 25.9464H86.8496V27.5739H86.9523C88.0578 26.2976 89.6055 25.6166 92.006 25.6166C94.1143 25.6166 95.7141 26.2987 96.5306 27.4851H96.6333C97.9946 26.0557 99.7966 25.6166 101.837 25.6166C105.749 25.6166 107.415 27.4851 107.415 29.9703V36.8316H101.496V30.6748C101.496 29.5537 100.951 28.8369 99.4554 28.8369C97.993 28.8369 97.2444 29.7171 97.2444 30.9045V36.8418H91.3932V30.685C91.3932 29.5639 90.8484 28.8471 89.3528 28.8471C87.8904 28.8471 87.1418 29.7273 87.1418 30.9147V36.852H81.2227V25.9678V25.9464ZM114.898 35.4011H114.83V36.8081H109.217V21.5703H115.119V27.0675H115.221C116.327 26.122 117.84 25.6176 120.018 25.6176C124.234 25.6176 126.682 28.0803 126.682 31.3558C126.682 35.0499 124.029 37.1838 119.642 37.1838C117.77 37.1838 115.899 36.612 114.88 35.4021L114.898 35.4011ZM120.646 31.3333C120.646 29.5741 119.659 28.454 117.857 28.454C116.055 28.454 114.898 29.5751 114.898 31.3333C114.898 33.0691 116.054 34.2126 117.857 34.2126C119.661 34.2126 120.646 33.0915 120.646 31.3333ZM127.346 31.3558C127.346 27.9691 130.815 25.5941 135.848 25.5941C138.366 25.5941 140.27 26.0996 141.767 27.0011C143.707 28.2111 144.591 30.1234 144.523 32.3452H133.231C133.468 33.7082 134.49 34.3903 136.259 34.3903C137.279 34.3903 138.198 34.0819 138.573 33.357H144.253C143.266 35.8422 140.273 37.0939 136.041 37.0939C130.837 37.1164 127.333 34.8508 127.333 31.3558H127.346ZM133.23 30.2347H138.604C138.502 28.9156 137.38 28.2335 135.986 28.2335C134.353 28.2335 133.468 28.9809 133.23 30.2347ZM151.224 27.8149H151.327C152.551 26.2977 154.151 25.7259 156.156 25.7259C156.633 25.7259 156.938 25.7698 157.109 25.8361V29.179H156.973C153.503 28.7828 151.445 29.8385 151.445 32.3013V36.8316H145.526V25.9678H151.139V27.8057L151.224 27.8149Z"
      fill="#717375"
    />
<path
      id="Vector_5"
      d="M157.789 36.8292H163.469C163.675 37.2907 164.422 37.7532 165.851 37.7532C167.756 37.7532 168.402 36.9834 168.402 35.8623V35.071H168.266C167.313 35.7857 166.089 36.3024 164.218 36.3024C160.578 36.3024 157.449 34.5666 157.449 31.1789C157.449 28.0566 160.035 25.6367 163.946 25.6367C166.189 25.6367 167.587 26.2309 168.471 27.154H168.574V25.9665H174.182V35.3783C174.182 37.1141 173.229 38.4792 171.835 39.2705C170.372 40.1281 168.266 40.4579 165.881 40.4579C161.459 40.4579 158.332 39.2705 157.786 36.8292H157.789ZM168.638 30.9787C168.638 29.6156 167.651 28.5283 165.917 28.5283C164.251 28.5283 163.196 29.4962 163.196 30.9787C163.196 32.4286 164.251 33.4853 165.917 33.4853C167.651 33.4853 168.638 32.4081 168.638 30.9787Z"
      fill="#717375"
    />
</g>
</svg>
