<svg
  width="131"
  height="35"
  viewBox="0 0 131 35"
  fill="none"
  xmlns="http://www.w3.org/2000/svg"
>
<g clip-path="url(#clip0_4320_6293)">
<path
      d="M13.5387 32.8281H0.119141V2.82812H12.9991C19.2589 2.82812 22.9062 6.11457 22.9062 11.2553C22.9062 14.583 20.5638 16.7334 18.9424 17.4494C20.8777 18.2917 23.3551 20.1874 23.3551 24.1921C23.3551 29.7942 19.2589 32.8281 13.5387 32.8281ZM12.5036 8.05381H6.37884V14.9639H12.5036C15.1602 14.9639 16.6466 13.5732 16.6466 11.5077C16.6466 9.44451 15.1602 8.05381 12.5036 8.05381ZM12.9084 20.231H6.37884V27.6047H12.9084C15.7463 27.6047 17.0954 25.9203 17.0954 23.8961C17.0954 21.8742 15.7438 20.231 12.9084 20.231Z"
      fill="#717375"
    />
<path
      d="M44.2083 20.5247V32.8281H37.9927V20.5247L28.3555 2.82812H35.1548L41.1447 14.9203L47.0439 2.82812H53.8432L44.2083 20.5247Z"
      fill="#717375"
    />
<path
      d="M72.2614 32.8281H58.8418V2.82812H71.7218C77.9815 2.82812 81.6289 6.11457 81.6289 11.2553C81.6289 14.583 79.2864 16.7334 77.665 17.4494C79.6004 18.2917 82.0778 20.1874 82.0778 24.1921C82.0778 29.7942 77.9815 32.8281 72.2614 32.8281ZM71.2264 8.05381H65.1015V14.9639H71.2264C73.8828 14.9639 75.3692 13.5732 75.3692 11.5077C75.3692 9.44451 73.8828 8.05381 71.2264 8.05381ZM71.631 20.231H65.1015V27.6047H71.631C74.469 27.6047 75.818 25.9203 75.818 23.8961C75.818 21.8742 74.469 20.231 71.631 20.231Z"
      fill="#717375"
    />
<path d="M87.0781 32.8281V2.82812H93.3378V32.8281H87.0781Z" fill="#717375" />
<path
      d="M112.974 8.05341V32.8281H106.714V8.05341H98.3379V2.82812H121.351V8.05341H112.974Z"
      fill="#717375"
    />
</g>
<defs>
<clipPath id="clip0_4320_6293">
<rect
        width="130"
        height="34"
        fill="white"
        transform="translate(0.119141 0.828125)"
      />
</clipPath>
</defs>
</svg>
