<svg
  width="180"
  height="48"
  viewBox="0 0 180 48"
  fill="none"
  xmlns="http://www.w3.org/2000/svg"
>
<g id="Vector" style="mix-blend-mode:luminosity">
<path
      d="M15.8032 24.0172C15.8032 25.2984 16.5515 26.2993 17.5093 26.2993C18.467 26.2993 19.2152 25.2984 19.2152 24.0172C19.2152 22.736 18.467 21.7351 17.5093 21.7351C16.5515 21.7751 15.8032 22.776 15.8032 24.0172ZM30.1098 21.7751C29.1521 21.7751 28.4039 22.776 28.4039 24.0571C28.4039 25.3383 29.1521 26.3393 30.1098 26.3393C31.0676 26.3393 31.8159 25.3383 31.8159 24.0571C31.8159 22.776 31.0676 21.7751 30.1098 21.7751ZM30.1098 38.9109C29.1521 38.9109 28.4039 39.9117 28.4039 41.1929C28.4039 42.4741 29.1521 43.475 30.1098 43.475C31.0676 43.475 31.8159 42.4741 31.8159 41.1929C31.8159 39.9117 31.0676 38.9109 30.1098 38.9109Z"
      fill="#717375"
    />
<path
      d="M33.7313 2.91793C32.0253 0.0753176 28.9724 -0.0447881 27.1766 2.19728L26.9671 2.47754L26.5481 2.91793C24.842 4.75962 22.298 4.59948 20.7117 2.47754V2.31738C20.1729 1.59672 19.4546 1.0362 18.7064 0.755946C18.5867 0.755946 18.3771 0.595801 18.2873 0.595801H16.5813C16.4616 0.595801 16.3718 0.595799 16.2521 0.755946H16.0426C15.9229 0.755946 15.8331 0.916091 15.7134 0.916091C15.7134 0.916091 15.5937 0.9161 15.5937 1.07625C15.4739 1.07625 15.3841 1.23639 15.2644 1.23639C15.2644 1.23639 15.1446 1.23639 15.1446 1.39654C15.0249 1.55668 14.9351 1.55669 14.8154 1.6768C14.8154 1.6768 14.6957 1.6768 14.6957 1.83694C14.576 1.99709 14.4862 1.99709 14.3665 2.11719L14.0373 2.5576L13.6182 2.99801C11.9122 4.83971 9.36818 4.67955 7.90157 2.5576C7.90157 2.5576 7.78185 2.5576 7.78185 2.39745L7.57234 2.11719C6.94381 1.39653 6.19555 0.836017 5.3575 0.715907H3.44197C3.44197 0.876054 3.32225 0.876058 3.23246 0.996169H3.20253C2.66378 1.27643 2.15497 1.55668 1.70602 2.11719L1.25707 2.71775C0.838046 3.27826 0.628534 3.99893 0.419023 4.55944C0.419023 4.71959 0.299302 4.83971 0.299302 4.99985C0.299302 5.16 0.179581 5.28011 0.179581 5.56036C0.0598605 6.56128 0.0598604 7.5622 0.299302 8.52308C0.299302 8.68323 0.419023 8.80334 0.419023 8.96349V9.12364C0.419023 9.28379 0.538744 9.40389 0.538744 9.56404C0.658464 9.72418 0.658464 9.8443 0.748255 10.1246C0.957766 10.2847 1.16728 10.565 1.287 10.6851L1.70602 11.2456C3.29232 13.3676 3.29232 17.051 1.58631 19.333C1.37679 19.6133 1.04756 20.0537 0.957766 20.3339C0.838046 20.4941 0.838046 20.6142 0.748255 20.8945V21.0547C0.628534 21.2148 0.628534 21.3349 0.538744 21.495V21.6552C0.538744 21.8153 0.419023 21.9354 0.419023 22.0956V22.2557C0.419023 22.4158 0.419023 22.5359 0.299302 22.6961V24.8181C0.299302 24.9782 0.299302 25.0983 0.419023 25.2584V25.4186C0.628534 26.4195 1.04755 27.4205 1.67609 28.2613C3.38211 30.5433 3.38211 34.2267 1.67609 36.4687L1.34685 36.9092V37.0694C1.22713 37.2295 1.13735 37.3496 1.13735 37.5098C1.13735 37.5098 1.13735 37.6699 1.01763 37.6699C0.897906 37.83 0.897906 37.9501 0.808115 38.1103L0.688395 38.2704C0.688395 38.4306 0.568674 38.4306 0.568674 38.5507C0.568674 38.6708 0.448953 38.7108 0.448953 38.831C0.448953 38.9911 0.448953 38.9911 0.329232 39.1112C0.119721 39.6717 0 40.3924 0 40.9529V42.0739C0.119721 42.5144 0.119721 42.9147 0.329232 43.1949C0.329232 43.3551 0.448953 43.4753 0.448953 43.4753C0.448953 43.4753 0.448953 43.6354 0.568674 43.6354C0.568674 43.7956 0.688395 43.9156 0.688395 44.0758C0.688395 44.0758 0.688395 44.2359 0.808115 44.2359C0.927841 44.5162 1.01763 44.6763 1.13735 44.7964C1.13735 44.7964 1.13735 44.9565 1.25707 44.9565C1.25707 44.9565 1.25707 45.1167 1.37679 45.1167C1.37679 45.2768 1.49651 45.2768 1.49651 45.2768L1.61623 45.437C1.73595 45.5971 1.82574 45.5971 1.82574 45.7173L1.94546 45.8775C1.94546 45.8775 2.06519 45.8775 2.06519 46.0376C2.18491 46.1978 2.2747 46.3178 2.39442 46.3178C2.39442 46.3178 2.51414 46.3178 2.51414 46.478C2.63386 46.6381 2.72364 46.6381 2.84336 46.7582H2.90323C3.02295 46.9184 3.11274 46.9184 3.32225 46.9184C3.44197 46.9184 3.65148 47.0785 3.74127 47.0785H3.86099C3.98071 47.0785 4.07051 47.0785 4.19023 47.2387H5.14799C5.47722 47.2387 5.68674 47.0785 5.98604 47.0785H6.10576C6.22548 47.0785 6.31527 46.9184 6.43499 46.9184H6.49485C6.61457 46.9184 6.70437 46.7582 6.82409 46.7582H6.94381C7.15331 46.5981 7.48255 46.3178 7.69206 46.1978L8.14102 45.5971C9.84706 43.1949 12.6006 43.1949 14.2767 45.5971C16.1923 48.2797 19.3648 48.1595 21.1606 45.1567C22.4177 43.0348 22.4177 39.912 21.1606 37.6298C19.4546 34.7873 16.4018 34.6672 14.6059 36.9092L14.3964 37.1895L13.9774 37.6298C12.2713 39.4716 9.72734 39.3114 8.14102 37.1895L7.9315 36.9092L7.60227 36.3487C6.22548 34.0665 6.3452 30.6635 7.9315 28.5415C8.88929 27.4205 9.30827 25.8591 9.30827 24.2975V23.8572C9.30827 22.4559 8.88929 21.0146 8.05122 20.0136C8.05122 19.8535 7.9315 19.8535 7.9315 19.7334L7.60227 19.1728C6.22548 16.8908 6.3452 13.4877 7.9315 11.3657L8.17094 11.0454C9.87692 8.6432 12.6305 8.6432 14.3066 11.0454L14.7556 11.646C14.8753 11.646 14.8753 11.8061 14.9651 11.8061C15.0549 11.8061 15.0848 11.9662 15.1746 11.9662C15.2644 11.9662 15.2943 12.1264 15.3841 12.1264C15.4739 12.1264 15.5038 12.2865 15.5937 12.2865C15.6834 12.2865 15.7134 12.4467 15.8031 12.4467C15.8929 12.4467 15.9229 12.6068 16.0126 12.6068C16.1024 12.6068 16.1324 12.6068 16.2221 12.7669C16.3418 12.7669 16.3418 12.7669 16.4317 12.9271H18.2275C18.3472 12.9271 18.437 12.9271 18.5567 12.7669H18.7662C18.8859 12.7669 18.9757 12.6068 19.0954 12.6068H19.2151C19.3349 12.6068 19.4247 12.4467 19.6342 12.3266C20.0532 12.0463 20.4723 11.6059 20.8015 11.2056L20.9212 11.0454C22.6272 8.6432 25.3808 8.6432 27.0569 11.0454C28.8527 13.888 32.145 13.7278 33.851 10.7651C34.9884 8.16276 34.9884 5.03988 33.7313 2.91793Z"
      fill="#717375"
    />
<path
      d="M57.8851 20.494C57.2566 19.6533 56.7179 19.0927 55.9696 18.6523C55.3411 18.212 54.5928 17.9316 53.635 17.9316C52.797 17.9316 51.9291 18.212 51.3005 18.6523C50.6719 19.0927 50.1332 19.6533 49.7142 20.494C49.2952 21.2147 48.9659 22.0555 48.7564 23.0563C48.5469 24.0573 48.4272 25.0582 48.4272 26.0191C48.4272 26.98 48.5469 28.0209 48.8462 28.9818C49.0558 29.9827 49.4747 30.6634 49.8938 31.384C50.3128 32.1047 50.9413 32.6651 51.5998 33.0656C52.2283 33.506 52.9766 33.626 53.8146 33.626C54.7724 33.626 55.5207 33.3458 56.1491 32.9054C56.7777 32.4651 57.4063 31.9045 57.945 31.0637L60.1598 34.1866C59.3218 35.4678 58.364 36.3086 57.2865 36.869C56.239 37.4296 55.0717 37.7099 53.7847 37.7099C52.5277 37.7099 51.2406 37.4296 50.1931 36.869C49.1455 36.3086 48.1878 35.4678 47.4395 34.4668C46.6912 33.4659 46.0627 32.1847 45.6437 30.7835C45.2247 29.3822 45.0151 27.6605 45.0151 25.979C45.0151 24.2974 45.2247 22.5759 45.6437 21.1746C46.0627 19.7734 46.6912 18.4922 47.4395 17.3311C48.1878 16.3301 49.1455 15.4893 50.1931 14.9289C51.2406 14.3683 52.5277 14.0881 53.7847 14.0881C55.0418 14.0881 56.2091 14.3683 57.2865 14.9289C58.4538 15.4893 59.4116 16.4903 60.2496 17.6113L57.8851 20.494ZM65.0684 25.7388C65.0684 26.8598 65.1881 28.0209 65.4874 28.8617C65.6969 29.8626 66.1159 30.7034 66.535 31.424C66.954 32.1448 67.5825 32.7052 68.241 32.9854C68.8695 33.4258 69.7375 33.546 70.5755 33.546C71.4136 33.546 72.1619 33.3859 72.9101 32.9854C73.5386 32.5451 74.1672 31.9846 74.6161 31.424C75.0352 30.7034 75.4541 29.8626 75.6636 28.8617C75.8732 27.8607 76.0827 26.8598 76.0827 25.7388C76.0827 24.6177 75.963 23.4567 75.6636 22.6159C75.4541 21.615 75.0352 20.7743 74.6161 20.0536C74.1971 19.333 73.5686 18.7724 72.9101 18.4922C72.2816 18.0518 71.4136 17.9316 70.5755 17.9316C69.7375 17.9316 68.9892 18.0918 68.241 18.4922C67.6125 18.9326 66.9839 19.4931 66.535 20.0536C66.1159 20.7743 65.6969 21.615 65.4874 22.6159C65.2779 23.6169 65.0684 24.6177 65.0684 25.7388ZM61.6863 25.7388C61.6863 24.0573 61.8957 22.4959 62.3148 21.0545C62.7338 19.6533 63.3623 18.3721 64.2303 17.211C65.0684 16.09 65.9364 15.2091 67.1036 14.6486C68.1512 14.0881 69.3184 13.6477 70.6055 13.6477C71.8925 13.6477 73.0298 13.9279 74.1073 14.6486C75.1549 15.2091 76.1127 16.0499 76.9806 17.211C77.8186 18.332 78.3574 19.6132 78.8961 21.0545C79.3152 22.4558 79.5247 24.0172 79.5247 25.7388C79.5247 27.4204 79.3152 28.9818 78.8961 30.4231C78.4771 31.8245 77.8486 33.1056 76.9806 34.2666C76.1425 35.3877 75.2746 36.1084 74.1073 36.829C73.0597 37.3896 71.8925 37.8299 70.6055 37.8299C69.3484 37.8299 68.1811 37.5497 67.1036 36.829C66.0561 36.2685 65.0983 35.4277 64.2303 34.2666C63.3923 33.1456 62.8535 31.9846 62.3148 30.4231C62.0155 28.9818 61.6863 27.4204 61.6863 25.7388ZM82.7871 37.2294H85.9596V14.5685H82.7871V37.2294ZM82.0388 6.32096C82.0388 5.48019 82.2483 4.75954 82.6674 4.03888C83.0863 3.47836 83.6251 3.03795 84.2537 3.03795C84.8821 3.03795 85.4209 3.31821 85.8399 4.03888C86.259 4.59939 86.4685 5.44015 86.4685 6.32096C86.4685 7.20177 86.259 7.8824 85.8399 8.60306C85.4209 9.16358 84.8821 9.60399 84.2537 9.60399C83.6251 9.60399 83.0863 9.32372 82.6674 8.60306C82.2483 8.00251 82.0388 7.16173 82.0388 6.32096ZM90.3896 14.5284H93.5922V18.0518H93.7116C94.1306 16.7706 94.7595 15.7697 95.8364 15.089C96.7947 14.3684 97.962 13.968 99.3384 13.968C100.176 13.968 100.925 14.1281 101.673 14.5284C102.421 14.8088 103.049 15.3693 103.589 16.09C104.127 16.8106 104.546 17.6514 104.965 18.7724C105.295 19.8934 105.504 21.1746 105.504 22.736V37.3495H102.271V23.8971C102.271 22.8962 102.152 21.8953 101.943 21.2147C101.733 20.494 101.403 19.8133 101.104 19.3729C100.775 18.9326 100.356 18.5321 99.847 18.372C99.428 18.2118 98.8896 18.0918 98.3511 18.0918C97.7222 18.0918 97.0933 18.2519 96.5549 18.5321C96.0164 18.8125 95.507 19.2528 95.0581 19.9335C94.6392 20.494 94.3098 21.3348 94.1007 22.3357C93.8908 23.3365 93.7713 24.4576 93.7713 25.7388V37.5096H90.5987V14.5685L90.3896 14.5284ZM117.207 33.6661C118.045 33.6661 118.793 33.506 119.542 33.1056C120.29 32.6652 120.799 32.1047 121.337 31.424C121.756 30.7034 122.175 29.8626 122.385 28.8617C122.594 27.8607 122.804 26.8599 122.804 25.6187C122.804 24.4976 122.684 23.3365 122.385 22.3757C122.175 21.3748 121.756 20.534 121.337 19.8134C120.799 19.0927 120.29 18.5321 119.542 18.1318C118.793 17.6914 118.045 17.5712 117.207 17.5712C116.369 17.5712 115.621 17.7314 114.872 18.1318C114.124 18.5722 113.615 19.1328 113.076 19.8134C112.657 20.534 112.238 21.3748 112.029 22.3757C111.819 23.3766 111.61 24.3776 111.61 25.6187C111.61 26.7397 111.729 27.9008 112.029 28.8617C112.238 29.8626 112.657 30.7034 113.076 31.424C113.496 32.1448 114.124 32.7052 114.872 33.1056C115.501 33.3859 116.369 33.6661 117.207 33.6661ZM126.006 37.0693H122.834V33.8262H122.714C122.085 35.1074 121.218 35.9482 120.17 36.6688C119.123 37.3896 117.955 37.6698 116.788 37.6698C115.531 37.6698 114.243 37.3896 113.196 36.829C112.148 36.2685 111.191 35.4277 110.443 34.2666C109.694 33.1456 109.065 31.8644 108.737 30.4231C108.318 29.0218 108.108 27.4604 108.108 25.7388C108.108 24.0172 108.318 22.4959 108.737 20.9343C109.156 19.5331 109.694 18.2519 110.443 17.0909C111.191 15.9699 112.148 15.089 113.196 14.5284C114.243 13.968 115.411 13.6878 116.788 13.6878C117.955 13.6878 119.123 13.968 120.17 14.6887C121.218 15.4093 122.085 16.3702 122.594 17.5313H122.714V0.515625H125.887V37.0693H126.006ZM142.198 23.8971C142.198 22.8962 142.079 22.0555 141.87 21.2147C141.66 20.3739 141.33 19.6533 140.911 19.0927C140.492 18.5322 139.954 18.0918 139.415 17.6914C138.787 17.4112 138.158 17.1309 137.29 17.1309C136.541 17.1309 135.793 17.291 135.165 17.6914C134.536 18.1318 133.998 18.5322 133.459 19.2528C133.04 19.8134 132.62 20.534 132.411 21.3748C132.201 22.2155 131.992 22.9362 131.992 23.657H142.168L142.198 23.8971ZM132.052 27.4204C132.052 28.4213 132.262 29.2621 132.591 30.1028C132.92 30.9436 133.339 31.6643 133.848 32.2248C134.387 32.7854 135.015 33.2257 135.644 33.506C136.392 33.7862 137.02 33.9463 137.769 33.9463C138.727 33.9463 139.684 33.6661 140.403 32.9454C141.151 32.3849 141.779 31.5441 142.408 30.5432L144.832 33.1056C143.037 36.2285 140.492 37.7899 137.32 37.7899C135.943 37.7899 134.776 37.5096 133.728 36.9491C132.681 36.3886 131.723 35.5478 130.974 34.3867C130.226 33.2657 129.598 32.1047 129.269 30.5432C128.85 29.1419 128.64 27.5805 128.64 25.859C128.64 24.1773 128.85 22.6159 129.269 21.1746C129.688 19.7734 130.316 18.4922 131.065 17.3311C131.812 16.2101 132.771 15.4894 133.818 14.7687C134.866 14.2083 136.033 13.9279 137.32 13.9279C138.816 13.9279 140.073 14.2082 141.121 14.9289C142.168 15.6495 143.037 16.4903 143.665 17.6113C144.294 18.7323 144.832 20.0135 145.162 21.4548C145.491 22.8562 145.581 24.2975 145.581 25.859V27.4204H132.052ZM158.091 20.2137C157.672 19.6533 157.253 19.0927 156.715 18.6523C156.175 18.212 155.458 17.9316 154.71 17.9316C153.961 17.9316 153.332 18.212 152.704 18.6523C152.165 19.0927 151.866 19.6533 151.866 20.494C151.866 21.2147 152.075 21.7751 152.405 22.0555C152.734 22.4959 153.153 22.7761 153.572 23.0563C153.991 23.3367 154.529 23.4968 154.948 23.6169C155.488 23.777 155.907 23.8971 156.206 23.8971C156.834 24.1773 157.583 24.3375 158.121 24.7379C158.75 25.0182 159.288 25.4585 159.707 26.0191C160.126 26.5796 160.456 27.1401 160.755 27.8607C160.964 28.5815 161.174 29.4221 161.174 30.5432C161.174 31.8244 160.964 32.9454 160.545 33.7862C160.126 34.627 159.588 35.4678 158.959 36.0683C158.331 36.6688 157.583 37.0693 156.745 37.3495C155.907 37.6297 155.039 37.7899 154.32 37.7899C152.943 37.7899 151.686 37.5096 150.609 36.9491C149.561 36.3886 148.604 35.3877 147.735 33.8262L150.16 31.1438C150.699 31.8644 151.207 32.425 151.866 32.9854C152.524 33.546 153.243 33.8262 154.201 33.8262C154.62 33.8262 155.039 33.8262 155.458 33.6661C155.877 33.506 156.206 33.3859 156.505 33.1056C156.834 32.8253 157.044 32.5451 157.253 32.2648C157.463 31.8245 157.583 31.424 157.583 30.9837C157.583 30.4231 157.463 29.8626 157.164 29.4223C156.834 28.9818 156.535 28.7015 156.116 28.4213C155.697 28.1411 155.278 27.9809 154.859 27.8607L153.602 27.4204C152.973 27.1401 152.225 26.98 151.686 26.6998C151.058 26.4194 150.519 25.979 150.1 25.5786C149.681 25.1382 149.262 24.4576 148.933 23.737C148.604 23.0163 148.514 22.0555 148.514 21.0545C148.514 19.9335 148.723 18.7724 149.053 17.9316C149.381 17.0908 149.891 16.3702 150.549 15.8097C151.178 15.2492 151.807 14.8088 152.554 14.5284C153.302 14.2482 154.14 14.0881 154.889 14.0881C156.056 14.0881 157.104 14.3683 158.181 14.9289C159.229 15.4893 160.096 16.4903 160.725 17.7715L158.091 20.2137ZM164.257 1.07615H167.43V24.0172L174.643 14.3684H178.983L171.26 24.5778L179.731 36.749H175.181L167.46 25.1382V36.749H164.287V1.07615"
      fill="#717375"
    />
</g>
</svg>
