<svg
  width="109"
  height="52"
  viewBox="0 0 109 52"
  fill="none"
  xmlns="http://www.w3.org/2000/svg"
>
<g id="Vector" style="mix-blend-mode:luminosity">
<path
      d="M16.4276 37.593L11.9154 41.5433V41.1447C11.049 41.5796 10.0744 41.8333 9.17198 41.942C4.91242 41.8694 1.55533 37.3756 1.50118 32.0844V30.1275C2.89095 34.1865 5.74267 36.9408 9.17198 36.8321C10.3271 36.9408 11.5183 36.5784 12.511 36.0347L12.9081 34.0777C11.7349 34.8026 10.4354 35.2737 9.17198 35.2737C4.91242 35.2737 1.55533 30.816 1.50118 25.4161V23.8216C2.89095 27.5906 5.74267 30.3086 9.17198 30.1275C10.7242 30.3086 12.2222 29.6563 13.5037 28.5328L13.7022 26.5759C12.4568 27.8806 10.8505 28.6415 9.18999 28.5328C4.93047 28.6415 1.57338 24.184 1.51923 18.6754V17.0807C2.909 20.9223 5.76072 23.6766 9.18999 23.7853C11.1393 23.6766 12.9803 22.6256 14.4964 21.031L14.6949 18.6754C13.3232 20.7048 11.3198 22.0458 9.18999 22.2269C4.93047 22.0458 1.57338 17.5518 1.51923 11.9707C1.55533 6.64333 4.93047 2.18571 9.18999 2.11323C11.7169 2.18571 14.0813 3.96153 15.471 6.8608L15.6154 7.33192H16.6081L16.4637 6.8608C15.0739 3.05551 12.2763 0.554876 9.18999 0.554876C4.4612 0.518636 0.707031 5.70109 0.707031 11.9345V32.4468C0.869471 38.5353 4.5334 43.5004 9.15392 43.5004C12.2042 43.5365 14.9656 41.1085 16.4276 37.593Z"
      fill="#717375"
    />
<path
      d="M14.5867 51.4733L16.1749 37.9192L11.6086 41.9057L14.3881 18.4217H9.04564L10.4354 6.86078H27.4916L26.1018 18.4217H20.5427L19.3515 24.8L25.5062 19.6176L14.5867 51.4733ZM17.3662 35.1649L16.572 43.1379L23.1238 23.2416L17.7632 28.0254L20.1457 16.8633H25.5062L26.4989 8.49162H11.013L10.0202 16.8633H15.3808L12.7998 39.1514L17.3662 35.1649Z"
      fill="#717375"
    />
<path
      d="M38.8082 14.6527C38.8263 15.921 38.6277 16.8996 38.2307 17.6244C37.8336 18.3492 37.2922 18.7116 36.5883 18.7116C35.8843 18.7116 35.3068 18.2405 34.8736 17.3344C34.4404 16.4284 34.2238 15.2325 34.2238 13.7828V11.4272C34.2238 9.97756 34.4404 8.78161 34.8556 7.87559C35.2887 6.96957 35.8482 6.49845 36.5341 6.49845C37.256 6.49845 37.8156 6.86085 38.2307 7.54943C38.6458 8.27425 38.8444 9.25274 38.8263 10.5212V10.5574H37.6711C37.6711 9.79636 37.5809 9.21651 37.4004 8.85411C37.2199 8.49169 36.9312 8.31049 36.5521 8.31049C36.1911 8.31049 35.9204 8.60042 35.7219 9.18027C35.5233 9.76013 35.415 10.4849 35.415 11.391V13.7828C35.415 14.6889 35.5233 15.4499 35.7219 16.0298C35.9385 16.6096 36.2273 16.8996 36.6063 16.8996C36.9672 16.8996 37.2199 16.7184 37.4004 16.356C37.5809 15.9936 37.6711 15.4138 37.6711 14.6527H38.8082ZM45.3419 13.6741C45.3419 15.1238 45.1073 16.356 44.6561 17.2983C44.2049 18.2405 43.6093 18.7116 42.8692 18.7116C42.1292 18.7116 41.5517 18.2405 41.0824 17.2983C40.6312 16.356 40.3966 15.1238 40.3966 13.6741V11.5359C40.3966 10.0863 40.6312 8.89034 41.0824 7.91183C41.5336 6.96957 42.1292 6.4622 42.8512 6.4622C43.5912 6.4622 44.1868 6.93333 44.638 7.91183C45.1073 8.8541 45.3239 10.0863 45.3239 11.5359V13.6741H45.3419ZM44.1507 11.4997C44.1507 10.5574 44.0424 9.83261 43.8078 9.21651C43.5731 8.63666 43.2663 8.31049 42.8512 8.31049C42.4541 8.31049 42.1292 8.60042 41.9127 9.21651C41.6961 9.79637 41.5697 10.5574 41.5697 11.4997V13.6379C41.5697 14.5801 41.678 15.3412 41.9127 15.9573C42.1292 16.5372 42.4541 16.8633 42.8512 16.8633C43.2663 16.8633 43.5731 16.5734 43.8078 15.9573C44.0424 15.3775 44.1507 14.5801 44.1507 13.6379V11.4997ZM48.4103 18.5304H47.219V6.64341H48.4103V18.5304ZM55.2508 18.5304H54.0596L51.6771 10.5212H51.659V18.5304H50.4678V6.64341H51.659L54.0415 14.6527H54.0596V6.64341H55.2508V18.5304ZM61.225 8.49169H59.5284V18.5304H58.3372V8.49169H56.6767V6.64341H61.225V8.49169ZM63.9323 13.3117V16.7184H66.5492V18.5304H62.7591V6.64341H66.5492V8.49169H63.9503V11.4634H66.1524V13.3117H63.9323ZM69.437 16.7184H72.0901V18.5304H68.2457V6.64341H69.437V16.7184ZM74.9424 13.3117V16.7184H77.5594V18.5304H73.7689V6.64341H77.5594V8.49169H74.9601V11.4634H77.1619V13.3117H74.9424ZM83.804 16.9359C83.6239 17.407 83.3532 17.8418 82.9741 18.2042C82.6127 18.5666 82.1436 18.7479 81.5661 18.7479C80.844 18.7479 80.2664 18.3129 79.815 17.407C79.3643 16.5009 79.1297 15.3412 79.1297 13.8916V11.391C79.1297 9.94134 79.3459 8.78161 79.7973 7.87559C80.2303 6.96957 80.8078 6.49845 81.4938 6.49845C82.2159 6.49845 82.775 6.86085 83.1542 7.54943C83.5333 8.23801 83.7317 9.14403 83.714 10.3037V10.34H82.595C82.595 9.72387 82.5043 9.21651 82.3243 8.85411C82.1436 8.49169 81.8729 8.31049 81.5299 8.31049C81.1692 8.31049 80.8801 8.60041 80.6455 9.14403C80.4287 9.72387 80.321 10.4487 80.321 11.3185V13.8191C80.321 14.7251 80.4287 15.4499 80.6639 16.0298C80.8985 16.6096 81.2053 16.8633 81.5838 16.8633C81.8729 16.8633 82.0897 16.7909 82.252 16.6821C82.4143 16.5734 82.5405 16.4284 82.6311 16.2473V13.9278H81.4938V12.2607H83.8224V16.9359H83.804ZM86.8724 13.7828V18.5304H85.6812V6.64341H87.739C88.4066 6.64341 88.948 6.96957 89.3271 7.58567C89.7062 8.20176 89.9047 9.07154 89.9047 10.1588C89.9047 10.7749 89.8324 11.2822 89.6701 11.7534C89.5078 12.1883 89.2732 12.5507 88.9664 12.8406C89.3087 13.058 89.5617 13.3843 89.724 13.8916C89.8685 14.3627 89.9586 14.9788 89.9586 15.7036V16.5734C89.9586 16.8996 89.9769 17.262 90.0308 17.6244C90.067 17.9868 90.1576 18.2405 90.2654 18.4217V18.6029H89.038C88.9303 18.4217 88.858 18.1318 88.8218 17.7331C88.7857 17.3344 88.7673 16.9359 88.7673 16.5734V15.7399C88.7673 15.1601 88.6957 14.6889 88.5328 14.3627C88.3705 14.0365 88.1359 13.8554 87.8468 13.8554H86.8724V13.7828ZM86.8724 11.9708H87.7206C88.0459 11.9708 88.2982 11.8259 88.4605 11.5359C88.6234 11.246 88.7134 10.8473 88.7134 10.2675C88.7134 9.72389 88.6234 9.28899 88.4605 8.96282C88.2982 8.63665 88.0636 8.49169 87.739 8.49169H86.8724V11.9708ZM94.9403 15.9936H93.027L92.6301 18.5666H91.385L93.3883 6.67965H94.5973L96.5829 18.5666H95.3372L94.9403 15.9936ZM93.3161 14.109H94.6518L94.002 9.90508H93.9836L93.3161 14.109ZM99.2177 14.2178V18.5304H98.0265V6.64341H100.301C100.986 6.64341 101.51 7.00581 101.907 7.69438C102.304 8.38297 102.485 9.32523 102.485 10.4487C102.485 11.5722 102.286 12.5144 101.907 13.203C101.51 13.8916 100.986 14.254 100.301 14.254H99.2177V14.2178ZM99.2177 12.4057H100.301C100.626 12.4057 100.879 12.2245 101.059 11.8621C101.221 11.4997 101.312 11.0286 101.312 10.4849C101.312 9.90509 101.221 9.43394 101.059 9.07154C100.896 8.70913 100.643 8.52792 100.301 8.52792H99.2177V12.4057ZM109 18.5304H107.809V13.6017H105.391V18.5304H104.199V6.64341H105.391V11.7534H107.809V6.64341H109V18.5304Z"
      fill="#717375"
    />
<path
      d="M36.3897 37.9556H35.6497V30.1275H34.3141V28.8591H37.7253V30.1275H36.3897V37.9556ZM41.3532 37.9556H40.6131V33.7153C40.6131 33.1718 40.559 32.7731 40.4507 32.5194C40.3424 32.2657 40.18 32.1208 39.9453 32.1208C39.6385 32.1208 39.4219 32.302 39.2776 32.6644C39.1331 33.0268 39.0609 33.6429 39.0609 34.5127V37.9193H38.339V28.243H39.0609V30.7073C39.0609 31.106 39.0429 31.5047 39.0249 31.9758H39.079C39.1692 31.6496 39.3136 31.396 39.4941 31.2147C39.6746 31.0336 39.8732 30.9249 40.1078 30.9249C40.9381 30.9249 41.3532 31.7584 41.3532 33.4616V37.9556ZM43.8619 38.0643C43.3205 38.0643 42.9053 37.7382 42.6166 37.122C42.3098 36.5059 42.1654 35.6361 42.1654 34.5489C42.1654 33.4255 42.3098 32.5557 42.5805 31.9033C42.8512 31.251 43.2483 30.9249 43.7356 30.9249C44.1868 30.9249 44.5478 31.2147 44.8005 31.7584C45.0712 32.302 45.1976 33.0631 45.1976 34.0415V34.8388H42.9054C42.9234 35.4911 43.0137 36.0348 43.1761 36.3609C43.3385 36.7233 43.5912 36.9045 43.8981 36.9045C44.0966 36.9045 44.2951 36.8683 44.4575 36.7958C44.638 36.7233 44.8185 36.5784 45.0171 36.3972V37.5932C44.8366 37.7743 44.6561 37.883 44.4756 37.9556C44.3132 38.028 44.0966 38.0643 43.8619 38.0643ZM43.7356 32.0482C43.5009 32.0482 43.3205 32.1932 43.1761 32.4831C43.0317 32.7731 42.9595 33.2079 42.9234 33.7879H44.4756C44.4756 33.2079 44.4034 32.7731 44.277 32.4831C44.1508 32.1932 43.9703 32.0482 43.7356 32.0482ZM49.3849 32.157H48.5546V37.9556H47.8147V32.157H47.2551V31.4684L47.8147 31.0336V30.5986C47.8147 29.8013 47.9049 29.1852 48.1034 28.7867C48.302 28.388 48.5908 28.2067 48.9698 28.2067C49.2225 28.2067 49.4752 28.2793 49.7279 28.4604L49.5293 29.5839C49.3488 29.4752 49.1864 29.4026 49.0059 29.4026C48.8435 29.4026 48.7171 29.5114 48.6449 29.6926C48.5727 29.91 48.5366 30.2 48.5366 30.5986V31.0336H49.3669V32.157H49.3849ZM52.3991 37.9556L52.2908 37.0495H52.2547C52.1464 37.3757 52.002 37.6293 51.8215 37.8106C51.641 37.9917 51.4244 38.1004 51.1898 38.1004C50.7747 38.1004 50.4678 37.883 50.2513 37.4845C50.0347 37.0858 49.9444 36.4334 49.9444 35.5998V31.0697H50.6844V35.31C50.6844 35.8535 50.7386 36.2159 50.8469 36.5059C50.9552 36.7596 51.1176 36.9045 51.3522 36.9045C51.6591 36.9045 51.8757 36.7233 52.02 36.3609C52.1645 35.9985 52.2367 35.3824 52.2367 34.5127V31.0697H52.9766V37.9556H52.3991ZM55.2869 36.8683C55.4674 36.8683 55.6479 36.7958 55.8284 36.6871V37.7743C55.7561 37.8469 55.6479 37.9193 55.5215 37.9556C55.3952 37.9917 55.2689 38.028 55.1245 38.028C54.4386 38.028 54.0957 37.3032 54.0957 35.8535V32.157H53.6264V31.5047L54.1318 30.961L54.3844 29.5114H54.8357V31.0336H55.8103V32.157H54.8357V35.8535C54.8357 36.2159 54.8718 36.4696 54.962 36.6509C55.0162 36.7958 55.1425 36.8683 55.2869 36.8683ZM58.9147 37.9556L58.8064 37.0495H58.7704C58.6621 37.3757 58.5177 37.6293 58.3372 37.8106C58.1567 37.9917 57.9401 38.1004 57.7055 38.1004C57.2904 38.1004 56.9835 37.883 56.7669 37.4845C56.5684 37.0858 56.4601 36.4334 56.4601 35.5998V31.0697H57.2001V35.31C57.2001 35.8535 57.2542 36.2159 57.3625 36.5059C57.4708 36.7596 57.6333 36.9045 57.8679 36.9045C58.1747 36.9045 58.3913 36.7233 58.5357 36.3609C58.6801 35.9985 58.7523 35.3824 58.7523 34.5127V31.0697H59.4923V37.9556H58.9147ZM62.2718 30.9249C62.4162 30.9249 62.5425 30.961 62.6328 30.9973L62.5606 32.3744C62.4523 32.3382 62.344 32.302 62.2357 32.302C61.9469 32.302 61.7123 32.4832 61.5318 32.8818C61.3513 33.2805 61.2611 33.7516 61.2611 34.3677V37.9556H60.5391V31.0697H61.1167L61.207 32.2657H61.243C61.3513 31.8671 61.5138 31.5408 61.6943 31.2873C61.8567 31.0697 62.0553 30.9249 62.2718 30.9249ZM64.6365 38.0643C64.0947 38.0643 63.6796 37.7382 63.3909 37.122C63.084 36.5059 62.9397 35.6361 62.9397 34.5489C62.9397 33.4255 63.084 32.5557 63.3548 31.9033C63.6255 31.251 64.0225 30.9249 64.5097 30.9249C64.9611 30.9249 65.3219 31.2147 65.5748 31.7584C65.8455 32.302 65.9717 33.0631 65.9717 34.0415V34.8388H63.6796C63.6977 35.4911 63.7879 36.0348 63.9504 36.3609C64.1129 36.7233 64.3652 36.9045 64.672 36.9045C64.8711 36.9045 65.0695 36.8683 65.2318 36.7958C65.4125 36.7233 65.5926 36.5784 65.7916 36.3972V37.5932C65.611 37.7743 65.4303 37.883 65.2496 37.9556C65.0695 38.028 64.8711 38.0643 64.6365 38.0643ZM64.5097 32.0482C64.2752 32.0482 64.0947 32.1932 63.9504 32.4831C63.806 32.7731 63.7338 33.2079 63.6977 33.7879H65.2496C65.2496 33.2079 65.1779 32.7731 65.0512 32.4831C64.9072 32.1932 64.7266 32.0482 64.5097 32.0482ZM71.4771 34.4764C71.4771 35.5998 71.3325 36.4696 71.0434 37.122C70.755 37.7382 70.3575 38.0643 69.8522 38.0643C69.5276 38.0643 69.2569 37.9193 69.004 37.6293C68.7516 37.3395 68.571 36.9045 68.4448 36.3609C68.318 35.8174 68.2457 35.2013 68.2457 34.4764C68.2457 33.3529 68.3903 32.4832 68.6794 31.8671C68.9678 31.251 69.3653 30.9249 69.8883 30.9249C70.3759 30.9249 70.7727 31.251 71.0618 31.9033C71.3503 32.5557 71.4771 33.3892 71.4771 34.4764ZM68.9862 34.4764C68.9862 36.0709 69.2747 36.8683 69.8706 36.8683C70.4481 36.8683 70.7366 36.0709 70.7366 34.4764C70.7366 32.9181 70.4481 32.1208 69.8706 32.1208C69.5638 32.1208 69.3469 32.3382 69.2024 32.7368C69.0585 33.1355 68.9862 33.7153 68.9862 34.4764ZM74.0396 32.157H73.2097V37.9556H72.4692V32.157H71.9101V31.4684L72.4692 31.0336V30.5986C72.4692 29.8013 72.5599 29.1852 72.7583 28.7867C72.9568 28.388 73.2458 28.2067 73.6243 28.2067C73.8773 28.2067 74.1302 28.2793 74.3826 28.4604L74.1841 29.5839C74.0034 29.4752 73.8411 29.4026 73.6605 29.4026C73.4982 29.4026 73.372 29.5114 73.2997 29.6926C73.2275 29.8738 73.1913 30.2 73.1913 30.5986V31.0336H74.0218V32.157H74.0396ZM78.4254 37.9556V33.7153C78.4254 33.1718 78.3715 32.8094 78.2815 32.5194C78.1908 32.2657 78.0285 32.1208 77.8117 32.1208C77.5232 32.1208 77.3248 32.302 77.198 32.6644C77.0718 33.0268 76.9996 33.6429 76.9996 34.5127V37.9556H76.2775V31.0697H76.855L76.9634 31.9758H76.9996C77.0902 31.6496 77.2342 31.396 77.4148 31.2147C77.5955 31.0336 77.7939 30.961 78.0108 30.961C78.5338 30.961 78.8951 31.3234 79.0574 32.0482H79.1113C79.2197 31.7221 79.3643 31.4321 79.5443 31.251C79.725 31.0697 79.9418 30.961 80.1764 30.961C80.5916 30.961 80.8801 31.1784 81.0785 31.5771C81.2592 31.9758 81.3676 32.6281 81.3676 33.4616V37.9556H80.6455V33.7153C80.6455 33.1718 80.5917 32.8094 80.501 32.5194C80.3932 32.2657 80.2487 32.1208 80.0319 32.1208C79.7434 32.1208 79.5443 32.302 79.4182 32.6644C79.292 33.0268 79.2197 33.5703 79.2197 34.2952V37.9556H78.4254ZM85.3743 34.4764C85.3743 35.5998 85.2298 36.4696 84.9413 37.122C84.6522 37.7382 84.2554 38.0643 83.7501 38.0643C83.4249 38.0643 83.1542 37.9193 82.9018 37.6293C82.6489 37.3395 82.4688 36.9045 82.342 36.3609C82.2159 35.8174 82.1436 35.2013 82.1436 34.4764C82.1436 33.3529 82.2882 32.4832 82.5766 31.8671C82.8657 31.251 83.2626 30.9249 83.7862 30.9249C84.2731 30.9249 84.6706 31.251 84.9591 31.9033C85.2298 32.5557 85.3743 33.3892 85.3743 34.4764ZM82.8835 34.4764C82.8835 36.0709 83.1725 36.8683 83.7678 36.8683C84.3454 36.8683 84.6345 36.0709 84.6345 34.4764C84.6345 32.9181 84.3454 32.1208 83.7678 32.1208C83.461 32.1208 83.2448 32.3382 83.1003 32.7368C82.9557 33.1355 82.8835 33.7153 82.8835 34.4764ZM89.2371 37.9556H88.4966V33.7153C88.4966 33.1718 88.4427 32.7731 88.3343 32.5194C88.2259 32.2657 88.0636 32.1208 87.8291 32.1208C87.5222 32.1208 87.2876 32.302 87.1615 32.6644C87.0347 33.0268 86.9447 33.6429 86.9447 34.5127V37.9556H86.2226V31.0697H86.8001L86.9085 31.9758H86.9447C87.0531 31.6496 87.1976 31.396 87.3777 31.2147C87.5583 31.0336 87.7752 30.961 88.0097 30.961C88.8396 30.961 89.2371 31.7945 89.2371 33.4979V37.9556ZM91.7457 38.0643C91.2043 38.0643 90.7891 37.7382 90.5006 37.122C90.1938 36.5059 90.0492 35.6361 90.0492 34.5489C90.0492 33.4255 90.1938 32.5557 90.4645 31.9033C90.7352 31.251 91.132 30.9249 91.6196 30.9249C92.0703 30.9249 92.4317 31.2147 92.684 31.7584C92.9547 32.302 93.0815 33.0631 93.0815 34.0415V34.8388H90.7891C90.8068 35.4911 90.8975 36.0348 91.0598 36.3609C91.2221 36.7233 91.475 36.9045 91.7819 36.9045C91.9803 36.9045 92.1787 36.8683 92.341 36.7958C92.5039 36.7233 92.7024 36.5784 92.9008 36.3972V37.5932C92.7201 37.7743 92.5401 37.883 92.3594 37.9556C92.1787 38.028 91.9803 38.0643 91.7457 38.0643ZM91.6012 32.0482C91.3666 32.0482 91.1859 32.1932 91.042 32.4831C90.8975 32.7731 90.8252 33.2079 90.7891 33.7879H92.341C92.341 33.2079 92.2694 32.7731 92.1426 32.4831C92.0164 32.1932 91.8357 32.0482 91.6012 32.0482ZM93.2615 31.0697H94.0559L94.7596 34.9838C94.868 35.5274 94.9403 36.0709 94.9764 36.5422H94.9942C95.0126 36.3246 95.0487 36.0348 95.1026 35.7085C95.1571 35.3824 95.4094 33.824 95.8969 31.0697H96.6913L95.2294 38.8615C94.9587 40.2749 94.525 40.9997 93.8936 40.9997C93.7313 40.9997 93.5684 40.9636 93.4245 40.891V39.7314C93.5322 39.7675 93.659 39.8038 93.8029 39.8038C94.1459 39.8038 94.3989 39.4052 94.5434 38.5717L94.6696 37.9193L93.2615 31.0697Z"
      fill="#717375"
    />
</g>
</svg>
