<svg
  width="131"
  height="31"
  viewBox="0 0 131 31"
  fill="none"
  xmlns="http://www.w3.org/2000/svg"
>
<path
    d="M26.5352 9.24906C21.819 9.24906 18.1291 13.8731 18.1291 20.0761C18.1291 26.2791 21.7317 30.875 26.5352 30.875C31.3605 30.875 35.0068 26.1945 35.0068 20.0479C35.0287 13.9013 31.426 9.24906 26.5352 9.24906ZM26.5789 26.3919C23.8933 26.3919 21.9282 23.6851 21.9282 20.0761C21.9282 16.4107 23.8715 13.7321 26.557 13.7321C29.2863 13.7321 31.2514 16.4671 31.2514 20.0761C31.2295 23.6851 29.2645 26.3919 26.5789 26.3919ZM36.0549 13.9577H38.3911V30.4521H42.1466V9.6438H36.0549V13.9577ZM8.69678 13.7039C10.6618 13.7039 12.2339 15.2829 12.8234 17.5949H16.7972C16.0767 12.6043 12.8889 9.22086 8.74045 9.22086C4.00246 9.24906 0.3125 13.8731 0.3125 20.0761C0.3125 26.2791 3.91512 30.875 8.71861 30.875C12.7797 30.875 16.033 27.4915 16.7535 22.4727H12.8234C12.2557 24.813 10.7055 26.4201 8.71861 26.4201C5.98936 26.4201 4.08979 23.7133 4.08979 20.1043C4.08979 16.4107 5.96752 13.7039 8.69678 13.7039ZM107.343 18.0461L104.592 17.5103C103.282 17.2566 102.343 16.6927 102.343 15.3675C102.343 13.9295 103.566 13.1964 105.225 13.1964C107.037 13.1964 108.195 14.2115 108.457 15.8468H112.081C111.666 11.6739 109.177 9.22086 105.334 9.22086C101.361 9.22086 98.7404 11.843 98.7404 15.5367C98.7404 19.0893 100.465 21.1194 103.937 21.7679L106.688 22.3036C108.042 22.5573 108.784 23.234 108.784 24.531C108.784 26.1945 107.474 26.8712 105.662 26.8712C103.435 26.8712 102.19 25.7152 101.994 23.9389H98.3038C98.6531 27.9991 101.12 30.8468 105.618 30.8468C109.723 30.8468 112.43 28.422 112.43 24.2773C112.409 20.5836 110.422 18.6664 107.343 18.0461ZM40.2688 1.07237C38.8933 1.07237 37.8671 2.36936 37.8671 4.11748C37.8671 5.8938 38.8933 7.1626 40.2688 7.1626C41.6444 7.1626 42.6706 5.8656 42.6706 4.11748C42.6706 2.36936 41.6444 1.07237 40.2688 1.07237ZM95.3343 16.7773C95.3343 12.266 93.2164 9.24906 88.6968 9.24906C84.4391 9.24906 82.0592 12.0404 81.6007 16.2979H85.3125C85.509 14.6344 86.4915 13.281 88.6313 13.281C90.5308 13.281 91.4697 14.3806 91.4697 15.7058C91.4697 17.4258 89.7448 17.8769 87.6269 18.1588C84.7448 18.5536 81.1859 19.8506 81.1859 24.672C81.1859 28.422 83.3474 30.8186 86.7754 30.8186C89.461 30.8186 91.1422 29.3806 91.9937 27.0686C92.1247 29.1269 93.3038 30.4521 94.9632 30.4521H97.1466V26.1382H95.2907L95.3343 16.7773ZM91.6444 21.9934C91.6444 24.7848 89.7666 26.8148 87.4959 26.8148C86.0985 26.8148 84.8977 26.0536 84.8977 24.4464C84.8977 22.3882 86.7972 21.8242 88.5658 21.5987C90.247 21.4013 91.1859 20.922 91.6662 19.9915C91.6444 19.9915 91.6444 21.9934 91.6444 21.9934ZM71.7317 9.24906C69.6356 9.24906 67.8889 10.3769 66.6444 12.266V0.875H62.8889V30.4521H66.5789V27.7171C67.8234 29.6908 69.6138 30.8468 71.7317 30.8468C76.2295 30.8468 79.6356 26.2509 79.6356 20.0479C79.6356 13.8449 76.164 9.24906 71.7317 9.24906ZM71.164 26.3919C68.4784 26.3919 66.5134 23.6851 66.5134 20.0761C66.5134 16.4671 68.5221 13.7321 71.2077 13.7321C73.937 13.7321 75.8365 16.4389 75.8365 20.0761C75.8147 23.6851 73.8496 26.3919 71.164 26.3919ZM53.8933 9.24906C51.4479 9.24906 49.854 10.5461 48.9151 12.3506V9.6438H45.2033V30.4521H48.9588V19.1457C48.9588 15.9596 50.5308 13.7039 52.8452 13.7039C55.0068 13.7039 56.3387 15.6776 56.3387 18.5254V30.4521H60.0942V18.187C60.0942 12.9427 57.9981 9.24906 53.8933 9.24906ZM130.291 19.3712C130.291 13.422 126.906 9.22086 122.387 9.22086C117.561 9.22086 114.046 13.9013 114.046 20.0479C114.046 26.5329 117.823 30.8468 122.452 30.8468C126.361 30.8468 129.417 27.8581 130.203 23.657H126.295C125.727 25.5179 124.352 26.5611 122.518 26.5611C120.116 26.5611 118.304 24.6156 117.889 21.2603H130.312L130.291 19.3712ZM118.085 17.7641C118.675 14.86 120.378 13.4502 122.299 13.4502C124.417 13.4502 126.055 15.0291 126.426 17.7641H118.085Z"
    fill="#717375"
  />
</svg>
