<svg
  width="109"
  height="36"
  viewBox="0 0 109 36"
  fill="none"
  xmlns="http://www.w3.org/2000/svg"
>
<g id="Vector" style="mix-blend-mode:luminosity">
<path
      d="M66.6775 10.3175C64.9352 10.3175 63.5666 10.8107 62.1973 11.7951C62.1973 6.54014 62.1973 1.77835 62.3224 0.136719L53.9823 2.10649V3.09186L54.8535 3.25592C55.9726 3.58406 56.3478 4.40441 56.5943 6.37608C56.8452 10.3175 56.7194 31.3383 56.5943 34.7875C58.8348 35.4447 61.2004 35.9379 63.5658 35.9379C70.163 35.9379 74.1458 30.518 74.1458 21.9778C74.1458 15.2453 70.9097 10.3175 66.6775 10.3175ZM63.8146 34.1303C63.3164 34.1303 62.6933 34.1303 62.3209 33.9672C62.1959 31.6683 62.0723 21.9778 62.1959 13.4387C62.9427 13.1095 63.4401 12.9454 64.0633 12.9454C66.8033 12.9454 68.297 17.215 68.297 22.469C68.2962 29.0403 66.4288 34.1303 63.8146 34.1303ZM22.6143 0.792994H0.707031V2.27056L1.95198 2.43463C3.56925 2.76277 4.19244 4.07627 4.44042 7.19641C4.81491 13.1086 4.68984 23.7844 4.44042 28.8734C4.19173 31.9945 3.56997 33.473 1.95198 33.6352L0.707031 33.9653V35.2787H14.7723V33.9653L13.2786 33.6352C11.6606 33.4721 11.0382 31.9945 10.7895 28.8734C10.6644 26.7377 10.5401 23.2884 10.5401 19.0198L13.5274 19.1838C15.3948 19.1838 16.2652 21.1546 16.639 23.9457H17.7596V12.2892H16.639C16.2645 15.0812 15.3948 17.051 13.5274 17.051L10.5408 17.216C10.5408 11.632 10.6651 6.37702 10.7902 3.25687H15.1461C18.5078 3.25687 20.2502 6.04794 21.4944 10.9757L22.7394 10.4825L22.6143 0.792994Z"
      fill="#717375"
    />
<path
      d="M29.7094 9.98943C35.9334 9.98943 39.0451 15.5735 39.0451 22.9632C39.0451 30.0248 35.5597 35.9389 29.3356 35.9389C23.1124 35.9389 20.0007 30.3539 20.0007 22.9632C20.0007 15.9017 23.4854 9.98943 29.7094 9.98943ZM29.3356 11.6321C26.5971 11.6321 25.8502 16.5588 25.8502 22.9632C25.8502 29.2035 27.0952 34.2944 29.5851 34.2944C32.4458 34.2944 33.1941 29.3676 33.1941 22.9632C33.1941 16.7229 31.9506 11.6321 29.3356 11.6321ZM75.7633 23.1282C75.7633 16.3948 78.999 9.98943 85.3471 9.98943C90.5737 9.98943 93.0641 15.0813 93.0641 21.8138H81.4879C81.3632 27.89 83.6035 32.3246 88.0855 32.3246C90.0771 32.3246 91.0725 31.6693 92.3181 30.5189L92.8147 31.3393C91.5698 33.6381 88.8322 35.9389 85.3471 35.9389C79.7457 35.9379 75.7633 30.683 75.7633 23.1282ZM81.4879 20.008L87.3387 19.843C87.3387 16.5588 86.9646 11.6321 84.849 11.6321C82.7335 11.6321 81.6119 16.2298 81.4879 20.008ZM107.878 11.3039C106.385 10.4817 104.394 9.98943 102.154 9.98943C97.549 9.98943 94.6845 13.6018 94.6845 17.8724C94.6845 22.1428 96.7986 23.9486 99.7893 25.263C102.9 26.7397 103.772 27.89 103.772 29.8608C103.772 31.8314 102.652 33.6372 100.66 33.6372C98.2958 33.6372 96.5521 31.8314 95.1833 26.9037L94.3111 27.2337L94.4365 34.4594C95.9301 35.2798 98.6677 35.9379 101.033 35.9379C105.888 35.9379 109 32.6518 109 27.5618C109 24.1126 107.63 22.1428 104.395 20.4993C100.909 18.6936 99.6646 17.5442 99.6646 15.4084C99.6646 13.2736 100.787 11.7952 102.28 11.7952C104.52 11.7952 106.013 13.6018 107.135 18.0364L108.006 17.7082L107.878 11.3039ZM55.2257 10.6467C53.1103 9.00598 49.3755 9.82538 47.3844 15.7385L47.5081 9.99039L39.1694 12.1252V13.1106L40.0406 13.2746C41.1619 13.4396 41.6586 14.26 41.7836 16.3957C42.0324 20.3372 41.908 27.2357 41.7836 30.6839C41.6586 32.6527 41.1619 33.6381 40.0406 33.8031L39.1694 33.9681V35.2816H50.7448V33.9681L49.2512 33.8031C48.0069 33.6381 47.6332 32.6527 47.5081 30.6839C47.2594 27.5628 47.2594 21.3226 47.3844 17.3811C48.0062 16.2307 50.7448 15.2463 53.234 17.3811L55.2257 10.6467Z"
      fill="#717375"
    />
</g>
</svg>
