<svg
  width="131"
  height="31"
  viewBox="0 0 131 31"
  fill="none"
  xmlns="http://www.w3.org/2000/svg"
>
<g clip-path="url(#clip0_4320_6344)">
<path
      fill-rule="evenodd"
      clip-rule="evenodd"
      d="M107.937 9.79806H111.629V6.08078H107.937V9.79806ZM88.3118 15.9918C89.019 14.107 90.8234 12.7666 92.9398 12.7666C95.0562 12.7666 96.8658 14.107 97.5678 15.9918H88.3118ZM92.9398 9.30591C88.3118 9.30591 84.5574 13.086 84.5574 17.7457C84.5574 22.4054 88.3118 26.1855 92.9398 26.1855C96.117 26.1855 98.8782 24.4054 100.298 21.7876L97.2038 20.2745C96.3406 21.7457 94.7546 22.73 92.9398 22.73C90.6466 22.73 88.7174 21.1593 88.1558 19.0232H97.7238V19.0284H101.229C101.291 18.6096 101.322 18.1803 101.322 17.7457C101.322 13.086 97.573 9.30591 92.9398 9.30591ZM102.3 25.7352H105.992V22.018H102.3V25.7352ZM107.937 25.7352H111.629V11.4316H107.937V25.7352ZM121.93 22.73C119.195 22.73 116.979 20.4996 116.979 17.7457C116.979 14.9918 119.195 12.7614 121.93 12.7614C124.665 12.7614 126.88 14.9918 126.88 17.7457C126.88 20.4996 124.665 22.73 121.93 22.73ZM121.93 9.30591C117.302 9.30591 113.547 13.086 113.547 17.7457C113.547 22.4054 117.302 26.1855 121.93 26.1855C126.558 26.1855 130.312 22.4054 130.312 17.7457C130.312 13.086 126.558 9.30591 121.93 9.30591ZM44.741 14.6358V18.4787H49.9046C49.6342 19.5782 49.1038 20.5625 48.3394 21.3478C47.185 22.5363 45.5886 23.1855 43.8414 23.1855C40.2118 23.1855 37.2582 20.2117 37.2582 16.552C37.2582 12.8975 40.2118 9.91848 43.8414 9.91848C45.7862 9.91848 47.575 10.7562 48.8126 12.2012L51.7662 9.76665C49.8058 7.45251 46.899 6.07031 43.8414 6.07031C38.1058 6.07031 33.4414 10.7719 33.4414 16.5467C33.4414 22.3216 38.1058 27.0232 43.8414 27.0232C46.6286 27.0232 49.1922 26.0127 51.0694 24.0808C52.645 22.4577 53.6902 20.196 53.8878 17.9342C53.9866 16.8295 53.997 15.73 53.9346 14.6253L44.741 14.6358ZM63.5442 22.73C60.8142 22.73 58.5938 20.4996 58.5938 17.7457C58.5938 14.9918 60.809 12.7614 63.5442 12.7614C66.2794 12.7614 68.4946 14.9918 68.4946 17.7457C68.4946 20.4996 66.2794 22.73 63.5442 22.73ZM68.4946 10.9499C67.1062 9.92371 65.3954 9.32162 63.5442 9.32162C58.9162 9.32162 55.167 13.1017 55.167 17.7614C55.167 22.4211 58.9214 26.2012 63.5442 26.2012C65.3954 26.2012 67.1062 25.5939 68.4946 24.5729V25.7405H71.9266V9.78235H68.4946V10.9499ZM79.2898 6.08078H75.8578V9.79806H73.8038V13.0598H75.8578V21.5939C75.8578 22.4734 75.967 23.2169 76.1854 23.7981C76.3986 24.374 76.7314 24.8242 77.1214 25.175C77.5166 25.531 77.9794 25.8085 78.5306 25.9708C79.0922 26.1279 79.7058 26.1907 80.361 26.1907C81.037 26.1907 81.6402 26.1227 82.1498 25.9813C82.6282 25.8504 83.0858 25.6672 83.507 25.4368V22.8085C82.831 23.1017 82.1966 23.2117 81.4738 23.2431C80.7094 23.2797 80.2622 23.0598 79.8878 22.6986C79.4926 22.3216 79.2846 21.8295 79.2846 21.0075V13.0598H83.507V9.79806H79.2846V6.08078H79.2898Z"
      fill="#717375"
    />
<path
      fill-rule="evenodd"
      clip-rule="evenodd"
      d="M15.1949 24.1171C10.6761 24.1171 7.0101 20.426 7.0101 15.8762C7.0101 11.3265 10.6761 7.63541 15.1949 7.63541V0.886719C6.9737 0.886719 0.3125 7.59876 0.3125 15.8762C0.3125 24.1537 6.9737 30.8605 15.1949 30.8605C23.4109 30.8605 30.0773 24.1485 30.0773 15.8762H23.3797C23.3797 20.4312 19.7137 24.1171 15.1949 24.1171Z"
      fill="#717375"
    />
<path
      fill-rule="evenodd"
      clip-rule="evenodd"
      d="M15.1953 15.8776H23.3801V7.63672H15.1953V15.8776Z"
      fill="#717375"
    />
</g>
<defs>
<clipPath id="clip0_4320_6344">
<rect
        width="130"
        height="30"
        fill="white"
        transform="translate(0.3125 0.875)"
      />
</clipPath>
</defs>
</svg>
