<svg
  width="152"
  height="40"
  viewBox="0 -8 152 40"
  fill="none"
  xmlns="http://www.w3.org/2000/svg"
>
<path
    d="M14.8802 0.83946C17.4931 0.688314 20.1563 1.14175 22.4929 2.15658C25.96 3.62486 28.7237 6.25912 30.0051 9.3684C30.5829 10.7503 30.8844 12.197 30.8844 13.6653V19.0849C30.8844 19.3008 30.8844 19.5384 30.8342 19.7543C30.6834 20.2941 30.2312 20.7907 29.6282 21.0282C29.2011 21.201 28.7237 21.2225 28.2966 21.1578C27.3419 21.0066 26.5882 20.2293 26.5882 19.3872C26.5882 17.703 26.5882 16.0188 26.5882 14.3346C26.6133 13.8596 26.6133 13.3414 26.3118 12.9311C25.8344 12.1538 24.6285 11.7867 23.6989 12.1106C22.8949 12.3481 22.317 13.0607 22.2919 13.7948C22.2919 15.5006 22.2919 17.2064 22.2919 18.9122C22.2919 19.2361 22.317 19.5599 22.1914 19.8622C21.9904 20.4668 21.4125 20.9419 20.7091 21.1146C19.7794 21.3305 18.7242 20.985 18.272 20.2509C17.9454 19.8191 17.9705 19.2792 17.9956 18.7826C17.9956 17.0768 17.9956 15.3926 17.9956 13.6869C17.9705 12.8232 17.1414 12.0458 16.1615 11.9379C15.5083 11.8515 14.8299 12.0458 14.3526 12.4345C13.9255 12.78 13.6994 13.2766 13.6994 13.7732V18.7178C13.6994 19.1281 13.7496 19.56 13.5737 19.9486C13.2974 20.6612 12.4683 21.1794 11.5889 21.1578C10.6844 21.201 9.80507 20.6612 9.5287 19.9486C9.37796 19.5815 9.40308 19.2145 9.40308 18.8258C9.40308 17.12 9.40308 15.4142 9.40308 13.7084C9.40308 12.8663 8.62423 12.089 7.6695 11.9379C6.79015 11.7867 5.83542 12.1538 5.38318 12.8448C5.20731 13.1255 5.10681 13.4493 5.10681 13.7732V19.3224C5.10681 19.8622 4.83045 20.402 4.35308 20.7475C3.62448 21.2873 2.44363 21.3305 1.6899 20.8339C1.13716 20.51 0.810547 19.9486 0.810547 19.3656V13.7516C0.810547 11.6356 1.43866 9.51955 2.6195 7.64102C3.57423 6.10797 4.90582 4.74765 6.48866 3.66804C8.82522 1.98384 11.815 0.990606 14.8802 0.83946Z"
    fill="#717375"
  />
<path
    d="M73.5962 7.33842H70.33C70.4556 5.37352 70.933 3.60296 73.0183 2.48016C75.1036 1.37896 77.39 1.11985 79.7768 1.29259C81.0581 1.37896 82.3395 1.61647 83.5203 2.0915C85.6056 2.91201 86.6357 4.3155 86.6357 6.2804C86.6357 9.75675 86.6357 13.2331 86.6357 16.7095C86.6357 17.9834 86.9372 18.2209 88.4196 18.0914C88.5703 18.0698 88.7462 18.0482 88.8969 18.0266C88.9221 18.0914 88.9221 18.1561 88.9221 18.1993V20.3154C87.7412 20.6608 86.5352 20.7688 85.3544 20.4881C84.475 20.2722 83.9223 19.7324 83.6208 19.0198C83.4701 18.6528 83.3696 18.2641 83.2439 17.8539C83.1183 17.9834 83.0178 18.0914 82.8922 18.1993C80.3044 20.4449 77.2392 21.395 73.6213 20.5961C71.0586 20.0347 69.2999 18.0266 69.2245 15.7378C69.1994 15.0037 69.2748 14.2695 69.4758 13.557C69.9531 11.916 71.3099 10.9227 73.0183 10.2534C74.2243 9.77834 75.5308 9.64879 76.8372 9.49764C78.3698 9.32491 79.8773 9.17376 81.4099 8.97943C82.44 8.84988 82.9676 8.37485 83.1183 7.48957C83.4449 5.69741 82.5153 4.50984 80.5054 4.07799C79.2994 3.81889 78.0683 3.7757 76.8372 3.97003C75.0283 4.25073 74.0233 5.13601 73.6716 6.66906C73.6967 6.88499 73.6464 7.1009 73.5962 7.33842ZM83.2188 10.7932C81.7114 11.4841 80.2541 11.6569 78.7718 11.8512C77.5407 12.0239 76.2845 12.1751 75.0785 12.499C73.4957 12.9524 72.7671 14.0752 72.9178 15.5867C73.0434 16.839 74.0233 17.8539 75.6061 18.0698C78.0432 18.4153 80.2039 17.8323 81.9123 16.2776C82.4148 15.8242 82.8168 15.1764 82.9173 14.5718C83.1434 13.3627 83.1183 12.1319 83.2188 10.7932ZM129.774 14.4207C129.699 14.723 129.649 14.9821 129.573 15.2196C128.166 18.9119 125.302 20.4881 121.835 20.8336C115.83 21.395 112.388 18.0266 111.509 14.4423C110.805 11.5921 110.906 8.76351 112.363 6.08607C113.745 3.55978 115.956 1.89717 119.247 1.40055C123.192 0.795964 128.769 2.48016 129.699 7.77026C129.95 9.13058 130 10.5341 130.151 11.9592H114.876C115.001 13.9025 115.353 15.7162 117.011 17.1197C117.689 17.7027 118.569 17.9834 119.524 18.1345C122.614 18.6096 125.177 17.3356 126.181 14.7662C126.282 14.4855 126.433 14.3991 126.759 14.4207C127.739 14.4207 128.719 14.4207 129.774 14.4207ZM115.001 9.45446H126.433C126.307 8.31007 126.081 7.25205 125.453 6.25881C124.85 5.30875 123.971 4.6178 122.765 4.27232C118.82 3.10634 114.75 5.80537 115.001 9.45446ZM137.99 20.2074H134.523V1.68125H137.814V4.27232C138.065 4.03481 138.216 3.88366 138.367 3.73252C140.729 1.42214 143.693 0.817558 147.06 1.5301C149.396 2.02672 150.703 3.45181 151.155 5.4383C151.331 6.25881 151.457 7.10091 151.457 7.92141C151.482 11.8944 151.482 15.8674 151.482 19.8403C151.482 19.9483 151.457 20.0563 151.457 20.1858H147.914V19.6892C147.914 15.9753 147.939 12.2615 147.889 8.54759C147.889 7.72708 147.738 6.88498 147.462 6.08607C147.01 4.79053 145.804 4.09958 144.221 4.03481C141.331 3.94844 139.045 5.26556 138.342 7.46797C138.09 8.26689 138.015 9.10899 138.015 9.95108C137.99 13.2115 137.99 16.4504 137.99 19.6676V20.2074ZM92.2887 1.68125H95.6303V9.54083C95.8313 9.36809 95.9569 9.28172 96.0825 9.17376C98.8211 6.77702 101.56 4.35869 104.298 1.96195C104.524 1.74603 104.75 1.65966 105.102 1.65966C106.383 1.68125 107.69 1.65966 109.097 1.65966C108.896 1.8324 108.795 1.94035 108.67 2.04832C106.258 4.12117 103.871 6.21563 101.434 8.26689C101.158 8.5044 101.158 8.65555 101.333 8.91466C103.972 12.5206 106.584 16.1265 109.197 19.7324C109.298 19.8619 109.373 19.9915 109.499 20.1858C109.323 20.2074 109.197 20.2074 109.047 20.2074C107.841 20.2074 106.66 20.2074 105.454 20.2074C105.127 20.2074 104.977 20.0994 104.801 19.8835C102.791 16.9902 100.781 14.0968 98.7708 11.1818C98.6703 11.0523 98.5949 10.9227 98.4693 10.7716C97.5397 11.5705 96.6352 12.3262 95.7308 13.1251C95.6051 13.2331 95.58 13.4274 95.58 13.5786C95.58 15.6083 95.58 17.6379 95.58 19.6676V20.1858C94.9268 20.1858 94.2735 20.1858 93.6454 20.1858C93.1932 20.1858 92.5651 20.2938 92.3138 20.0779C92.0877 19.9051 92.2133 19.3437 92.2133 18.9551V2.17787C92.2887 2.06991 92.2887 1.89717 92.2887 1.68125ZM53.7228 1.65966C51.0094 3.97003 48.3713 6.23722 45.7081 8.50441C48.5723 12.4342 51.3611 16.2776 54.2002 20.2074C53.974 20.2074 53.8233 20.229 53.6726 20.229C52.5168 20.229 51.336 20.229 50.1803 20.229C49.8536 20.229 49.6527 20.121 49.4768 19.8835C47.4668 16.9902 45.4569 14.0968 43.4469 11.1818C43.3716 11.0523 43.2711 10.9443 43.1454 10.7716C42.643 11.225 42.1907 11.7217 41.638 12.0671C40.5074 12.8013 40.1808 13.7081 40.2561 14.9173C40.3818 16.4935 40.2813 18.0914 40.2813 19.6676V20.1858H36.9648V1.68125H40.2813V9.41128C40.3566 9.45446 40.432 9.49765 40.4823 9.54083C40.5828 9.41128 40.633 9.26014 40.7335 9.15217C43.4469 6.75543 46.1855 4.38028 48.8989 1.96195C49.1502 1.74603 49.3763 1.63807 49.7532 1.65966C50.8837 1.68125 52.0143 1.65966 53.1449 1.65966C53.3208 1.65966 53.4716 1.65966 53.7228 1.65966ZM60.3556 4.74735C62.039 2.63131 63.8228 0.860747 67.1392 1.37896V4.55302C66.2599 4.5962 65.3805 4.57462 64.5514 4.72576C62.5163 5.09283 60.9335 6.69065 60.6069 8.63395C60.5566 9.02262 60.5064 9.41128 60.5064 9.79994C60.5064 13.1036 60.5064 16.4072 60.5064 19.7108V20.229H57.0895V1.72443H60.3556C60.3556 2.69608 60.3556 3.66773 60.3556 4.74735Z"
    fill="#717375"
  />
</svg>
