<svg
  width="164"
  height="33"
  viewBox="0 0 164 33"
  fill="none"
  xmlns="http://www.w3.org/2000/svg"
>
<g clipPath="url(#clip0_150_261)">
<path
      d="M129.069 16.6846C129.069 15.863 129.069 15.0861 129.037 14.3707C129.017 13.6944 128.938 13.0238 128.801 12.3586C128.676 11.7494 128.453 11.1626 128.139 10.6037C127.811 10.028 127.366 9.50819 126.835 9.06106C126.075 8.40154 125.177 7.87057 124.181 7.50169C123.107 7.12722 121.953 6.94278 120.794 6.95954C119.627 6.94837 118.474 7.13281 117.393 7.50169C116.39 7.86498 115.486 8.39036 114.726 9.05547C114.195 9.5026 113.756 10.028 113.429 10.5981C113.121 11.157 112.898 11.7438 112.78 12.3531C112.649 13.0182 112.57 13.6889 112.557 14.3651C112.538 15.0806 112.524 15.8574 112.531 16.679C112.538 17.5006 112.531 18.2719 112.557 18.9929C112.577 19.6692 112.649 20.3399 112.78 21.005C112.904 21.6142 113.121 22.2011 113.429 22.76C113.756 23.3301 114.195 23.8555 114.726 24.3026C115.486 24.9621 116.397 25.4931 117.393 25.8508C118.474 26.2253 119.634 26.4097 120.794 26.3985C121.953 26.4153 123.107 26.2253 124.181 25.8508C125.177 25.4875 126.075 24.9621 126.835 24.3026C127.366 23.8555 127.811 23.3301 128.139 22.76C128.453 22.2011 128.676 21.6142 128.801 21.005C128.932 20.3399 129.01 19.6692 129.03 18.9985C129.063 18.2719 129.076 17.5006 129.069 16.6846ZM124.692 16.6846C124.692 17.5957 124.679 18.3558 124.64 18.9594C124.62 19.4568 124.561 19.9487 124.463 20.4405C124.397 20.7647 124.28 21.0833 124.116 21.3851C123.978 21.6254 123.808 21.849 123.598 22.0446C123.27 22.3632 122.864 22.6147 122.412 22.788C121.901 22.9724 121.351 23.0674 120.794 23.0674C120.237 23.0674 119.68 22.9724 119.169 22.788C118.703 22.6203 118.291 22.3688 117.95 22.0446C117.74 21.849 117.563 21.6254 117.432 21.3851C117.268 21.0833 117.164 20.7703 117.105 20.4405C117.013 19.9487 116.954 19.4568 116.928 18.9594C116.895 18.3558 116.882 17.5957 116.882 16.6846C116.882 15.7736 116.895 15.0135 116.928 14.4043C116.954 13.9068 117.006 13.415 117.105 12.9231C117.164 12.599 117.275 12.2804 117.432 11.9786C117.563 11.7383 117.74 11.5147 117.95 11.3191C118.284 11.0005 118.703 10.7434 119.169 10.5757C119.68 10.3857 120.237 10.2907 120.794 10.2963C121.351 10.2907 121.901 10.3857 122.412 10.5757C122.864 10.7434 123.27 11.0005 123.598 11.3191C123.808 11.5147 123.985 11.7383 124.116 11.9786C124.28 12.2804 124.397 12.5934 124.463 12.9231C124.555 13.415 124.614 13.9068 124.64 14.4043C124.679 15.0079 124.692 15.768 124.692 16.6846Z"
      fill="#717375"
    />
<path
      d="M163.941 7.45134C163.941 7.27249 163.77 7.12717 163.554 7.12158H159.944C159.734 7.12158 159.564 7.2669 159.557 7.45134V18.8252L150.751 7.21101C150.692 7.13276 150.639 7.12158 150.508 7.12158H147.16C146.95 7.12158 146.78 7.2669 146.773 7.45134V25.9122C146.773 26.0911 146.944 26.2364 147.16 26.2364H150.77C150.98 26.2364 151.15 26.0911 151.15 25.9122V14.5048L159.963 26.1414C160.022 26.2196 160.075 26.2308 160.206 26.2308H163.554C163.764 26.2308 163.934 26.0855 163.941 25.9067V7.45134Z"
      fill="#717375"
    />
<path
      d="M139.743 7.45134C139.743 7.27249 139.573 7.12717 139.356 7.12158H135.746C135.536 7.12158 135.366 7.2669 135.359 7.45134V25.9122C135.359 26.0911 135.53 26.2364 135.746 26.242H139.356C139.566 26.242 139.736 26.0967 139.743 25.9122V7.45134Z"
      fill="#717375"
    />
<path
      d="M96.5638 16.6845C96.5638 15.7678 96.5769 15.0021 96.6097 14.3929C96.6294 13.8955 96.6883 13.4036 96.7866 12.9118C97.1208 11.2686 98.5951 10.2961 100.482 10.2961C101.714 10.3073 102.828 10.6929 103.536 11.576C103.857 11.9896 104.093 12.4479 104.23 12.9286C104.243 12.9789 104.296 13.0124 104.355 13.0124H108.601C108.66 13.0124 108.686 12.9789 108.673 12.9286C108.208 10.6873 106.805 8.67523 104.328 7.67478C103.11 7.19411 101.78 6.95378 100.443 6.97055C98.0512 6.97055 96.0396 7.66919 94.4015 9.06647C93.4645 9.84336 92.8289 10.8438 92.5734 11.9337C92.3244 13.0068 92.1999 14.5941 92.1934 16.6845C92.1934 18.7804 92.3179 20.3621 92.5734 21.4352C92.8289 22.5307 93.4645 23.5311 94.4015 24.308C96.0396 25.7053 98.0512 26.3984 100.443 26.3984C101.786 26.4151 103.11 26.1748 104.328 25.6941C106.805 24.6993 108.208 22.6816 108.673 20.4404C108.686 20.39 108.66 20.3565 108.601 20.3565H104.355C104.296 20.3509 104.237 20.3845 104.23 20.4404C104.093 20.921 103.857 21.3793 103.536 21.7873C102.821 22.676 101.707 23.0617 100.482 23.0672C98.5951 23.0672 97.1208 22.1003 96.7866 20.4515C96.6949 19.9597 96.6359 19.4678 96.6097 18.9704C96.5769 18.3612 96.5638 17.5955 96.5638 16.6845Z"
      fill="#717375"
    />
<path
      d="M51.711 7.45134C51.711 7.27249 51.5407 7.12717 51.3244 7.12158H47.7206C47.5109 7.12158 47.3405 7.2669 47.334 7.45134V25.9122C47.334 26.0911 47.5043 26.2364 47.7206 26.2364H51.331C51.5406 26.2364 51.711 26.0911 51.7176 25.9122V20.4908L54.6137 17.5397L60.5568 26.1414C60.6027 26.2029 60.6879 26.242 60.773 26.242H65.1566C65.3597 26.242 65.3925 26.1358 65.2942 25.9905L57.5034 14.7284L64.6455 7.41781C64.7897 7.2669 64.7307 7.12717 64.5014 7.12717H59.7115C59.6526 7.12158 59.6001 7.14394 59.5608 7.18865L51.711 15.2202V7.45134Z"
      fill="#717375"
    />
<path
      d="M77.9937 23.0674C75.9624 23.0674 74.1212 21.4633 74.1212 19.5518V7.45134C74.1212 7.27249 73.9508 7.12717 73.7346 7.12158H70.1307C69.9211 7.12158 69.7507 7.2669 69.7441 7.45134V19.5071C69.7441 23.7213 73.4397 26.3985 77.9871 26.3985C82.5345 26.3985 86.2301 23.7213 86.2301 19.5071V7.45134C86.2301 7.27249 86.0597 7.12717 85.8435 7.12158H82.2331C82.0234 7.12158 81.853 7.2669 81.853 7.45134V19.5518C81.8662 21.4633 80.0184 23.0674 77.9937 23.0674Z"
      fill="#717375"
    />
<path
      fillRule="evenodd"
      clipRule="evenodd"
      d="M11.0797 16.6844L22.2778 26.2363L29.3479 20.2056C30.6125 19.2331 32.5455 19.2778 33.7446 20.3062C34.9437 21.3346 34.9961 22.9834 33.8625 24.0621L24.5384 32.0154C23.2869 33.0662 21.2753 33.0662 20.0238 32.0154L6.5651 20.5353V27.3597C6.5651 28.8632 5.13667 30.0872 3.36751 30.0872C1.60491 30.0872 0.169922 28.8687 0.169922 27.3597V5.99801C0.169922 4.49454 1.59835 3.27052 3.36751 3.27052C5.13667 3.27052 6.5651 4.48895 6.5651 5.99801V12.8223L20.0173 1.34227C21.2688 0.29151 23.2804 0.29151 24.5319 1.34227L33.8691 9.30119C35.0092 10.3799 34.9568 12.0287 33.7512 13.0571C32.5455 14.0855 30.6125 14.1246 29.3545 13.1577L22.2844 7.12143L11.0797 16.6844ZM22.2844 13.9513C20.987 13.9513 19.8207 14.6165 19.3292 15.6337C18.8313 16.6565 19.1065 17.8302 20.0238 18.6071C20.9411 19.3896 22.3172 19.6243 23.5097 19.1995C24.7088 18.7748 25.4885 17.7799 25.4885 16.6788C25.4885 15.9523 25.1544 15.2592 24.5515 14.7506C23.9487 14.2364 23.1362 13.9513 22.2844 13.9513Z"
      fill="#717375"
    />
</g>
<defs>
<clipPath id="clip0_150_261">
<rect
        width="163.811"
        height="32.2493"
        fill="white"
        transform="translate(0.152344 0.554199)"
      />
</clipPath>
</defs>
</svg>
