<svg
  width="131"
  height="31"
  viewBox="0 0 131 31"
  fill="none"
  xmlns="http://www.w3.org/2000/svg"
>
<g clip-path="url(#clip0_4320_6281)">
<path
      d="M35.7006 0.828125H0.927815C0.713339 0.828125 0.507652 0.89836 0.355994 1.02338C0.204339 1.1484 0.119141 1.31796 0.119141 1.49477V30.1603C0.119141 30.3371 0.204339 30.5069 0.355994 30.6319C0.507652 30.7567 0.713339 30.8269 0.927815 30.8269H35.7006C35.9153 30.8269 36.1208 30.7567 36.2727 30.6319C36.4242 30.5069 36.5096 30.3371 36.5096 30.1603V1.49477C36.5096 1.31796 36.4242 1.1484 36.2727 1.02338C36.1208 0.89836 35.9153 0.828125 35.7006 0.828125ZM24.3793 20.1608C24.3793 20.3376 24.2941 20.5071 24.1425 20.6322C23.9908 20.7572 23.7851 20.8274 23.5707 20.8274H13.0579C12.8434 20.8274 12.6377 20.7572 12.4861 20.6322C12.3344 20.5071 12.2492 20.3376 12.2492 20.1608V11.4944C12.2492 11.3176 12.3344 11.148 12.4861 11.023C12.6377 10.898 12.8434 10.8278 13.0579 10.8278H23.5707C23.7851 10.8278 23.9908 10.898 24.1425 11.023C24.2941 11.148 24.3793 11.3176 24.3793 11.4944V20.1608Z"
      fill="#717375"
    />
<path
      d="M108.497 10.832H97.9844C97.5381 10.832 97.1758 11.1305 97.1758 11.4987V20.165C97.1758 20.5332 97.5381 20.8317 97.9844 20.8317H108.497C108.944 20.8317 109.306 20.5332 109.306 20.165V11.4987C109.306 11.1305 108.944 10.832 108.497 10.832Z"
      fill="#717375"
    />
<path
      d="M96.3681 0.828125H85.8555C85.4088 0.828125 85.0469 1.12659 85.0469 1.49477V10.1611C85.0469 10.5293 85.4088 10.8278 85.8555 10.8278H96.3681C96.8148 10.8278 97.1771 10.5293 97.1771 10.1611V1.49477C97.1771 1.12659 96.8148 0.828125 96.3681 0.828125Z"
      fill="#717375"
    />
<path
      d="M120.632 0.828125H110.119C109.673 0.828125 109.311 1.12659 109.311 1.49477V10.1611C109.311 10.5293 109.673 10.8278 110.119 10.8278H120.632C121.079 10.8278 121.441 10.5293 121.441 10.1611V1.49477C121.441 1.12659 121.079 0.828125 120.632 0.828125Z"
      fill="#717375"
    />
<path
      d="M96.3681 20.8281H85.8555C85.4088 20.8281 85.0469 21.1266 85.0469 21.4947V30.1612C85.0469 30.5293 85.4088 30.8279 85.8555 30.8279H96.3681C96.8148 30.8279 97.1771 30.5293 97.1771 30.1612V21.4947C97.1771 21.1266 96.8148 20.8281 96.3681 20.8281Z"
      fill="#717375"
    />
<path
      d="M120.632 20.8281H110.119C109.673 20.8281 109.311 21.1266 109.311 21.4947V30.1612C109.311 30.5293 109.673 30.8279 110.119 30.8279H120.632C121.079 30.8279 121.441 30.5293 121.441 30.1612V21.4947C121.441 21.1266 121.079 20.8281 120.632 20.8281Z"
      fill="#717375"
    />
<path
      d="M78.1595 0.828125H67.6468C67.2002 0.828125 66.8379 1.12659 66.8379 1.49477V10.1611C66.8379 10.5293 67.2002 10.8278 67.6468 10.8278H78.1595C78.6061 10.8278 78.9681 10.5293 78.9681 10.1611V1.49477C78.9681 1.12659 78.6061 0.828125 78.1595 0.828125Z"
      fill="#717375"
    />
<path
      d="M78.1595 20.8281H67.6468C67.2002 20.8281 66.8379 21.1266 66.8379 21.4947V30.1612C66.8379 30.5293 67.2002 30.8279 67.6468 30.8279H78.1595C78.6061 30.8279 78.9681 30.5293 78.9681 30.1612V21.4947C78.9681 21.1266 78.6061 20.8281 78.1595 20.8281Z"
      fill="#717375"
    />
<path
      d="M66.8346 11.4869C66.8346 11.3101 66.7493 11.1405 66.5977 11.0155C66.4462 10.8905 66.2404 10.8203 66.026 10.8203H54.7044V1.49477C54.7044 1.31796 54.6191 1.1484 54.4675 1.02338C54.316 0.89836 54.1102 0.828125 53.8958 0.828125H43.3832C43.1685 0.828125 42.963 0.89836 42.8111 1.02338C42.6595 1.1484 42.5742 1.31796 42.5742 1.49477V30.1454C42.5742 30.3222 42.6595 30.4917 42.8111 30.6168C42.963 30.7418 43.1685 30.812 43.3832 30.812H53.8958C54.1102 30.812 54.316 30.7418 54.4675 30.6168C54.6191 30.4917 54.7044 30.3222 54.7044 30.1454V20.8199H66.026C66.2404 20.8199 66.4462 20.7497 66.5977 20.6247C66.7493 20.4996 66.8346 20.3301 66.8346 20.1533V11.4869Z"
      fill="#717375"
    />
</g>
<defs>
<clipPath id="clip0_4320_6281">
<rect
        width="130"
        height="30.0013"
        fill="white"
        transform="translate(0.119141 0.828125)"
      />
</clipPath>
</defs>
</svg>
