<svg xmlns="http://www.w3.org/2000/svg" xmlns:xlink="http://www.w3.org/1999/xlink" width="500" zoomAndPan="magnify" viewBox="0 0 375 374.999991" height="500" preserveAspectRatio="xMidYMid meet" version="1.0"><defs><g/><clipPath id="54c43511fc"><path d="M 159 179 L 262.5 179 L 262.5 197 L 159 197 Z M 159 179 " clip-rule="nonzero"/></clipPath><clipPath id="36250f3479"><path d="M 112.5 167.101562 L 154 167.101562 L 154 207.601562 L 112.5 207.601562 Z M 112.5 167.101562 " clip-rule="nonzero"/></clipPath></defs><g clip-path="url(#54c43511fc)"><path fill="#39535c" d="M 170.203125 191.121094 C 170.203125 194.199219 167.847656 196.253906 164.050781 196.253906 C 162.066406 196.253906 160.167969 195.671875 159.117188 194.652344 L 160.273438 192.421875 C 161.0625 193.242188 162.304688 193.71875 163.699219 193.71875 C 165.75 193.71875 167.015625 192.679688 167.015625 191.144531 C 167.015625 189.605469 165.796875 188.628906 163.941406 188.628906 C 163.113281 188.628906 162.390625 188.804688 161.738281 189.148438 L 160.90625 187.613281 L 165.359375 182.542969 L 159.859375 182.542969 L 159.859375 180.007812 L 169.375 180.007812 L 169.375 181.914062 L 165.207031 186.3125 C 168.21875 186.375 170.203125 188.304688 170.203125 191.121094 M 171.308594 187.925781 C 171.308594 183.011719 174.734375 179.738281 179.859375 179.738281 C 182.5 179.738281 184.640625 180.605469 186.230469 182.316406 L 184.289062 184.265625 C 183.375 183.097656 181.824219 182.273438 179.90625 182.273438 C 176.652344 182.273438 174.492188 184.546875 174.492188 187.949219 C 174.492188 191.394531 176.695312 193.667969 179.949219 193.667969 C 182.128906 193.667969 183.636719 192.691406 184.660156 191.132812 L 186.734375 192.976562 C 185.183594 195.074219 182.828125 196.203125 179.882812 196.203125 C 174.753906 196.203125 171.308594 192.886719 171.308594 187.925781 M 196.53125 190.085938 C 196.53125 187.964844 195.242188 186.554688 193.324219 186.554688 C 191.382812 186.554688 190.09375 187.964844 190.09375 190.085938 C 190.09375 192.210938 191.382812 193.617188 193.324219 193.617188 C 195.246094 193.617188 196.53125 192.210938 196.53125 190.085938 Z M 187.019531 190.085938 C 187.019531 186.46875 189.550781 184.042969 193.324219 184.042969 C 197.078125 184.042969 199.609375 186.46875 199.609375 190.085938 C 199.609375 193.726562 197.078125 196.152344 193.324219 196.152344 C 189.550781 196.152344 187.019531 193.726562 187.019531 190.085938 Z M 219.378906 188.589844 L 219.378906 195.933594 L 216.410156 195.933594 L 216.410156 189.066406 C 216.410156 187.550781 215.453125 186.554688 213.988281 186.554688 C 212.550781 186.554688 211.589844 187.550781 211.589844 189.066406 L 211.589844 195.933594 L 208.621094 195.933594 L 208.621094 189.066406 C 208.621094 187.550781 207.664062 186.554688 206.199219 186.554688 C 204.761719 186.554688 203.800781 187.550781 203.800781 189.066406 L 203.800781 195.933594 L 200.832031 195.933594 L 200.832031 184.257812 L 203.691406 184.257812 L 203.734375 185.644531 C 204.5625 184.582031 205.808594 184.042969 207.246094 184.042969 C 208.796875 184.042969 210.039062 184.691406 210.804688 185.796875 C 211.65625 184.648438 213.03125 184.042969 214.601562 184.042969 C 217.460938 184.042969 219.378906 185.863281 219.378906 188.589844 M 239.964844 188.589844 L 239.964844 195.933594 L 236.996094 195.933594 L 236.996094 189.066406 C 236.996094 187.550781 236.039062 186.554688 234.574219 186.554688 C 233.136719 186.554688 232.175781 187.550781 232.175781 189.066406 L 232.175781 195.933594 L 229.207031 195.933594 L 229.207031 189.066406 C 229.207031 187.550781 228.25 186.554688 226.785156 186.554688 C 225.347656 186.554688 224.386719 187.550781 224.386719 189.066406 L 224.386719 195.933594 L 221.417969 195.933594 L 221.417969 184.257812 L 224.277344 184.257812 L 224.320312 185.644531 C 225.148438 184.582031 226.394531 184.042969 227.832031 184.042969 C 229.382812 184.042969 230.625 184.691406 231.390625 185.796875 C 232.242188 184.648438 233.617188 184.042969 235.1875 184.042969 C 238.046875 184.042969 239.964844 185.863281 239.964844 188.589844 M 248.808594 191.0625 C 248.042969 190.910156 247.257812 190.824219 246.582031 190.824219 C 245.1875 190.824219 244.289062 191.472656 244.289062 192.46875 C 244.289062 193.421875 244.921875 194.050781 246.125 194.050781 C 247.5 194.050781 248.785156 192.96875 248.808594 191.0625 Z M 251.773438 188.589844 L 251.773438 195.933594 L 248.917969 195.933594 L 248.851562 194.265625 C 248.066406 195.480469 246.714844 196.152344 245.273438 196.152344 C 242.828125 196.152344 241.191406 194.699219 241.191406 192.535156 C 241.191406 190.28125 243.199219 188.808594 246.210938 188.808594 C 247.019531 188.808594 247.914062 188.894531 248.808594 189.066406 L 248.808594 188.851562 C 248.808594 187.292969 247.761719 186.359375 245.972656 186.359375 C 244.859375 186.359375 243.964844 186.683594 243.222656 187.292969 L 241.933594 185.558594 C 243.199219 184.539062 244.683594 184.042969 246.734375 184.042969 C 249.746094 184.042969 251.773438 185.839844 251.773438 188.589844 Z M 253.109375 194.765625 L 254.222656 192.988281 C 255.335938 193.636719 256.449219 193.855469 257.605469 193.855469 C 258.695312 193.855469 259.4375 193.398438 259.4375 192.683594 C 259.4375 191.96875 258.609375 191.582031 257.429688 191.277344 L 256.449219 191.015625 C 254.464844 190.496094 253.109375 189.738281 253.109375 187.898438 C 253.109375 185.578125 254.945312 184.042969 257.738281 184.042969 C 259.503906 184.042969 261.007812 184.410156 262.164062 185.191406 L 260.921875 187.117188 C 259.984375 186.597656 258.980469 186.359375 257.933594 186.359375 C 256.863281 186.359375 256.121094 186.75 256.121094 187.421875 C 256.121094 188.113281 256.863281 188.441406 257.890625 188.699219 L 258.871094 188.980469 C 260.878906 189.5 262.472656 190.410156 262.472656 192.46875 C 262.472656 194.679688 260.507812 196.152344 257.5625 196.152344 C 255.773438 196.152344 254.179688 195.695312 253.109375 194.765625 " fill-opacity="1" fill-rule="evenodd"/></g><g clip-path="url(#36250f3479)"><path fill="#00a59a" d="M 112.527344 167.101562 L 153.160156 167.101562 L 153.160156 207.601562 L 112.527344 207.601562 Z M 112.527344 167.101562 " fill-opacity="1" fill-rule="evenodd"/></g><path fill="#ffffff" d="M 139.136719 192.109375 L 143.710938 192.109375 C 143.738281 192.109375 143.757812 192.097656 143.765625 192.070312 L 145.3125 187.453125 C 145.3125 187.449219 145.3125 187.449219 145.3125 187.449219 L 146.65625 182.867188 C 146.660156 182.851562 146.65625 182.839844 146.648438 182.824219 L 146.453125 182.460938 C 146.445312 182.4375 146.425781 182.429688 146.402344 182.429688 L 140.796875 182.429688 C 140.761719 182.429688 140.742188 182.445312 140.738281 182.480469 L 139.933594 187.449219 L 139.082031 192.039062 C 139.070312 192.085938 139.089844 192.109375 139.140625 192.109375 Z M 128.84375 192.109375 L 133.398438 192.109375 C 133.425781 192.109375 133.445312 192.097656 133.453125 192.070312 L 135.011719 187.453125 C 135.011719 187.449219 135.011719 187.449219 135.011719 187.449219 L 136.363281 182.867188 C 136.367188 182.851562 136.363281 182.839844 136.355469 182.824219 L 136.160156 182.460938 C 136.148438 182.4375 136.132812 182.429688 136.109375 182.429688 L 130.460938 182.429688 C 130.429688 182.429688 130.410156 182.445312 130.402344 182.480469 L 129.59375 187.449219 L 128.785156 192.039062 C 128.777344 192.085938 128.796875 192.109375 128.84375 192.109375 Z M 118.824219 192.109375 L 123.394531 192.109375 C 123.421875 192.109375 123.441406 192.097656 123.453125 192.070312 L 124.996094 187.453125 C 125 187.449219 125 187.449219 125 187.449219 L 126.339844 182.867188 C 126.34375 182.851562 126.34375 182.839844 126.335938 182.824219 L 126.140625 182.460938 C 126.128906 182.4375 126.109375 182.429688 126.085938 182.429688 L 120.480469 182.429688 C 120.445312 182.429688 120.425781 182.445312 120.421875 182.480469 L 119.617188 187.449219 L 118.765625 192.039062 C 118.753906 192.085938 118.777344 192.109375 118.824219 192.109375 Z M 118.824219 192.109375 " fill-opacity="1" fill-rule="evenodd"/><g fill="#000000" fill-opacity="1"><g transform="translate(112.508131, 155.703213)"><g><path d="M 6.65625 -12.140625 C 7.726562 -12.140625 8.539062 -11.863281 9.09375 -11.3125 C 9.644531 -10.757812 9.921875 -9.945312 9.921875 -8.875 L 9.921875 -8.3125 C 9.921875 -7.25 9.644531 -6.4375 9.09375 -5.875 C 8.550781 -5.320312 7.738281 -5.046875 6.65625 -5.046875 L 2.734375 -5.046875 L 2.734375 -0.484375 C 2.734375 -0.160156 2.570312 0 2.25 0 C 1.914062 0 1.75 -0.160156 1.75 -0.484375 L 1.75 -11.65625 C 1.75 -11.976562 1.914062 -12.140625 2.25 -12.140625 Z M 8.9375 -8.875 C 8.9375 -9.675781 8.753906 -10.257812 8.390625 -10.625 C 8.035156 -10.988281 7.457031 -11.171875 6.65625 -11.171875 L 2.734375 -11.171875 L 2.734375 -6.03125 L 6.65625 -6.03125 C 7.457031 -6.03125 8.035156 -6.207031 8.390625 -6.5625 C 8.753906 -6.925781 8.9375 -7.507812 8.9375 -8.3125 Z M 8.9375 -8.875 "/></g></g></g><g fill="#000000" fill-opacity="1"><g transform="translate(123.070784, 155.703213)"><g><path d="M 4.90625 0 C 3.71875 0 2.851562 -0.269531 2.3125 -0.8125 C 1.78125 -1.351562 1.515625 -2.207031 1.515625 -3.375 L 1.515625 -5.5 C 1.515625 -6.695312 1.78125 -7.566406 2.3125 -8.109375 C 2.851562 -8.648438 3.71875 -8.914062 4.90625 -8.90625 L 6.453125 -8.90625 C 7.628906 -8.90625 8.488281 -8.632812 9.03125 -8.09375 C 9.570312 -7.550781 9.84375 -6.6875 9.84375 -5.5 L 9.84375 -3.390625 C 9.84375 -2.210938 9.570312 -1.351562 9.03125 -0.8125 C 8.488281 -0.269531 7.628906 0 6.453125 0 Z M 6.453125 -0.984375 C 7.335938 -0.984375 7.957031 -1.160156 8.3125 -1.515625 C 8.675781 -1.878906 8.859375 -2.503906 8.859375 -3.390625 L 8.859375 -5.5 C 8.859375 -6.394531 8.675781 -7.019531 8.3125 -7.375 C 7.957031 -7.738281 7.335938 -7.921875 6.453125 -7.921875 L 4.90625 -7.921875 C 4.007812 -7.929688 3.378906 -7.753906 3.015625 -7.390625 C 2.660156 -7.035156 2.484375 -6.40625 2.484375 -5.5 L 2.484375 -3.375 C 2.484375 -2.476562 2.660156 -1.851562 3.015625 -1.5 C 3.378906 -1.15625 4.007812 -0.984375 4.90625 -0.984375 Z M 6.453125 -0.984375 "/></g></g></g><g fill="#000000" fill-opacity="1"><g transform="translate(134.425632, 155.703213)"><g><path d="M 12.40625 -8.859375 C 12.632812 -8.773438 12.75 -8.632812 12.75 -8.4375 C 12.75 -8.394531 12.738281 -8.320312 12.71875 -8.21875 L 9.8125 -0.390625 C 9.71875 -0.128906 9.519531 0 9.21875 0 C 9.0625 0 8.929688 -0.03125 8.828125 -0.09375 C 8.734375 -0.15625 8.664062 -0.253906 8.625 -0.390625 L 6.5625 -6.984375 L 4.296875 -0.390625 C 4.210938 -0.128906 4.019531 0 3.71875 0 C 3.550781 0 3.425781 -0.03125 3.34375 -0.09375 C 3.257812 -0.15625 3.195312 -0.253906 3.15625 -0.390625 L 0.46875 -8.234375 C 0.445312 -8.335938 0.4375 -8.40625 0.4375 -8.4375 C 0.4375 -8.644531 0.554688 -8.785156 0.796875 -8.859375 C 0.890625 -8.890625 0.957031 -8.90625 1 -8.90625 C 1.1875 -8.90625 1.316406 -8.785156 1.390625 -8.546875 L 3.796875 -1.5625 L 6.046875 -8.40625 C 6.148438 -8.675781 6.34375 -8.8125 6.625 -8.8125 C 6.894531 -8.8125 7.066406 -8.671875 7.140625 -8.390625 L 9.28125 -1.609375 L 11.78125 -8.5625 C 11.863281 -8.789062 12.003906 -8.90625 12.203125 -8.90625 C 12.285156 -8.90625 12.351562 -8.890625 12.40625 -8.859375 Z M 12.40625 -8.859375 "/></g></g></g><g fill="#000000" fill-opacity="1"><g transform="translate(147.62894, 155.703213)"><g><path d="M 2.484375 -4.078125 L 2.484375 -3.375 C 2.484375 -2.476562 2.660156 -1.851562 3.015625 -1.5 C 3.378906 -1.15625 4.007812 -0.984375 4.90625 -0.984375 L 6.453125 -0.984375 C 7.253906 -0.984375 7.832031 -1.085938 8.1875 -1.296875 C 8.550781 -1.503906 8.765625 -1.859375 8.828125 -2.359375 C 8.890625 -2.671875 9.054688 -2.828125 9.328125 -2.828125 C 9.503906 -2.828125 9.632812 -2.78125 9.71875 -2.6875 C 9.800781 -2.601562 9.832031 -2.476562 9.8125 -2.3125 C 9.71875 -1.519531 9.394531 -0.9375 8.84375 -0.5625 C 8.300781 -0.1875 7.503906 0 6.453125 0 L 4.90625 0 C 3.738281 0 2.878906 -0.269531 2.328125 -0.8125 C 1.785156 -1.351562 1.515625 -2.207031 1.515625 -3.375 L 1.515625 -5.5 C 1.515625 -6.6875 1.785156 -7.550781 2.328125 -8.09375 C 2.878906 -8.644531 3.738281 -8.914062 4.90625 -8.90625 L 6.453125 -8.90625 C 7.617188 -8.90625 8.472656 -8.628906 9.015625 -8.078125 C 9.566406 -7.535156 9.84375 -6.675781 9.84375 -5.5 L 9.84375 -4.5625 C 9.84375 -4.238281 9.679688 -4.078125 9.359375 -4.078125 Z M 2.484375 -5.046875 L 8.859375 -5.046875 L 8.859375 -5.5 C 8.859375 -6.40625 8.679688 -7.035156 8.328125 -7.390625 C 7.984375 -7.742188 7.359375 -7.921875 6.453125 -7.921875 L 4.90625 -7.921875 C 4 -7.929688 3.367188 -7.757812 3.015625 -7.40625 C 2.660156 -7.0625 2.484375 -6.425781 2.484375 -5.5 Z M 2.484375 -5.046875 "/></g></g></g><g fill="#000000" fill-opacity="1"><g transform="translate(158.983788, 155.703213)"><g><path d="M 6.375 -8.90625 C 6.695312 -8.90625 6.859375 -8.738281 6.859375 -8.40625 C 6.859375 -8.082031 6.695312 -7.921875 6.375 -7.921875 C 5.238281 -7.921875 4.363281 -7.660156 3.75 -7.140625 C 3.132812 -6.628906 2.800781 -5.894531 2.75 -4.9375 C 2.75 -4.875 2.742188 -4.832031 2.734375 -4.8125 L 2.734375 -0.484375 C 2.734375 -0.160156 2.570312 0 2.25 0 C 1.914062 0 1.75 -0.160156 1.75 -0.484375 L 1.75 -8.40625 C 1.75 -8.738281 1.914062 -8.90625 2.25 -8.90625 C 2.570312 -8.90625 2.734375 -8.738281 2.734375 -8.40625 L 2.734375 -6.90625 C 3.054688 -7.539062 3.53125 -8.03125 4.15625 -8.375 C 4.78125 -8.726562 5.519531 -8.90625 6.375 -8.90625 Z M 6.375 -8.90625 "/></g></g></g><g fill="#000000" fill-opacity="1"><g transform="translate(166.075854, 155.703213)"><g><path d="M 2.484375 -4.078125 L 2.484375 -3.375 C 2.484375 -2.476562 2.660156 -1.851562 3.015625 -1.5 C 3.378906 -1.15625 4.007812 -0.984375 4.90625 -0.984375 L 6.453125 -0.984375 C 7.253906 -0.984375 7.832031 -1.085938 8.1875 -1.296875 C 8.550781 -1.503906 8.765625 -1.859375 8.828125 -2.359375 C 8.890625 -2.671875 9.054688 -2.828125 9.328125 -2.828125 C 9.503906 -2.828125 9.632812 -2.78125 9.71875 -2.6875 C 9.800781 -2.601562 9.832031 -2.476562 9.8125 -2.3125 C 9.71875 -1.519531 9.394531 -0.9375 8.84375 -0.5625 C 8.300781 -0.1875 7.503906 0 6.453125 0 L 4.90625 0 C 3.738281 0 2.878906 -0.269531 2.328125 -0.8125 C 1.785156 -1.351562 1.515625 -2.207031 1.515625 -3.375 L 1.515625 -5.5 C 1.515625 -6.6875 1.785156 -7.550781 2.328125 -8.09375 C 2.878906 -8.644531 3.738281 -8.914062 4.90625 -8.90625 L 6.453125 -8.90625 C 7.617188 -8.90625 8.472656 -8.628906 9.015625 -8.078125 C 9.566406 -7.535156 9.84375 -6.675781 9.84375 -5.5 L 9.84375 -4.5625 C 9.84375 -4.238281 9.679688 -4.078125 9.359375 -4.078125 Z M 2.484375 -5.046875 L 8.859375 -5.046875 L 8.859375 -5.5 C 8.859375 -6.40625 8.679688 -7.035156 8.328125 -7.390625 C 7.984375 -7.742188 7.359375 -7.921875 6.453125 -7.921875 L 4.90625 -7.921875 C 4 -7.929688 3.367188 -7.757812 3.015625 -7.40625 C 2.660156 -7.0625 2.484375 -6.425781 2.484375 -5.5 Z M 2.484375 -5.046875 "/></g></g></g><g fill="#000000" fill-opacity="1"><g transform="translate(177.430702, 155.703213)"><g><path d="M 9.359375 -13.0625 C 9.679688 -13.0625 9.84375 -12.898438 9.84375 -12.578125 L 9.84375 -0.484375 C 9.84375 -0.160156 9.679688 0 9.359375 0 C 9.023438 0 8.859375 -0.160156 8.859375 -0.484375 L 8.859375 -1.28125 C 8.585938 -0.851562 8.1875 -0.53125 7.65625 -0.3125 C 7.125 -0.101562 6.445312 0 5.625 0 L 4.90625 0 C 3.738281 0 2.878906 -0.269531 2.328125 -0.8125 C 1.785156 -1.363281 1.515625 -2.222656 1.515625 -3.390625 L 1.515625 -5.5 C 1.515625 -6.675781 1.785156 -7.535156 2.328125 -8.078125 C 2.878906 -8.628906 3.738281 -8.90625 4.90625 -8.90625 L 8.859375 -8.90625 L 8.859375 -12.578125 C 8.859375 -12.898438 9.023438 -13.0625 9.359375 -13.0625 Z M 5.625 -0.984375 C 6.625 -0.984375 7.410156 -1.140625 7.984375 -1.453125 C 8.566406 -1.773438 8.859375 -2.238281 8.859375 -2.84375 L 8.859375 -7.921875 L 4.90625 -7.921875 C 4 -7.921875 3.367188 -7.738281 3.015625 -7.375 C 2.660156 -7.019531 2.484375 -6.394531 2.484375 -5.5 L 2.484375 -3.390625 C 2.484375 -2.484375 2.660156 -1.851562 3.015625 -1.5 C 3.378906 -1.15625 4.007812 -0.984375 4.90625 -0.984375 Z M 5.625 -0.984375 "/></g></g></g><g fill="#000000" fill-opacity="1"><g transform="translate(188.861, 155.703213)"><g/></g></g><g fill="#000000" fill-opacity="1"><g transform="translate(193.576468, 155.703213)"><g><path d="M 6.6875 -8.921875 C 7.875 -8.921875 8.738281 -8.644531 9.28125 -8.09375 C 9.820312 -7.550781 10.09375 -6.695312 10.09375 -5.53125 L 10.09375 -3.390625 C 10.09375 -2.222656 9.820312 -1.363281 9.28125 -0.8125 C 8.738281 -0.269531 7.875 0 6.6875 0 L 5.984375 0 C 4.398438 0 3.316406 -0.429688 2.734375 -1.296875 L 2.734375 -0.484375 C 2.734375 -0.160156 2.570312 0 2.25 0 C 1.914062 0 1.75 -0.160156 1.75 -0.484375 L 1.75 -12.578125 C 1.75 -12.898438 1.914062 -13.0625 2.25 -13.0625 C 2.570312 -13.0625 2.734375 -12.898438 2.734375 -12.578125 L 2.734375 -7.59375 C 3.316406 -8.476562 4.398438 -8.921875 5.984375 -8.921875 Z M 9.109375 -5.53125 C 9.109375 -6.414062 8.929688 -7.035156 8.578125 -7.390625 C 8.222656 -7.753906 7.59375 -7.9375 6.6875 -7.9375 L 5.984375 -7.9375 C 4.972656 -7.9375 4.175781 -7.773438 3.59375 -7.453125 C 3.019531 -7.140625 2.734375 -6.671875 2.734375 -6.046875 L 2.734375 -2.84375 C 2.734375 -2.238281 3.019531 -1.773438 3.59375 -1.453125 C 4.175781 -1.140625 4.972656 -0.984375 5.984375 -0.984375 L 6.6875 -0.984375 C 7.59375 -0.984375 8.222656 -1.160156 8.578125 -1.515625 C 8.929688 -1.878906 9.109375 -2.503906 9.109375 -3.390625 Z M 9.109375 -5.53125 "/></g></g></g><g fill="#000000" fill-opacity="1"><g transform="translate(205.176524, 155.703213)"><g><path d="M 4 3.765625 C 3.164062 3.765625 2.550781 3.570312 2.15625 3.1875 C 1.769531 2.800781 1.578125 2.1875 1.578125 1.34375 C 1.578125 1.007812 1.742188 0.84375 2.078125 0.84375 C 2.398438 0.84375 2.5625 1.007812 2.5625 1.34375 C 2.5625 1.90625 2.660156 2.285156 2.859375 2.484375 C 3.066406 2.691406 3.445312 2.796875 4 2.796875 L 7.265625 2.796875 C 7.816406 2.796875 8.191406 2.691406 8.390625 2.484375 C 8.585938 2.285156 8.6875 1.90625 8.6875 1.34375 L 8.6875 -1.265625 C 8.34375 -0.804688 7.898438 -0.476562 7.359375 -0.28125 C 6.828125 -0.0820312 6.191406 0.015625 5.453125 0.015625 L 4.921875 0.015625 C 3.765625 0.015625 2.914062 -0.242188 2.375 -0.765625 C 1.84375 -1.296875 1.578125 -2.140625 1.578125 -3.296875 L 1.578125 -8.4375 C 1.578125 -8.757812 1.742188 -8.921875 2.078125 -8.921875 C 2.398438 -8.921875 2.5625 -8.757812 2.5625 -8.4375 L 2.5625 -3.296875 C 2.5625 -2.421875 2.734375 -1.8125 3.078125 -1.46875 C 3.429688 -1.132812 4.046875 -0.96875 4.921875 -0.96875 L 5.453125 -0.96875 C 6.546875 -0.96875 7.359375 -1.160156 7.890625 -1.546875 C 8.421875 -1.929688 8.6875 -2.515625 8.6875 -3.296875 L 8.6875 -8.4375 C 8.6875 -8.757812 8.851562 -8.921875 9.1875 -8.921875 C 9.507812 -8.921875 9.671875 -8.757812 9.671875 -8.4375 L 9.671875 1.34375 C 9.671875 2.1875 9.472656 2.800781 9.078125 3.1875 C 8.691406 3.570312 8.085938 3.765625 7.265625 3.765625 Z M 4 3.765625 "/></g></g></g></svg>