<svg
  width="109"
  height="42"
  viewBox="0 0 109 42"
  fill="none"
  xmlns="http://www.w3.org/2000/svg"
>
<g id="Vector" style="mix-blend-mode:luminosity">
<path
      d="M44.4259 29.0416C44.4259 28.9899 44.4259 28.9203 44.3923 28.8519L41.9055 22.6135C43.2051 21.8729 44.0442 20.5122 44.0442 18.0471V17.8379C44.0442 13.8468 41.7859 12.5659 39.348 12.5659C38.191 12.5659 36.4156 12.6815 35.5882 12.8636C35.2698 12.9378 35.0823 13.0975 35.0823 13.5635V28.8519C35.0823 29.1053 35.2284 29.318 35.4006 29.318H36.9847C37.1569 29.318 37.2882 29.1059 37.2882 28.8519V23.1001C37.6476 23.1283 38.932 23.1944 39.3477 23.1944H39.6996L41.9844 28.8519C42.0629 29.083 42.1227 29.318 42.2949 29.318H44.2352C44.3626 29.3173 44.4259 29.1984 44.4259 29.0416ZM41.857 18.0465C41.857 20.1013 40.977 20.5639 39.3477 20.5639C39.0746 20.5639 37.5351 20.5115 37.2882 20.4897V15.4327C37.5691 15.3827 39.0144 15.3419 39.3477 15.3419C40.932 15.3419 41.857 16.0883 41.857 17.8374V18.0465ZM48.6541 22.0923H53.7288C53.8121 22.0914 53.8918 22.0429 53.9512 21.9569C54.0106 21.8711 54.0448 21.7545 54.0467 21.6321V19.9496C54.0462 19.826 54.0124 19.7078 53.9529 19.6205C53.8934 19.5332 53.8128 19.4841 53.7288 19.4837H48.6541V17.3461C48.6541 15.3907 48.7068 15.3413 49.9009 15.3413H53.9124C54.0921 15.3413 54.2382 15.1235 54.2382 14.8701V13.3779C54.2382 13.0504 54.1518 12.9366 53.9124 12.8901C53.4105 12.7775 52.3804 12.5654 50.4928 12.5654C47.8603 12.5654 46.4634 12.5378 46.4634 17.3466V24.7228C46.4634 29.5237 47.8603 29.5012 50.4928 29.5012C52.3804 29.5012 53.4105 29.2926 53.9124 29.1772C54.1518 29.1323 54.2382 29.0203 54.2382 28.6836V27.1943C54.2382 26.9425 54.0921 26.734 53.9124 26.734H49.9009C48.7064 26.734 48.6541 26.6834 48.6541 24.7228V22.0923ZM66.1138 22.9025V13.1963C66.1138 12.9372 65.9681 12.7533 65.788 12.7533H64.2228C64.0466 12.7533 63.9044 12.9372 63.9044 13.1963V22.9031C63.9044 25.564 63.0731 26.8219 61.3575 26.8219C59.6461 26.8219 58.8074 25.564 58.8074 22.9031V13.1963C58.8074 12.9372 58.6723 12.7533 58.4925 12.7533H56.9233C56.7511 12.7533 56.6085 12.9372 56.6085 13.1963V22.9031C56.6085 27.8711 58.8031 29.5018 61.3571 29.5018C63.9118 29.5012 66.1138 27.8711 66.1138 22.9025ZM76.8511 15.0362V13.1963C76.8511 12.9372 76.7049 12.7533 76.5361 12.7533H68.001C67.8291 12.7533 67.6865 12.9372 67.6865 13.1963V15.0362C67.6865 15.2948 67.8287 15.4574 68.001 15.4574H71.1662V28.8519C71.1662 29.1053 71.3083 29.318 71.4805 29.318H73.0535C73.1371 29.3167 73.2173 29.2673 73.277 29.1802C73.3361 29.0931 73.3706 28.9753 73.3713 28.8519V15.4574H76.5361C76.7049 15.4574 76.8511 15.2948 76.8511 15.0362ZM98.2617 29.0416C98.2617 28.9899 98.2617 28.9203 98.2322 28.8519L95.7374 22.6135C97.0411 21.8729 97.8799 20.5122 97.8799 18.0471V17.8379C97.8799 13.8468 95.6292 12.5659 93.1794 12.5659C92.0228 12.5659 90.2508 12.6815 89.4275 12.8636C89.1089 12.9378 88.9177 13.0975 88.9177 13.5635V28.8519C88.9177 29.1053 89.0639 29.318 89.2362 29.318H90.8204C90.9962 29.318 91.1199 29.1059 91.1199 28.8519V23.1001C91.487 23.1283 92.7681 23.1944 93.1794 23.1944H93.5352L95.8197 28.8519C95.8992 29.083 95.9589 29.318 96.1347 29.318H98.0712C98.1984 29.3173 98.2617 29.1984 98.2617 29.0416ZM95.6925 18.0465C95.6925 20.1013 94.8163 20.5639 93.1794 20.5639C92.9129 20.5639 91.378 20.5115 91.1199 20.4897V15.4327C91.4082 15.3827 92.8497 15.3419 93.1794 15.3419C94.7713 15.3419 95.6925 16.0883 95.6925 17.8374V18.0465ZM108.293 24.6453C108.293 22.4009 107.429 21.2442 106.095 20.4478C105.201 19.923 104.305 19.4043 103.407 18.8917C102.702 18.4757 102.111 17.7679 102.111 17.0048C102.111 15.9584 102.991 15.3465 104.167 15.3465C105.545 15.3465 106.631 15.6332 107.676 15.7734H107.71C107.867 15.7734 107.979 15.578 107.979 15.3465V13.6256C107.979 13.394 107.852 13.2314 107.691 13.1842C107.152 12.994 105.77 12.5677 104.257 12.5677C101.309 12.5677 99.9022 14.4351 99.9022 17.0048C99.9022 18.6355 100.392 20.2444 101.774 21.0816C103.16 21.9194 105.998 22.8881 105.998 24.6453C105.998 25.9898 105.564 26.7363 104.155 26.7363C102.692 26.7363 101.204 26.4276 100.567 26.3122H100.534C100.454 26.3146 100.378 26.3626 100.322 26.4459C100.266 26.5293 100.235 26.6415 100.234 26.7586V28.4388C100.234 28.6945 100.384 28.8554 100.534 28.8991C101.298 29.1605 102.721 29.5127 104.122 29.5127C107.294 29.5127 108.293 26.9954 108.293 24.6453ZM80.6748 22.0923H85.7458C85.7866 22.0926 85.8274 22.0811 85.8661 22.0581C85.904 22.0351 85.9385 22.0013 85.968 21.9585C85.9968 21.9157 86.0201 21.8648 86.0362 21.8088C86.0517 21.7528 86.0601 21.6927 86.0601 21.6321V19.9496C86.0608 19.8884 86.0531 19.8276 86.0376 19.7707C86.0222 19.7139 85.999 19.6622 85.9694 19.6187C85.9406 19.5753 85.9054 19.541 85.8668 19.5177C85.8281 19.4945 85.7873 19.4829 85.7458 19.4837H80.6748V17.3461C80.6748 15.3907 80.7233 15.3413 81.9257 15.3413H85.9399C86.0236 15.3386 86.1037 15.2879 86.1628 15.1999C86.2212 15.1118 86.2542 14.9935 86.2549 14.8701V13.3779C86.2549 13.0504 86.1762 12.9366 85.9399 12.8901C85.4273 12.7775 84.3972 12.5654 82.51 12.5654C79.8767 12.5654 78.4838 12.5378 78.4838 17.3466V24.7228C78.4838 29.5237 79.8767 29.5012 82.51 29.5012C84.3972 29.5012 85.4273 29.2926 85.9399 29.1772C86.1762 29.1323 86.2549 29.0203 86.2549 28.6836V27.1943C86.2542 27.072 86.2205 26.9551 86.1621 26.8689C86.103 26.7827 86.0229 26.7342 85.9399 26.734H81.9257C80.7233 26.734 80.6748 26.6834 80.6748 24.7228V22.0923Z"
      fill="#717375"
    />
<path
      d="M13.4132 14.981C13.5655 15.3988 13.462 15.9228 13.1768 16.1492C13.0392 16.2578 12.878 16.2816 12.7285 16.2155C12.579 16.1493 12.4535 15.9986 12.3796 15.7964C12.2233 15.3792 12.3311 14.8541 12.6155 14.6288C12.6835 14.5744 12.7582 14.5405 12.8352 14.5287C12.9122 14.517 12.99 14.5279 13.0642 14.5607C13.1383 14.5934 13.2074 14.6473 13.2672 14.7195C13.3271 14.7917 13.3767 14.8806 13.4132 14.981ZM10.5112 21.7395C10.431 21.805 10.3717 21.9142 10.3458 22.0435C10.3199 22.1728 10.3296 22.3119 10.3729 22.4307C10.3942 22.4896 10.4233 22.5416 10.4585 22.5836C10.4937 22.6257 10.5343 22.6569 10.5778 22.6756C10.6214 22.6942 10.667 22.6999 10.712 22.6921C10.7571 22.6845 10.8006 22.6636 10.84 22.6307C10.8805 22.6002 10.9163 22.5579 10.9454 22.5065C10.9745 22.4551 10.9962 22.3956 11.0093 22.3316C11.0224 22.2675 11.0267 22.2003 11.0218 22.1338C11.0169 22.0673 11.0029 22.003 10.9807 21.9446C10.9366 21.8263 10.8625 21.7384 10.7746 21.7C10.6867 21.6617 10.592 21.6758 10.5112 21.7395ZM10.4525 19.6618C10.3596 19.7367 10.2905 19.8626 10.2604 20.012C10.2301 20.1614 10.2412 20.3224 10.2912 20.4599C10.3994 20.7518 10.6424 20.8569 10.8389 20.703C11.033 20.5466 11.1072 20.1818 11.0022 19.8985C10.9769 19.8295 10.9425 19.7686 10.9012 19.7193C10.8598 19.6699 10.8121 19.6331 10.761 19.6112C10.7099 19.5892 10.6563 19.5822 10.6034 19.5909C10.5504 19.5996 10.4991 19.6237 10.4525 19.6618ZM10.8189 17.6622C10.7118 17.7479 10.632 17.8922 10.5965 18.0639C10.5611 18.2356 10.5729 18.4208 10.6295 18.5798C10.7526 18.9067 11.0318 19.0331 11.2545 18.8544C11.308 18.8124 11.3554 18.7552 11.3938 18.6862C11.4322 18.6172 11.461 18.5378 11.4786 18.4524C11.4961 18.3669 11.502 18.2773 11.4959 18.1885C11.4899 18.0998 11.4719 18.0136 11.4432 17.935C11.3843 17.7781 11.2859 17.6616 11.1691 17.6105C11.0523 17.5595 10.9265 17.578 10.8189 17.6622ZM11.5667 15.9325C11.5061 15.9798 11.4525 16.0442 11.4091 16.1221C11.3656 16.2 11.3331 16.2899 11.3135 16.3864C11.2938 16.483 11.2874 16.5844 11.2945 16.6846C11.3017 16.7848 11.3224 16.8819 11.3553 16.9703C11.4921 17.3375 11.8022 17.4771 12.0538 17.2766C12.1141 17.23 12.1676 17.1662 12.211 17.0891C12.2545 17.0118 12.2872 16.9227 12.307 16.8268C12.3269 16.7309 12.3336 16.6302 12.3268 16.5305C12.3201 16.4307 12.2998 16.334 12.2674 16.2457C12.2356 16.1572 12.1922 16.0789 12.1396 16.0152C12.087 15.9515 12.0265 15.9037 11.9613 15.8745C11.8962 15.8455 11.8278 15.8356 11.76 15.8456C11.6923 15.8555 11.6266 15.8851 11.5667 15.9325ZM10.9944 23.707C10.9608 23.7335 10.9312 23.7695 10.9071 23.8131C10.8831 23.8565 10.8651 23.9066 10.8542 23.9603C10.8434 24.0139 10.8399 24.0703 10.8438 24.126C10.8478 24.1818 10.8593 24.2358 10.8776 24.285C10.9147 24.3834 10.9765 24.4564 11.0498 24.4887C11.1231 24.5208 11.202 24.5097 11.2698 24.4574C11.3366 24.4021 11.3859 24.3105 11.4073 24.2022C11.4288 24.0939 11.4205 23.9775 11.3842 23.8782C11.3475 23.7802 11.286 23.7073 11.2131 23.6753C11.1402 23.6432 11.0617 23.6546 10.9944 23.707ZM17.6718 16.6313C17.7165 16.7496 17.7906 16.8376 17.8787 16.8768C17.9667 16.9159 18.0616 16.9031 18.1433 16.8411C18.2238 16.7754 18.2836 16.6659 18.3098 16.5361C18.3361 16.4064 18.3266 16.2666 18.2836 16.147C18.2622 16.088 18.233 16.036 18.1978 15.9938C18.1627 15.9515 18.1222 15.9199 18.0786 15.9009C18.0351 15.8818 17.9895 15.8756 17.9443 15.8826C17.8992 15.8896 17.8555 15.9097 17.8156 15.9418C17.7754 15.9731 17.7397 16.0158 17.7107 16.0675C17.6817 16.1191 17.6599 16.1787 17.6466 16.2427C17.6332 16.3068 17.6286 16.374 17.6329 16.4407C17.6372 16.5074 17.6505 16.5721 17.6718 16.6313ZM16.4988 15.5332C16.6047 15.8217 16.8538 15.9269 17.0437 15.77C17.2441 15.6137 17.3156 15.2551 17.2086 14.9679C17.1582 14.8299 17.0728 14.727 16.971 14.6813C16.8692 14.6357 16.7593 14.6511 16.6652 14.7242C16.5708 14.8 16.5005 14.9273 16.4694 15.0786C16.4383 15.23 16.4488 15.3933 16.4988 15.5332ZM15.1432 14.9989C15.1715 15.0769 15.21 15.146 15.2566 15.202C15.3031 15.258 15.3568 15.2999 15.4144 15.3252C15.4721 15.3505 15.5326 15.3586 15.5923 15.3493C15.6522 15.3399 15.7101 15.3132 15.7629 15.2706C15.8164 15.2288 15.8637 15.1719 15.9022 15.1032C15.9407 15.0344 15.9696 14.955 15.9872 14.8697C16.0049 14.7845 16.0109 14.6949 16.0048 14.6063C15.9988 14.5175 15.981 14.4315 15.9523 14.353C15.9238 14.2746 15.885 14.2052 15.8381 14.149C15.7913 14.0929 15.7373 14.051 15.6793 14.0257C15.6213 14.0006 15.5605 13.9926 15.5004 14.0024C15.4403 14.0121 15.3821 14.0393 15.3292 14.0823C15.276 14.1245 15.229 14.1816 15.1909 14.2505C15.1527 14.3194 15.1242 14.3987 15.1069 14.4838C15.0896 14.5689 15.084 14.6583 15.0902 14.7466C15.0964 14.8351 15.1145 14.9207 15.1432 14.9989ZM13.728 15.081C13.7602 15.1697 13.8039 15.248 13.8566 15.3118C13.9094 15.3755 13.9702 15.4233 14.0356 15.4523C14.1009 15.4815 14.1695 15.4914 14.2375 15.4815C14.3054 15.4717 14.3713 15.4422 14.4315 15.3947C14.552 15.2969 14.6414 15.1333 14.6805 14.9391C14.7195 14.745 14.7051 14.5361 14.6402 14.3576C14.5726 14.1861 14.4623 14.0599 14.3327 14.0059C14.203 13.9519 14.0641 13.9743 13.9454 14.0684C13.8268 14.1625 13.7378 14.3208 13.6972 14.5099C13.6566 14.6989 13.6676 14.9037 13.728 15.081ZM18.5531 18.1868C18.6273 18.393 18.8031 18.4677 18.9391 18.3574C18.9725 18.3319 19.0022 18.2967 19.0263 18.2541C19.0503 18.2115 19.0684 18.1622 19.0794 18.1091C19.0903 18.056 19.0939 18.0003 19.09 17.9452C19.0861 17.89 19.0748 17.8366 19.0566 17.788C19.0206 17.6883 18.9593 17.6135 18.8861 17.5797C18.8129 17.546 18.7335 17.556 18.6652 17.6076C18.5313 17.7219 18.4754 17.9851 18.5531 18.1868ZM17.557 26.2702C17.5207 26.1693 17.4711 26.0799 17.4112 26.0074C17.3511 25.9349 17.2819 25.8806 17.2075 25.8479C17.1331 25.8151 17.055 25.8046 16.9778 25.8167C16.9006 25.8289 16.8258 25.8634 16.7577 25.9186C16.6897 25.972 16.6296 26.0448 16.5809 26.1327C16.5322 26.2206 16.4957 26.3217 16.4739 26.4305C16.4519 26.5392 16.4449 26.6533 16.4532 26.7661C16.4615 26.8788 16.485 26.988 16.5222 27.0873C16.6769 27.5057 17.0339 27.6585 17.3199 27.4378C17.6039 27.2069 17.7097 26.6799 17.557 26.2702ZM12.2616 25.4325C12.2175 25.3153 12.1439 25.2281 12.0566 25.1899C11.9693 25.1516 11.8753 25.1653 11.7948 25.228C11.7549 25.2593 11.7196 25.302 11.6909 25.3535C11.6623 25.405 11.6408 25.4644 11.6278 25.5281C11.6148 25.5918 11.6104 25.6588 11.615 25.7249C11.6196 25.7912 11.633 25.8555 11.6545 25.914C11.6756 25.9732 11.7045 26.0255 11.7396 26.068C11.7746 26.1104 11.8151 26.1421 11.8587 26.161C11.9022 26.18 11.9479 26.1859 11.993 26.1784C12.0381 26.1709 12.0818 26.1501 12.1214 26.1175C12.1612 26.086 12.1964 26.0434 12.225 25.992C12.2536 25.9406 12.2751 25.8814 12.2881 25.8177C12.3011 25.7541 12.3054 25.6873 12.3009 25.6212C12.2964 25.5551 12.283 25.491 12.2616 25.4325ZM13.4362 26.5312C13.3852 26.3936 13.2992 26.2914 13.197 26.247C13.0949 26.2025 12.985 26.2193 12.8913 26.2938C12.8443 26.33 12.8028 26.3798 12.769 26.4399C12.7353 26.5001 12.7101 26.5696 12.695 26.6444C12.6798 26.7192 12.6749 26.7976 12.6806 26.8752C12.6864 26.9527 12.7026 27.0277 12.7284 27.096C12.8299 27.385 13.0764 27.4953 13.2718 27.3402C13.3656 27.2638 13.4355 27.1362 13.4663 26.985C13.497 26.8338 13.4862 26.6708 13.4362 26.5312ZM14.7948 27.0655C14.6765 26.7374 14.3941 26.6207 14.1675 26.7909C14.0606 26.8773 13.9812 27.0223 13.9464 27.1942C13.9116 27.366 13.9242 27.5513 13.9815 27.7096C14.1042 28.0412 14.3835 28.1636 14.607 27.9866C14.6608 27.9448 14.7084 27.8877 14.7471 27.8187C14.7858 27.7496 14.8147 27.6697 14.8322 27.584C14.8497 27.4982 14.8554 27.4082 14.849 27.3192C14.8426 27.2302 14.8242 27.144 14.7948 27.0655ZM16.2082 26.9822C16.1423 26.8043 16.0314 26.672 15.8995 26.6141C15.7676 26.5562 15.6255 26.5774 15.5042 26.6731C15.2511 26.8701 15.1632 27.3315 15.3007 27.7067C15.3322 27.7952 15.3754 27.8734 15.4278 27.9368C15.4802 28.0002 15.5407 28.0475 15.6058 28.076C15.6708 28.1044 15.739 28.1134 15.8064 28.1024C15.8739 28.0914 15.9391 28.0606 15.9984 28.0119C16.2523 27.8165 16.3425 27.3505 16.2082 26.9822ZM19.4192 20.3318C19.5891 20.1881 19.6539 19.8778 19.5652 19.6348C19.5437 19.5761 19.5145 19.5244 19.4793 19.4824C19.4441 19.4404 19.4036 19.409 19.3603 19.3901C19.3168 19.371 19.2713 19.3648 19.2262 19.3716C19.1812 19.3786 19.1375 19.3984 19.0976 19.4302C19.0571 19.4612 19.0213 19.5039 18.9921 19.5557C18.963 19.6075 18.9412 19.6673 18.928 19.7317C18.9148 19.796 18.9105 19.8637 18.9154 19.9305C18.9202 19.9973 18.9342 20.062 18.9562 20.1209C18.9993 20.2382 19.0719 20.3259 19.1584 20.3654C19.2449 20.4048 19.3386 20.3927 19.4192 20.3318ZM19.484 22.406C19.6801 22.2492 19.7504 21.8889 19.6438 21.6028C19.6189 21.5343 19.5851 21.4738 19.5442 21.4246C19.5034 21.3755 19.4564 21.3388 19.4058 21.3164C19.3553 21.2941 19.3023 21.2866 19.2498 21.2946C19.1973 21.3026 19.1464 21.3256 19.1 21.3625C19.0061 21.4387 18.9361 21.5659 18.9052 21.7169C18.8743 21.8679 18.8847 22.0307 18.9344 22.1704C19.0383 22.4537 19.2906 22.5583 19.484 22.406ZM19.1149 24.404C19.3437 24.223 19.4235 23.8162 19.3067 23.4834C19.2483 23.3253 19.1497 23.2076 19.0325 23.1561C18.9154 23.1045 18.789 23.1232 18.6812 23.2082C18.5736 23.2946 18.4934 23.4399 18.4581 23.6126C18.4229 23.7855 18.4354 23.9717 18.4929 24.131C18.5514 24.2876 18.6495 24.404 18.7658 24.4551C18.8822 24.5061 19.0076 24.4877 19.1149 24.404ZM18.3723 26.126C18.6238 25.9341 18.7168 25.4635 18.5805 25.0963C18.4422 24.7275 18.1297 24.5843 17.8793 24.7878C17.8194 24.8354 17.7665 24.8998 17.7235 24.9775C17.6806 25.0551 17.6485 25.1446 17.629 25.2405C17.6096 25.3365 17.6032 25.4371 17.6102 25.5367C17.6172 25.6363 17.6375 25.7329 17.6699 25.8209C17.7019 25.9095 17.7456 25.9877 17.7984 26.0511C17.8513 26.1145 17.9122 26.1617 17.9775 26.1902C18.0429 26.2185 18.1116 26.2275 18.1793 26.2165C18.247 26.2055 18.3127 26.1748 18.3723 26.126Z"
      fill="#717375"
    />
<path
      d="M17.3773 12.9169C17.3493 13.0565 17.3028 13.1866 17.2405 13.2998C17.1782 13.4129 17.1014 13.5068 17.0143 13.5762C16.9273 13.6455 16.8318 13.689 16.7333 13.7039C16.6349 13.7189 16.5354 13.7051 16.4406 13.6633C16.3451 13.6228 16.256 13.5548 16.1785 13.4633C16.101 13.3718 16.0365 13.2586 15.9889 13.1303C15.9413 13.002 15.9114 12.861 15.9011 12.7156C15.8907 12.5702 15.9 12.4232 15.9284 12.2832C15.9856 12.0005 16.1167 11.7628 16.293 11.6225C16.3803 11.553 16.476 11.5094 16.5747 11.4943C16.6734 11.4792 16.7732 11.4928 16.8683 11.5345C16.9635 11.576 17.0521 11.6448 17.1292 11.7369C17.2063 11.8288 17.2702 11.9423 17.3175 12.0706C17.3647 12.199 17.3944 12.3399 17.4046 12.4851C17.4149 12.6303 17.4056 12.777 17.3773 12.9169ZM10.1338 15.5412C10.0385 15.5022 9.93664 15.5195 9.84994 15.5895C9.76324 15.6595 9.69855 15.7766 9.66972 15.9158C9.64589 16.0536 9.65939 16.1996 9.70727 16.3231C9.75516 16.4466 9.83377 16.5378 9.92651 16.5777C10.0193 16.6177 10.119 16.6031 10.2045 16.5371C10.2902 16.471 10.355 16.3587 10.3854 16.2238C10.4471 15.9347 10.3299 15.6307 10.1338 15.5412ZM11.4444 13.4209C11.3864 13.3958 11.3256 13.3877 11.2655 13.3972C11.2054 13.4068 11.1472 13.4337 11.0941 13.4765C11.0411 13.5192 10.9944 13.5771 10.9566 13.6465C10.9189 13.716 10.8908 13.7957 10.8741 13.8811C10.8568 13.9665 10.8511 14.0559 10.8575 14.1446C10.8638 14.2331 10.8819 14.319 10.9109 14.3972C10.9399 14.4753 10.9791 14.5443 11.0263 14.6002C11.0735 14.6559 11.1277 14.6975 11.1858 14.7223C11.3031 14.7723 11.4291 14.7519 11.5363 14.6659C11.6435 14.5798 11.7232 14.4348 11.758 14.2627C11.7917 14.0899 11.7777 13.9045 11.719 13.7468C11.6602 13.5892 11.5615 13.4721 11.4444 13.4209ZM13.1237 11.9263C12.9747 11.863 12.8147 11.8886 12.6785 11.9976C12.5422 12.1065 12.4405 12.29 12.3956 12.5083C12.3526 12.7278 12.3705 12.9633 12.4452 13.1635C12.52 13.3637 12.6455 13.5121 12.7944 13.5765C12.8681 13.6089 12.9454 13.6196 13.0218 13.6077C13.0983 13.5959 13.1724 13.562 13.2398 13.5078C13.3073 13.4536 13.3669 13.3803 13.415 13.2921C13.4631 13.2039 13.4989 13.1025 13.5202 12.9939C13.5623 12.7751 13.5443 12.5406 13.4702 12.341C13.3961 12.1414 13.2717 11.9925 13.1237 11.9263ZM14.9835 11.3144C14.9005 11.2779 14.8135 11.2657 14.7273 11.279C14.6412 11.2921 14.5577 11.3303 14.4816 11.3912C14.4055 11.4521 14.3384 11.5346 14.2841 11.6337C14.2298 11.733 14.1894 11.8471 14.1652 11.9694C14.1405 12.0913 14.1324 12.2192 14.1415 12.3456C14.1505 12.4721 14.1764 12.5948 14.2178 12.7065C14.2591 12.8182 14.315 12.9168 14.3824 12.9965C14.4497 13.0764 14.5271 13.1358 14.6101 13.1715C14.7773 13.2434 14.9571 13.215 15.1102 13.0924C15.2633 12.9698 15.3771 12.7632 15.4269 12.5175C15.4519 12.3958 15.4602 12.2679 15.4514 12.1413C15.4426 12.0147 15.4169 11.8919 15.3756 11.7801C15.3344 11.6682 15.2785 11.5695 15.2112 11.4896C15.144 11.4096 15.0665 11.35 14.9835 11.3144ZM9.30529 18.1659C9.27041 18.1507 9.23385 18.1458 9.19771 18.1514C9.16156 18.1571 9.12648 18.1731 9.09463 18.1988C9.0627 18.2244 9.03451 18.2591 9.0118 18.3007C8.98901 18.3424 8.97207 18.3904 8.96194 18.4417C8.95125 18.4934 8.94767 18.5477 8.95125 18.6015C8.95484 18.6553 8.96567 18.7075 8.98297 18.7552C9.00033 18.8029 9.02389 18.845 9.0523 18.8792C9.0807 18.9136 9.11347 18.9392 9.14863 18.9548C9.29783 19.018 9.45175 18.8916 9.49513 18.6744C9.50547 18.6227 9.50877 18.5685 9.50477 18.5149C9.50083 18.4613 9.48972 18.4093 9.47207 18.3621C9.45442 18.3149 9.43059 18.2732 9.40197 18.2395C9.37335 18.2059 9.34051 18.1809 9.30529 18.1659ZM20.5895 20.6333C20.5755 20.7025 20.5709 20.7751 20.5761 20.8468C20.5813 20.9186 20.596 20.9882 20.6197 21.0515C20.6432 21.1149 20.6751 21.1707 20.7135 21.2158C20.7518 21.2609 20.7959 21.2943 20.843 21.3141C20.9379 21.3552 21.0401 21.3392 21.1269 21.2696C21.2137 21.1998 21.2782 21.0823 21.3061 20.9427C21.334 20.8031 21.3231 20.6529 21.2758 20.5252C21.2284 20.3975 21.1485 20.3026 21.0536 20.2615C20.9585 20.2207 20.8563 20.2368 20.7694 20.3065C20.6824 20.3761 20.6178 20.4936 20.5895 20.6333ZM20.1583 17.8895C20.1407 17.9752 20.1351 18.065 20.1413 18.1539C20.1476 18.2428 20.1658 18.329 20.1948 18.4075C20.2239 18.486 20.2632 18.5552 20.3106 18.6111C20.3579 18.6672 20.4124 18.7088 20.4707 18.7336C20.7168 18.8405 20.9707 18.6337 21.0427 18.274C21.1145 17.9142 20.9759 17.539 20.7317 17.4356C20.6738 17.4099 20.613 17.4013 20.5529 17.4103C20.4927 17.4192 20.4342 17.4456 20.381 17.4877C20.3277 17.5299 20.2807 17.5871 20.2424 17.656C20.2042 17.725 20.1756 17.8043 20.1583 17.8895ZM19.1426 15.4216C19.121 15.53 19.1142 15.6436 19.1224 15.7559C19.1306 15.8682 19.1538 15.977 19.1907 16.0761C19.2275 16.1753 19.2772 16.2627 19.3371 16.3335C19.3969 16.4044 19.4656 16.4571 19.5393 16.489C19.613 16.5207 19.6902 16.5308 19.7665 16.5187C19.8429 16.5066 19.9169 16.4724 19.9842 16.4182C20.0517 16.364 20.1111 16.2909 20.1592 16.2029C20.2074 16.1149 20.2433 16.0138 20.2649 15.9054C20.2867 15.7973 20.2938 15.6837 20.2857 15.5715C20.2775 15.4593 20.2543 15.3506 20.2174 15.2516C20.1805 15.1526 20.1306 15.0654 20.0706 14.995C20.0107 14.9245 19.9418 14.8723 19.868 14.8413C19.7195 14.7782 19.5601 14.8037 19.4243 14.9123C19.2885 15.021 19.1873 15.204 19.1426 15.4216ZM17.7133 13.5048C17.6644 13.7511 17.6841 14.016 17.7681 14.2411C17.852 14.4661 17.9932 14.633 18.1608 14.7049C18.3283 14.7766 18.5083 14.7477 18.6613 14.6243C18.8143 14.5008 18.9278 14.293 18.9766 14.0466C19.0012 13.9249 19.0093 13.7972 19.0003 13.6708C18.9914 13.5444 18.9655 13.4219 18.9242 13.3103C18.883 13.1987 18.8271 13.1003 18.7598 13.0205C18.6926 12.9408 18.6154 12.8813 18.5325 12.8457C18.3644 12.7734 18.1837 12.8023 18.0301 12.9259C17.8766 13.0495 17.7626 13.2577 17.7133 13.5048ZM20.4383 23.4029C20.4182 23.5068 20.4265 23.6181 20.4614 23.7132C20.4965 23.8082 20.5553 23.8794 20.6254 23.9113C20.6606 23.9269 20.6975 23.932 20.734 23.9263C20.7705 23.9207 20.8058 23.9045 20.838 23.8785C20.8702 23.8526 20.8985 23.8175 20.9214 23.7753C20.9442 23.7331 20.9612 23.6846 20.9712 23.6327C20.9818 23.5811 20.9853 23.527 20.9816 23.4734C20.9778 23.4198 20.9669 23.3678 20.9494 23.3204C20.932 23.2731 20.9083 23.2314 20.8797 23.1976C20.8513 23.1637 20.8184 23.1386 20.7833 23.1236C20.7123 23.0943 20.6365 23.1072 20.572 23.1594C20.5074 23.2116 20.4595 23.2991 20.4383 23.4029ZM14.007 29.7948C14.0352 29.6542 14.0445 29.5069 14.034 29.3612C14.0235 29.2155 13.9935 29.0742 13.9459 28.9455C13.8981 28.8168 13.8336 28.7033 13.756 28.6114C13.6785 28.5195 13.5893 28.451 13.4937 28.41C13.3984 28.3687 13.2986 28.3555 13.1999 28.3712C13.1012 28.3867 13.0056 28.4307 12.9184 28.5008C12.8313 28.5708 12.7544 28.6654 12.6922 28.7792C12.6299 28.893 12.5836 29.0237 12.5558 29.1638C12.5275 29.3043 12.5184 29.4515 12.5289 29.5971C12.5394 29.7427 12.5693 29.8839 12.6171 30.0125C12.6647 30.141 12.7292 30.2544 12.8068 30.3462C12.8843 30.4381 12.9734 30.5064 13.0691 30.5475C13.4698 30.7182 13.8929 30.3791 14.007 29.7948ZM9.34396 21.4411C9.37208 21.3016 9.3614 21.1514 9.31422 21.0235C9.26704 20.8956 9.18723 20.8005 9.09238 20.7591C8.9971 20.7194 8.895 20.7363 8.8081 20.8061C8.72112 20.876 8.65629 20.9932 8.62753 21.1326C8.61382 21.2016 8.6096 21.274 8.61494 21.3455C8.62029 21.4169 8.63519 21.4861 8.65882 21.5491C8.68237 21.6121 8.71423 21.6677 8.75241 21.7125C8.79059 21.7574 8.83446 21.7907 8.88143 21.8106C8.92833 21.8314 8.97748 21.8383 9.02621 21.831C9.07487 21.8236 9.12205 21.8021 9.16508 21.7678C9.20811 21.7334 9.24608 21.6869 9.27674 21.6308C9.30747 21.5748 9.33032 21.5103 9.34396 21.4411ZM9.77597 24.1831C9.7932 24.0983 9.79875 24.0094 9.79242 23.9214C9.78609 23.8333 9.76788 23.7481 9.73898 23.6704C9.71008 23.5929 9.67092 23.5245 9.62395 23.4693C9.57691 23.414 9.52291 23.3731 9.46504 23.3489C9.40717 23.3222 9.34628 23.313 9.28595 23.3216C9.22562 23.3302 9.16712 23.3565 9.11382 23.3989C9.06052 23.4415 9.01362 23.4993 8.97572 23.5689C8.9379 23.6386 8.90998 23.7186 8.89353 23.8045C8.85943 23.9766 8.87314 24.1616 8.93178 24.3188C8.99035 24.476 9.08907 24.5926 9.20607 24.6429C9.32308 24.693 9.44887 24.6729 9.55575 24.5866C9.66262 24.5005 9.74187 24.3552 9.77597 24.1831ZM10.7932 26.6546C10.836 26.4344 10.8182 26.1982 10.7434 25.9973C10.6687 25.7964 10.5431 25.6469 10.394 25.5812C10.245 25.5181 10.085 25.5444 9.94908 25.6543C9.81323 25.7643 9.71247 25.9489 9.66895 26.1678C9.64708 26.2761 9.63991 26.3898 9.648 26.5022C9.65601 26.6145 9.67908 26.7234 9.71585 26.8227C9.75262 26.9219 9.80241 27.0094 9.86224 27.0803C9.92215 27.1511 9.99092 27.2039 10.0647 27.2354C10.1384 27.2679 10.2159 27.2787 10.2924 27.267C10.369 27.2554 10.4432 27.2216 10.511 27.1676C10.5787 27.1136 10.6384 27.0405 10.6869 26.9524C10.7353 26.8644 10.7714 26.7632 10.7932 26.6546ZM12.2225 28.5743C12.271 28.3273 12.251 28.0622 12.1669 27.8369C12.0828 27.6116 11.9414 27.4445 11.7737 27.3723C11.6908 27.3363 11.6039 27.3248 11.5179 27.3385C11.432 27.3523 11.3488 27.3909 11.2731 27.4523C11.1974 27.5136 11.1307 27.5964 11.0769 27.6959C11.0231 27.7954 10.9833 27.9096 10.9596 28.0318C10.9352 28.1534 10.9274 28.281 10.9366 28.4071C10.9458 28.5331 10.9718 28.6554 11.0131 28.7667C11.0544 28.878 11.1103 28.9761 11.1775 29.0557C11.2446 29.1351 11.3218 29.1944 11.4045 29.2299C11.5721 29.3014 11.7521 29.2726 11.9054 29.1499C12.0586 29.0271 12.1726 28.8202 12.2225 28.5743ZM19.7985 26.5316C19.8937 26.5732 19.9963 26.5574 20.0837 26.4878C20.1711 26.4182 20.2361 26.3004 20.2645 26.1604C20.2917 26.0204 20.2805 25.8705 20.2332 25.7426C20.186 25.6149 20.1064 25.5195 20.0118 25.4771C19.9167 25.4372 19.8148 25.4538 19.728 25.5235C19.6412 25.5932 19.5766 25.7103 19.5481 25.8495C19.5202 25.9888 19.5309 26.1387 19.5778 26.2664C19.6247 26.3941 19.704 26.4894 19.7985 26.5316ZM18.4903 28.6548C18.6068 28.7053 18.7324 28.6858 18.8392 28.6004C18.946 28.5148 19.0253 28.3705 19.0598 28.1991C19.0775 28.1138 19.0835 28.0243 19.0775 27.9355C19.0716 27.8468 19.0537 27.7607 19.0249 27.6822C18.9962 27.6037 18.9572 27.5344 18.9102 27.4783C18.8631 27.4221 18.8089 27.3802 18.7508 27.355C18.6332 27.3043 18.5068 27.324 18.3991 27.4099C18.2913 27.4958 18.211 27.6409 18.1758 27.8135C18.1429 27.9864 18.1574 28.1713 18.2162 28.3287C18.275 28.4859 18.3734 28.603 18.4903 28.6548ZM16.8109 30.1498C16.8848 30.1822 16.9623 30.1927 17.0389 30.1809C17.1156 30.169 17.1899 30.1349 17.2575 30.0806C17.3252 30.0262 17.3849 29.9528 17.4331 29.8644C17.4813 29.7759 17.5173 29.6744 17.5386 29.5655C17.5602 29.4572 17.567 29.3437 17.5587 29.2316C17.5504 29.1194 17.5272 29.0108 17.4903 28.9118C17.4535 28.8129 17.4037 28.7256 17.3439 28.655C17.2841 28.5843 17.2154 28.5317 17.1418 28.5001C17.0682 28.4682 16.991 28.4579 16.9146 28.4698C16.8382 28.4817 16.7643 28.5157 16.6968 28.5696C16.6294 28.6236 16.5698 28.6967 16.5216 28.7846C16.4733 28.8724 16.4373 28.9733 16.4156 29.0816C16.3939 29.19 16.3869 29.3036 16.395 29.4158C16.4031 29.5281 16.4261 29.637 16.4628 29.7362C16.4995 29.8354 16.5492 29.9229 16.6089 29.994C16.6686 30.0649 16.7373 30.1179 16.8109 30.1498ZM14.9527 30.7595C15.0352 30.7966 15.1221 30.8091 15.208 30.7964C15.2939 30.7836 15.3773 30.746 15.4532 30.6854C15.5291 30.6249 15.5961 30.5428 15.6503 30.4439C15.7045 30.3449 15.7447 30.2311 15.7687 30.1091C15.793 29.987 15.8008 29.8591 15.7915 29.7326C15.7823 29.6061 15.7562 29.4836 15.7147 29.3719C15.6309 29.1466 15.4898 28.9793 15.3222 28.9069C15.1546 28.8346 14.9744 28.8633 14.8211 28.9864C14.6679 29.1095 14.5542 29.3172 14.505 29.5637C14.457 29.8097 14.4772 30.0735 14.561 30.2975C14.6449 30.5217 14.7858 30.6877 14.9527 30.7595Z"
      fill="#717375"
    />
<path
      d="M21.1379 13.4824C20.9609 13.757 20.717 13.9171 20.4598 13.9275C20.2026 13.9378 19.953 13.7976 19.766 13.5376C19.6731 13.4091 19.5983 13.2549 19.546 13.0838C19.4938 12.9127 19.465 12.7281 19.4614 12.5406C19.4579 12.353 19.4796 12.1663 19.5253 11.9912C19.571 11.8161 19.6398 11.656 19.7278 11.5201C19.8149 11.3835 19.9195 11.2734 20.0356 11.1962C20.1517 11.1191 20.2771 11.0765 20.4044 11.0707C20.5317 11.0649 20.6585 11.0962 20.7777 11.1626C20.8968 11.2291 21.0058 11.3296 21.0985 11.458C21.2859 11.7191 21.3954 12.0787 21.4028 12.4583C21.4102 12.8378 21.3149 13.2061 21.1379 13.4824ZM11.4639 10.237C11.3713 10.1095 11.2481 10.0409 11.1212 10.0463C10.9944 10.0517 10.8741 10.1306 10.7866 10.2658C10.7 10.4017 10.6534 10.5825 10.6571 10.7687C10.6607 10.9549 10.7143 11.1315 10.8061 11.2599C10.8987 11.3875 11.0221 11.4561 11.149 11.4505C11.2759 11.4449 11.3961 11.3656 11.4835 11.23C11.57 11.0943 11.6166 10.9136 11.6129 10.7276C11.6093 10.5415 11.5557 10.3652 11.4639 10.237ZM13.8893 8.87983C13.7751 8.72269 13.6231 8.63843 13.4668 8.64542C13.3104 8.65242 13.1622 8.75011 13.0546 8.91718C13.0013 9.00043 12.9596 9.09831 12.9321 9.20524C12.9045 9.31215 12.8916 9.42602 12.8939 9.54031C12.8963 9.65461 12.9139 9.7671 12.9459 9.87137C12.9778 9.97563 13.0234 10.0696 13.08 10.148C13.1945 10.3049 13.3466 10.3889 13.503 10.3816C13.6595 10.3743 13.8076 10.2762 13.9151 10.1089C14.0219 9.94042 14.079 9.71674 14.0742 9.48656C14.0694 9.25637 14.003 9.03831 13.8893 8.87983ZM16.491 8.59999C16.3459 8.39987 16.153 8.29232 15.9541 8.30083C15.7553 8.30933 15.567 8.43321 15.43 8.64539C15.3004 8.86036 15.2328 9.14112 15.2415 9.42816C15.2503 9.7152 15.3346 9.98597 15.4767 10.1831C15.6188 10.3803 15.8075 10.4883 16.0028 10.4843C16.1981 10.4803 16.3847 10.3646 16.523 10.1618C16.6591 9.94812 16.7322 9.66385 16.7262 9.37116C16.7202 9.07845 16.6357 8.80118 16.491 8.59999ZM18.9524 9.52683C18.8718 9.41456 18.777 9.32679 18.6733 9.26857C18.5696 9.21034 18.4592 9.18281 18.3482 9.18757C18.2373 9.19232 18.1281 9.22925 18.027 9.29625C17.9258 9.36324 17.8346 9.45899 17.7586 9.57797C17.6824 9.69647 17.6229 9.83588 17.5834 9.98823C17.5438 10.1406 17.5251 10.3029 17.5282 10.4659C17.5313 10.6289 17.5563 10.7895 17.6016 10.9383C17.6468 11.0871 17.7116 11.2214 17.7922 11.3334C17.9555 11.559 18.1728 11.6802 18.3966 11.6706C18.6205 11.6611 18.8327 11.5214 18.9868 11.2822C19.14 11.0424 19.2225 10.7232 19.2161 10.3941C19.2096 10.0651 19.1148 9.75321 18.9524 9.52683ZM9.40759 12.6136C9.33854 12.5188 9.24686 12.4679 9.15242 12.472C9.05799 12.4761 8.96848 12.5348 8.9033 12.6355C8.87103 12.6853 8.84571 12.7442 8.82891 12.8085C8.8121 12.8728 8.80409 12.9414 8.80535 13.0103C8.80669 13.0792 8.81717 13.1469 8.83629 13.2098C8.85549 13.2727 8.88291 13.3295 8.91701 13.3766C8.95083 13.4244 8.99084 13.4617 9.03458 13.4865C9.07831 13.5113 9.125 13.5231 9.1719 13.5212C9.21873 13.5192 9.26493 13.5036 9.30768 13.4753C9.35043 13.447 9.38889 13.4064 9.42088 13.3559C9.48599 13.2549 9.52108 13.1199 9.51862 12.9808C9.51616 12.8416 9.47622 12.7095 9.40759 12.6136ZM21.829 25.564C21.7419 25.7001 21.695 25.8815 21.6986 26.0684C21.7024 26.2553 21.7562 26.4324 21.8485 26.561C21.942 26.6832 22.0643 26.7471 22.1892 26.739C22.3142 26.7308 22.4321 26.6513 22.5179 26.5172C22.6036 26.3832 22.6504 26.2052 22.6483 26.0212C22.6462 25.8372 22.5954 25.6616 22.5067 25.5318C22.4138 25.4044 22.2903 25.3363 22.1633 25.3423C22.0363 25.3483 21.9162 25.428 21.829 25.564ZM22.4423 21.9279C22.3359 22.0963 22.2791 22.3197 22.2841 22.5495C22.2891 22.7792 22.3557 22.9967 22.4693 23.1546C22.5257 23.2333 22.592 23.2947 22.6647 23.3353C22.7372 23.3761 22.8146 23.3952 22.8922 23.3918C22.9699 23.3884 23.0463 23.3624 23.1171 23.3155C23.1879 23.2684 23.2517 23.2013 23.3048 23.1179C23.3582 23.035 23.3999 22.9373 23.4276 22.8306C23.4552 22.7239 23.4681 22.6101 23.4657 22.4959C23.4633 22.3817 23.4455 22.2694 23.4134 22.1655C23.3813 22.0614 23.3355 21.9678 23.2787 21.89C23.164 21.7326 23.0118 21.6483 22.8551 21.6555C22.6985 21.6625 22.5501 21.7604 22.4423 21.9279ZM22.254 18.0988C22.1863 18.2041 22.1334 18.3283 22.0984 18.4638C22.0634 18.5993 22.047 18.7437 22.05 18.8886C22.053 19.0336 22.0754 19.1763 22.116 19.3085C22.1566 19.4405 22.2145 19.5597 22.2864 19.6588C22.3581 19.7583 22.4425 19.836 22.5346 19.8874C22.6268 19.939 22.7249 19.9632 22.8234 19.9587C22.9219 19.9543 23.0189 19.9213 23.1088 19.8616C23.1986 19.802 23.2796 19.7169 23.347 19.6111C23.4792 19.3969 23.5489 19.1148 23.5411 18.8258C23.5333 18.5367 23.4487 18.2636 23.3054 18.0653C23.1621 17.8671 22.9717 17.7595 22.7751 17.7658C22.5785 17.772 22.3913 17.8916 22.254 18.0988ZM21.3454 14.55C21.2308 14.7289 21.155 14.9539 21.1273 15.1963C21.0998 15.4388 21.1216 15.6878 21.1903 15.9119C21.259 16.136 21.3712 16.3252 21.513 16.4553C21.6547 16.5855 21.8195 16.651 21.9866 16.6433C22.1536 16.6357 22.3153 16.5553 22.4513 16.4124C22.5873 16.2695 22.6913 16.0704 22.7504 15.8405C22.8094 15.6106 22.8208 15.36 22.7829 15.1205C22.7451 14.8811 22.6599 14.6636 22.538 14.4954C22.2012 14.0254 21.6661 14.0524 21.3454 14.55ZM20.5106 28.718C20.4461 28.8197 20.4116 28.9549 20.4145 29.0939C20.4174 29.2329 20.4576 29.3647 20.5262 29.4604C20.5604 29.5074 20.6005 29.544 20.6444 29.5682C20.6882 29.5923 20.7348 29.6034 20.7816 29.6009C20.8284 29.5984 20.8743 29.5823 20.9169 29.5536C20.9594 29.5248 20.9976 29.484 21.0294 29.4334C21.0618 29.3839 21.0872 29.3255 21.104 29.2615C21.1209 29.1974 21.1289 29.129 21.1275 29.0603C21.126 28.9916 21.1152 28.9241 21.0958 28.8616C21.0763 28.7993 21.0486 28.7431 21.0141 28.6968C20.9803 28.649 20.9404 28.6115 20.8966 28.5867C20.8529 28.5619 20.8062 28.5501 20.7594 28.5521C20.7125 28.554 20.6663 28.5697 20.6236 28.5982C20.5809 28.6267 20.5425 28.6674 20.5106 28.718ZM10.2073 30.5533C10.3812 30.2768 10.474 29.9106 10.4653 29.5341C10.4566 29.1576 10.3473 28.8014 10.161 28.543C9.97468 28.2845 9.72661 28.1447 9.47059 28.1539C9.21458 28.1631 8.97143 28.3206 8.79396 28.5922C8.62605 28.8701 8.53844 29.2332 8.54955 29.6047C8.56073 29.9761 8.66979 30.3265 8.85359 30.5815C9.03746 30.8367 9.28159 30.9764 9.5343 30.9712C9.78701 30.9659 10.0284 30.8159 10.2073 30.5533ZM8.10566 16.5089C8.14883 16.4415 8.18251 16.3624 8.20494 16.2759C8.2273 16.1894 8.23785 16.0973 8.23602 16.0047C8.23419 15.9123 8.21999 15.8213 8.19425 15.7368C8.16852 15.6524 8.13167 15.5762 8.0859 15.5127C8.04013 15.4492 7.98634 15.3997 7.92755 15.3667C7.86877 15.3338 7.80612 15.3183 7.74326 15.321C7.6804 15.3237 7.61845 15.3446 7.56108 15.3824C7.5037 15.4204 7.45195 15.4745 7.40878 15.5418C7.22519 15.8233 7.23609 16.2674 7.43022 16.5364C7.62049 16.8007 7.92284 16.7898 8.10566 16.5089ZM7.48999 20.1466C7.59701 19.9783 7.65445 19.7545 7.64988 19.5242C7.64538 19.2939 7.57922 19.0754 7.4658 18.9165C7.35098 18.7651 7.20058 18.6858 7.04659 18.6952C6.89261 18.7046 6.74721 18.8022 6.64136 18.9669C6.5355 19.1317 6.47756 19.3508 6.47986 19.5774C6.48215 19.8041 6.54451 20.0205 6.65366 20.1806C6.76789 20.3384 6.91991 20.4234 7.07661 20.4171C7.23327 20.4107 7.38185 20.3135 7.48999 20.1466ZM7.67949 23.9741C7.81625 23.7603 7.8898 23.4755 7.88382 23.1822C7.87791 22.8887 7.79304 22.6108 7.64784 22.4094C7.50258 22.2089 7.30914 22.1013 7.10994 22.1103C6.91083 22.1194 6.72227 22.2443 6.5857 22.4576C6.44967 22.6714 6.37676 22.9557 6.38291 23.2482C6.38906 23.5408 6.47378 23.8179 6.6185 24.0189C6.92163 24.4401 7.39584 24.4176 7.67949 23.9741ZM8.58654 27.524C8.73989 27.2841 8.82237 26.9645 8.81583 26.6354C8.80936 26.3062 8.71437 25.9943 8.55173 25.768C8.47122 25.6562 8.37644 25.5688 8.27294 25.511C8.16936 25.453 8.05911 25.4258 7.94844 25.4309C7.83769 25.4359 7.72878 25.473 7.62788 25.5401C7.5269 25.6072 7.43599 25.703 7.36033 25.822C7.2839 25.9402 7.22413 26.0795 7.1844 26.2317C7.14468 26.3841 7.12569 26.5464 7.12872 26.7095C7.13167 26.8726 7.15649 27.0331 7.2017 27.182C7.24698 27.331 7.31174 27.4653 7.39232 27.5774C7.55608 27.8016 7.77328 27.9218 7.99688 27.9118C8.22048 27.9018 8.43241 27.7624 8.58654 27.524ZM18.4695 31.8358C18.5152 31.8993 18.569 31.9491 18.6278 31.982C18.6867 32.0148 18.7492 32.0303 18.8122 32.0275C18.875 32.0247 18.9369 32.0036 18.9942 31.9654C19.0515 31.9273 19.1031 31.8729 19.1461 31.8053C19.1893 31.7383 19.2229 31.6593 19.2452 31.573C19.2676 31.4867 19.2781 31.3948 19.2761 31.3025C19.2742 31.2103 19.2599 31.1195 19.234 31.0354C19.2082 30.9512 19.1713 30.8755 19.1254 30.8124C19.0798 30.7489 19.0262 30.6991 18.9676 30.6661C18.9089 30.6333 18.8464 30.6176 18.7837 30.6203C18.7209 30.6229 18.6591 30.6438 18.6019 30.6818C18.5446 30.7196 18.493 30.7738 18.45 30.8411C18.363 30.9768 18.3162 31.1579 18.3198 31.3444C18.3235 31.5309 18.3773 31.7077 18.4695 31.8358ZM16.0441 33.1912C16.2824 33.5217 16.6558 33.4999 16.8797 33.1528C16.933 33.07 16.9746 32.9727 17.0023 32.8662C17.03 32.7596 17.0431 32.6462 17.0408 32.5323C17.0386 32.4183 17.021 32.3062 16.9892 32.2023C16.9574 32.0983 16.9119 32.0046 16.8555 31.9265C16.7409 31.7686 16.5883 31.6838 16.4313 31.6909C16.2744 31.698 16.1257 31.7964 16.018 31.9645C15.9114 32.1327 15.8543 32.356 15.8592 32.5858C15.8641 32.8156 15.9306 33.0332 16.0441 33.1912ZM13.4409 33.4676C13.7456 33.89 14.2175 33.8693 14.5015 33.4257C14.5693 33.3205 14.6224 33.1967 14.6577 33.0612C14.6929 32.9258 14.7096 32.7816 14.7069 32.6367C14.7041 32.4917 14.6819 32.3489 14.6416 32.2166C14.6013 32.0844 14.5435 31.9651 14.4718 31.8657C14.3266 31.6648 14.1333 31.5567 13.9341 31.5648C13.7348 31.573 13.5459 31.6969 13.4085 31.9094C13.341 32.0146 13.2882 32.1387 13.2533 32.274C13.2183 32.4094 13.2019 32.5536 13.2049 32.6984C13.2079 32.8431 13.2303 32.9856 13.2708 33.1176C13.3113 33.2496 13.3691 33.3685 13.4409 33.4676ZM10.9846 32.546C11.065 32.658 11.1597 32.7454 11.2633 32.8034C11.3667 32.8614 11.4769 32.8887 11.5876 32.884C11.6983 32.8792 11.8073 32.8423 11.9082 32.7754C12.0092 32.7085 12.1002 32.613 12.1761 32.4942C12.2519 32.3755 12.3112 32.236 12.3504 32.0835C12.3897 31.9312 12.4081 31.7689 12.4047 31.606C12.4013 31.4431 12.3761 31.2828 12.3305 31.1342C12.2851 30.9856 12.22 30.8517 12.1393 30.74C12.0586 30.6284 11.9637 30.5412 11.8601 30.4835C11.7565 30.4258 11.6462 30.3987 11.5354 30.4037C11.4247 30.4087 11.3157 30.4457 11.2147 30.5128C11.1137 30.5797 11.0226 30.6752 10.9467 30.794C10.8708 30.9126 10.8116 31.052 10.7725 31.2044C10.7333 31.3566 10.715 31.5188 10.7185 31.6816C10.722 31.8443 10.7474 32.0044 10.793 32.1528C10.8387 32.3011 10.9038 32.4348 10.9846 32.546Z"
      fill="#717375"
    />
<path
      d="M25.0802 16.5054C24.7936 16.6866 24.4698 16.6931 24.1799 16.5232C23.8901 16.3534 23.6579 16.0213 23.5345 15.5998C23.4733 15.3912 23.4406 15.1668 23.4384 14.9394C23.4362 14.7122 23.4645 14.4865 23.5217 14.2753C23.5788 14.0642 23.6638 13.8717 23.7716 13.7089C23.8795 13.5461 24.0081 13.4162 24.1501 13.3267C24.4353 13.1566 24.7545 13.1577 25.0391 13.3296C25.3237 13.5015 25.5513 13.8306 25.673 14.2464C25.7946 14.6621 25.8007 15.1315 25.6899 15.5538C25.5791 15.976 25.3602 16.3176 25.0802 16.5054ZM16.8226 5.49544C16.8062 5.37236 16.7735 5.25526 16.7262 5.15089C16.679 5.04651 16.6181 4.95693 16.5472 4.88728C16.4763 4.81765 16.3967 4.76932 16.3131 4.7451C16.2294 4.72088 16.1433 4.72124 16.0597 4.74616C15.976 4.77012 15.8963 4.81824 15.8253 4.88773C15.7543 4.95722 15.6933 5.04671 15.6459 5.15104C15.5985 5.25537 15.5656 5.37247 15.5492 5.49559C15.5327 5.6187 15.533 5.7454 15.5499 5.86836C15.5885 6.10933 15.6892 6.31886 15.8308 6.45276C15.9723 6.58666 16.1437 6.63447 16.3088 6.5861C16.4738 6.53773 16.6196 6.39698 16.7155 6.19351C16.8114 5.99004 16.8498 5.73976 16.8226 5.49544ZM19.6083 6.38665C19.5829 6.2394 19.5381 6.10097 19.4763 5.97929C19.4145 5.85761 19.3369 5.75509 19.2481 5.67762C19.1592 5.60015 19.0609 5.54926 18.9587 5.52785C18.8565 5.50645 18.7523 5.51496 18.6523 5.5529C18.5521 5.58997 18.4579 5.65582 18.3751 5.74667C18.2923 5.83751 18.2225 5.95156 18.1697 6.08225C18.117 6.21292 18.0823 6.35765 18.0677 6.50812C18.0531 6.65858 18.059 6.8118 18.0848 6.95896C18.1104 7.10609 18.1554 7.2444 18.2172 7.36596C18.2791 7.48752 18.3567 7.58996 18.4455 7.66744C18.5342 7.74491 18.6326 7.7959 18.7347 7.8175C18.8369 7.83908 18.941 7.83086 19.041 7.79327C19.1411 7.7557 19.2351 7.6895 19.3177 7.59849C19.4004 7.50746 19.47 7.39338 19.5227 7.26276C19.5753 7.13214 19.61 6.98754 19.6247 6.83722C19.6394 6.6869 19.6338 6.53379 19.6083 6.38665ZM22.1767 8.20986C22.1386 8.02898 22.0766 7.86094 21.9943 7.71539C21.912 7.56986 21.8108 7.44968 21.6969 7.3618C21.5828 7.27391 21.4581 7.22003 21.3299 7.20325C21.2016 7.18649 21.0725 7.20715 20.9497 7.26407C20.8267 7.32013 20.7124 7.41134 20.6134 7.5325C20.5144 7.65364 20.4327 7.80235 20.3729 7.97007C20.3129 8.1378 20.2762 8.32125 20.2647 8.50991C20.2531 8.69856 20.267 8.88871 20.3056 9.06947C20.3883 9.42501 20.562 9.71905 20.7899 9.88897C21.0177 10.0589 21.2817 10.0913 21.5255 9.97925C21.7694 9.86723 21.9739 9.61963 22.0955 9.28916C22.2171 8.95868 22.2462 8.57145 22.1767 8.20986ZM24.2251 10.8956C24.1761 10.6997 24.1011 10.52 24.0047 10.3668C23.9083 10.2136 23.7923 10.0898 23.6633 10.0027C23.5344 9.9155 23.395 9.86662 23.2532 9.85882C23.1114 9.85102 22.9698 9.88447 22.8369 9.95723C22.7035 10.0291 22.5811 10.1391 22.4767 10.2807C22.3724 10.4224 22.2881 10.5931 22.2287 10.7828C22.1692 10.9726 22.136 11.1778 22.1306 11.3866C22.1254 11.5954 22.1481 11.8036 22.1978 11.9994C22.2973 12.3949 22.4995 12.7159 22.7599 12.8921C23.0205 13.0682 23.3178 13.085 23.5866 12.9386C23.8555 12.7921 24.0738 12.4947 24.1936 12.1116C24.3133 11.7284 24.3246 11.291 24.2251 10.8956ZM11.2389 6.56937C11.2144 6.48548 11.1788 6.40954 11.1342 6.34592C11.0896 6.28229 11.037 6.23223 10.9793 6.19859C10.9215 6.16497 10.8599 6.14843 10.7978 6.14994C10.7357 6.15144 10.6744 6.17096 10.6174 6.20737C10.5025 6.28029 10.412 6.41736 10.3658 6.58843C10.3196 6.75949 10.3215 6.95055 10.3711 7.11956C10.4207 7.28856 10.5139 7.42167 10.6302 7.48962C10.7465 7.55756 10.8764 7.55477 10.9913 7.48184C11.2307 7.33015 11.3424 6.92103 11.2389 6.56937ZM23.0212 29.492C22.885 29.6411 22.7938 29.8626 22.7673 30.1092C22.7407 30.3559 22.7808 30.608 22.8791 30.8117C22.9773 31.0153 23.1258 31.1543 23.2929 31.199C23.4599 31.2436 23.6322 31.1902 23.7728 31.0503C23.8424 30.9778 23.9016 30.8856 23.9468 30.7794C23.9922 30.6731 24.0229 30.5547 24.0371 30.4309C24.0513 30.3072 24.0487 30.1806 24.0295 30.0583C24.0104 29.936 23.975 29.8205 23.9255 29.7184C23.8762 29.6161 23.8138 29.5292 23.7417 29.4624C23.6696 29.3957 23.5892 29.3506 23.5053 29.3296C23.4213 29.3085 23.3353 29.3121 23.2523 29.34C23.1692 29.3678 23.0907 29.4195 23.0212 29.492ZM24.3118 25.7675C24.2225 25.8471 24.1448 25.9522 24.0833 26.0765C24.0219 26.2008 23.9779 26.3419 23.9539 26.4916C23.9299 26.6412 23.9265 26.7964 23.9438 26.948C23.961 27.0996 23.9987 27.2446 24.0545 27.3745C24.1103 27.5045 24.1832 27.6169 24.2689 27.7049C24.3545 27.7929 24.4513 27.855 24.5534 27.8874C24.6556 27.9198 24.7611 27.922 24.8639 27.8937C24.9666 27.8655 25.0644 27.8074 25.1517 27.7228C25.3237 27.5561 25.4445 27.2969 25.4879 27.0007C25.5314 26.7045 25.494 26.3951 25.3841 26.139C25.274 25.8828 25.1001 25.7004 24.8996 25.6309C24.6991 25.5614 24.4881 25.6105 24.3118 25.7675ZM24.9225 21.5762C24.6958 21.7639 24.529 22.0762 24.4589 22.4446C24.3886 22.8129 24.4206 23.2072 24.5478 23.5408C24.6108 23.7058 24.6954 23.8508 24.7966 23.9677C24.8978 24.0846 25.0136 24.1708 25.1376 24.2217C25.2615 24.2726 25.391 24.287 25.5187 24.2641C25.6465 24.2413 25.7698 24.1816 25.8818 24.0884C25.9942 23.9962 26.0932 23.8723 26.1729 23.7237C26.2527 23.5752 26.3117 23.4048 26.3465 23.2226C26.3814 23.0404 26.3914 22.8497 26.3761 22.6618C26.3607 22.4738 26.3202 22.2922 26.2569 22.1273C26.1939 21.9621 26.1095 21.8167 26.0083 21.6996C25.9072 21.5824 25.7913 21.4958 25.6674 21.4447C25.5434 21.3935 25.4138 21.3787 25.286 21.4013C25.1581 21.4239 25.0346 21.4833 24.9225 21.5762ZM24.8853 17.3736C24.629 17.5609 24.4336 17.8901 24.3421 18.2891C24.2506 18.6879 24.2704 19.1239 24.397 19.5013C24.4598 19.689 24.5471 19.8564 24.654 19.9941C24.7609 20.1318 24.8852 20.2371 25.0198 20.304C25.1545 20.3708 25.2968 20.3978 25.4386 20.3834C25.5803 20.369 25.7188 20.3136 25.8459 20.2202C25.9732 20.128 26.0869 19.9998 26.1804 19.8428C26.274 19.6858 26.3455 19.5031 26.3908 19.3053C26.4362 19.1076 26.4545 18.8986 26.4448 18.6903C26.4351 18.4821 26.3975 18.2787 26.3341 18.0919C26.2066 17.7143 25.9824 17.4266 25.7107 17.2919C25.4391 17.1572 25.1423 17.1866 24.8853 17.3736ZM18.9403 34.5939C18.8833 34.63 18.8319 34.6823 18.7886 34.7476C18.7454 34.813 18.7115 34.8903 18.6886 34.9751C18.6656 35.0598 18.6544 35.1503 18.6552 35.2415C18.6561 35.3326 18.6692 35.4226 18.6938 35.5064C18.7433 35.6755 18.8366 35.8086 18.9529 35.8767C19.0105 35.9103 19.072 35.9269 19.134 35.9256C19.196 35.9243 19.2572 35.905 19.3141 35.8689C19.5536 35.7173 19.6653 35.3087 19.5621 34.9553C19.5122 34.7861 19.4187 34.6531 19.302 34.5853C19.1855 34.5175 19.0553 34.5206 18.9403 34.5939ZM5.78257 28.7473C6.06873 28.5649 6.29395 28.2229 6.40873 27.7962C6.52351 27.3697 6.51846 26.8936 6.39469 26.4724C6.3338 26.264 6.24554 26.0753 6.13499 25.9171C6.02443 25.7589 5.89375 25.6343 5.75042 25.5506C5.60709 25.4667 5.45393 25.4253 5.29972 25.4287C5.1455 25.4321 4.99324 25.4802 4.85169 25.5703C4.70965 25.6599 4.58104 25.7898 4.4732 25.9526C4.36537 26.1154 4.28044 26.3079 4.22328 26.5191C4.16612 26.7302 4.13786 26.956 4.14012 27.1832C4.14237 27.4104 4.17511 27.6349 4.23644 27.8435C4.36018 28.2646 4.5925 28.5964 4.88238 28.7659C5.17227 28.9354 5.49602 28.9286 5.78257 28.7473ZM6.90993 12.5826C6.97943 12.5103 7.03857 12.4186 7.08393 12.3127C7.12935 12.2066 7.16008 12.0886 7.17449 11.9652C7.18883 11.8417 7.18651 11.7155 7.16767 11.5933C7.14883 11.4712 7.11381 11.3557 7.06459 11.2535C7.01569 11.1508 6.95342 11.0633 6.88139 10.9962C6.80937 10.9291 6.72902 10.8836 6.64498 10.8624C6.56094 10.8412 6.47487 10.8447 6.39175 10.8726C6.30864 10.9006 6.2301 10.9526 6.1607 11.0254C6.0908 11.0976 6.03131 11.1894 5.98566 11.2955C5.94002 11.4018 5.9091 11.5202 5.89473 11.644C5.88034 11.7678 5.88277 11.8946 5.90187 12.0171C5.92097 12.1395 5.95636 12.2551 6.006 12.3573C6.10573 12.5633 6.25688 12.7026 6.42632 12.7448C6.59576 12.787 6.76968 12.7286 6.90993 12.5826ZM5.62045 16.3065C5.70789 16.2252 5.78357 16.1194 5.84316 15.995C5.90276 15.8707 5.94511 15.7302 5.96779 15.5817C5.99046 15.4333 5.99302 15.2797 5.97531 15.1298C5.95761 14.9799 5.91998 14.8365 5.8646 14.7081C5.75297 14.4491 5.57596 14.2659 5.37253 14.1989C5.16909 14.1319 4.95588 14.1865 4.77981 14.3506C4.60374 14.5149 4.47922 14.7752 4.43366 15.0745C4.38809 15.3737 4.42521 15.6873 4.53684 15.9463C4.64805 16.2055 4.8247 16.389 5.02792 16.4566C5.23114 16.5242 5.44427 16.4702 5.62045 16.3065ZM5.00794 20.4983C5.12397 20.4087 5.22661 20.2857 5.30978 20.1368C5.39294 19.9878 5.45496 19.8158 5.49215 19.6309C5.52933 19.4461 5.54094 19.2522 5.52628 19.0606C5.51162 18.8691 5.47099 18.6837 5.4068 18.5157C5.34261 18.3476 5.25615 18.2002 5.15254 18.0822C5.04894 17.9641 4.93029 17.8778 4.80362 17.8284C4.67694 17.7789 4.54482 17.7674 4.41506 17.7944C4.2853 17.8214 4.16054 17.8864 4.04815 17.9856C3.82254 18.1735 3.65676 18.4853 3.58715 18.8526C3.51754 19.22 3.54976 19.6131 3.67676 19.9455C3.80376 20.278 4.01518 20.5229 4.2647 20.6265C4.51422 20.7301 4.78148 20.6841 5.00794 20.4983ZM5.04583 24.7021C5.30265 24.5148 5.49838 24.1851 5.58995 23.7856C5.68153 23.386 5.66144 22.9492 5.53412 22.5715C5.47144 22.3838 5.38411 22.2162 5.27719 22.0785C5.17028 21.9406 5.04587 21.8353 4.91116 21.7685C4.77645 21.7018 4.63407 21.6749 4.49226 21.6894C4.35045 21.704 4.21199 21.7596 4.08487 21.8532C3.95768 21.9457 3.84412 22.0741 3.7507 22.2312C3.65727 22.3882 3.5858 22.5709 3.54038 22.7685C3.49496 22.9663 3.47647 23.1752 3.48599 23.3834C3.49549 23.5917 3.53281 23.7952 3.5958 23.9822C3.72331 24.3603 3.94765 24.6485 4.21953 24.7834C4.49141 24.9185 4.78861 24.8892 5.04583 24.7021ZM13.1085 36.5814C13.1252 36.7046 13.1581 36.8217 13.2056 36.9262C13.2531 37.0305 13.314 37.1201 13.385 37.1899C13.456 37.2596 13.5356 37.3081 13.6193 37.3325C13.7031 37.357 13.7893 37.357 13.873 37.3324C14.0418 37.2818 14.1902 37.1349 14.2856 36.9237C14.3809 36.7125 14.4154 36.4542 14.3816 36.2057C14.3473 35.9577 14.2477 35.7399 14.1045 35.5997C13.9613 35.4595 13.7862 35.4084 13.6175 35.4576C13.4488 35.5076 13.3005 35.654 13.205 35.8647C13.1096 36.0753 13.0749 36.3332 13.1085 36.5814ZM10.3245 35.6879C10.3497 35.8352 10.3945 35.9738 10.4563 36.0955C10.518 36.2173 10.5955 36.3199 10.6843 36.3974C10.773 36.475 10.8714 36.5261 10.9736 36.5476C11.0758 36.5691 11.1799 36.5606 11.2799 36.5229C11.3799 36.4852 11.4739 36.419 11.5565 36.3281C11.6391 36.2371 11.7087 36.123 11.7614 35.9925C11.8139 35.862 11.8486 35.7174 11.8632 35.5671C11.8779 35.4169 11.8723 35.2638 11.8468 35.1168C11.8212 34.9697 11.7762 34.8315 11.7144 34.71C11.6525 34.5885 11.575 34.4862 11.4862 34.4087C11.3975 34.3313 11.2992 34.2803 11.197 34.2587C11.0949 34.2372 10.9909 34.2455 10.8909 34.283C10.791 34.3206 10.6971 34.3867 10.6145 34.4776C10.532 34.5685 10.4624 34.6825 10.4098 34.8129C10.3573 34.9434 10.3227 35.0878 10.308 35.238C10.2933 35.3881 10.299 35.541 10.3245 35.6879ZM7.75528 33.8641C7.79304 34.0451 7.85485 34.2134 7.93705 34.3591C8.01931 34.5048 8.12035 34.6251 8.23433 34.713C8.34838 34.8009 8.47305 34.8548 8.6013 34.8714C8.72956 34.8881 8.85872 34.8672 8.98149 34.8099C9.10447 34.7542 9.2188 34.6632 9.31787 34.5423C9.41694 34.4214 9.49879 34.2728 9.5587 34.1052C9.61868 33.9377 9.65552 33.7543 9.66712 33.5657C9.67872 33.3771 9.66487 33.187 9.62641 33.0063C9.54857 32.6412 9.37546 32.3365 9.14504 32.1591C8.91462 31.9816 8.64574 31.946 8.39746 32.0599C8.27462 32.116 8.1605 32.2072 8.06164 32.3283C7.96285 32.4496 7.88122 32.5982 7.82159 32.7658C7.76189 32.9334 7.72533 33.1168 7.71394 33.3052C7.70255 33.4938 7.71661 33.6837 7.75528 33.8641ZM5.706 31.1768C5.75486 31.3729 5.82961 31.5529 5.92595 31.7064C6.02229 31.8599 6.13831 31.9838 6.26735 32.0711C6.39639 32.1583 6.53588 32.2072 6.67781 32.2149C6.81973 32.2225 6.96128 32.1888 7.09433 32.1156C7.35745 31.9635 7.56958 31.6658 7.68518 31.2862C7.80085 30.9067 7.81069 30.4756 7.71267 30.0855C7.61466 29.6954 7.41665 29.3773 7.16106 29.1995C6.90543 29.0217 6.61263 28.9985 6.34547 29.1346C6.07678 29.281 5.85855 29.5783 5.73867 29.9612C5.61879 30.344 5.60704 30.7812 5.706 31.1768ZM21.1677 32.5782C21.0671 32.7032 21.0035 32.881 20.9904 33.0736C20.9773 33.2664 21.0157 33.4591 21.0974 33.611C21.1792 33.7629 21.2979 33.862 21.4285 33.8873C21.5591 33.9127 21.6912 33.8624 21.797 33.747C21.8516 33.6874 21.8974 33.6123 21.9319 33.5262C21.9663 33.4401 21.9887 33.3446 21.9975 33.2456C22.0065 33.1466 22.0017 33.0458 21.9837 32.9495C21.9656 32.8531 21.9345 32.7631 21.8923 32.6849C21.8501 32.6065 21.7977 32.5414 21.7381 32.4935C21.6785 32.4455 21.613 32.4157 21.5453 32.4058C21.4778 32.3959 21.4095 32.406 21.3446 32.4356C21.2798 32.4652 21.2196 32.5137 21.1677 32.5782ZM16.414 35.5925C16.2811 35.6221 16.1615 35.7278 16.0814 35.8866C16.0014 36.0455 15.9673 36.2445 15.9867 36.4401C15.9963 36.5369 16.0188 36.6301 16.0529 36.7142C16.087 36.7983 16.1321 36.8716 16.1855 36.9301C16.2389 36.9885 16.2996 37.0309 16.3642 37.0548C16.4287 37.0787 16.4959 37.0836 16.5617 37.0693C16.6277 37.0553 16.6911 37.0224 16.7484 36.9723C16.8058 36.9222 16.8558 36.856 16.8957 36.7774C16.9356 36.6989 16.9645 36.6095 16.9809 36.5144C16.9972 36.4193 17.0007 36.3205 16.991 36.2235C16.9813 36.1262 16.9588 36.0328 16.9245 35.9485C16.8903 35.8641 16.8451 35.7906 16.7915 35.732C16.7379 35.6734 16.677 35.6309 16.6122 35.607C16.5474 35.583 16.4801 35.5782 16.414 35.5925ZM13.9464 5.63507C13.9367 5.53798 13.9141 5.44467 13.8798 5.36048C13.8455 5.27629 13.8003 5.20289 13.7467 5.14448C13.6931 5.08607 13.6322 5.04381 13.5674 5.02013C13.5027 4.99644 13.4354 4.9918 13.3694 5.00645C13.2365 5.03526 13.1167 5.14058 13.0366 5.29926C12.9563 5.45793 12.9223 5.65696 12.9419 5.85256C12.9615 6.04815 13.0331 6.2243 13.141 6.34224C13.2488 6.46018 13.3841 6.51026 13.5171 6.48146C13.6503 6.45289 13.7704 6.34769 13.8509 6.18898C13.9314 6.03027 13.9658 5.83104 13.9464 5.63507ZM8.84705 8.4489C8.76338 8.29394 8.64131 8.19406 8.50764 8.17113C8.37391 8.14819 8.23954 8.20406 8.13378 8.32651C8.05503 8.41817 7.99646 8.54213 7.96559 8.68271C7.93473 8.8233 7.9329 8.9742 7.96032 9.11633C7.98774 9.25845 8.04322 9.38543 8.11965 9.48119C8.19615 9.57696 8.29023 9.63721 8.39001 9.65432C8.48978 9.67144 8.59076 9.64466 8.68012 9.57736C8.76956 9.51006 8.84339 9.40528 8.89233 9.27625C8.94127 9.14721 8.96307 8.99975 8.95505 8.85248C8.94697 8.70521 8.90942 8.56477 8.84705 8.4489Z"
      fill="#717375"
    />
<path
      d="M28.4229 23.2524C28.0234 23.2516 27.6405 23.0175 27.3583 22.6016C27.0762 22.1857 26.9178 21.6219 26.9182 21.0344C26.9178 20.7434 26.9566 20.4552 27.0323 20.1863C27.1079 19.9173 27.2189 19.673 27.3589 19.4674C27.4989 19.2618 27.6651 19.0989 27.8481 18.9881C28.031 18.8773 28.227 18.8207 28.4249 18.8216C28.6227 18.8211 28.8186 18.878 29.0015 18.9892C29.1843 19.1003 29.3505 19.2635 29.4903 19.4692C29.6302 19.675 29.7411 19.9194 29.8166 20.1884C29.8921 20.4574 29.9308 20.7457 29.9304 21.0366C29.9301 21.6245 29.7712 22.1882 29.4885 22.6037C29.2058 23.0192 28.8225 23.2525 28.4229 23.2524ZM22.5095 4.14336C22.5324 3.98642 22.5341 3.82435 22.5143 3.66647C22.4946 3.50858 22.4537 3.358 22.3943 3.22339C22.3348 3.08877 22.2579 2.97277 22.1678 2.88205C22.0778 2.79134 21.9764 2.7277 21.8696 2.6948C21.763 2.66064 21.6527 2.65785 21.5453 2.68658C21.4379 2.71532 21.3355 2.775 21.2438 2.86221C21.1521 2.94941 21.073 3.06241 21.0112 3.19472C20.9493 3.32702 20.9058 3.47601 20.8833 3.63312C20.8373 3.95033 20.8788 4.28142 20.9988 4.55357C21.1187 4.82571 21.3073 5.01661 21.5229 5.08427C21.7386 5.15194 21.9636 5.09082 22.1487 4.91436C22.3337 4.73791 22.4635 4.46057 22.5095 4.14336ZM25.4775 7.2692C25.4984 7.07718 25.4933 6.88097 25.4625 6.69183C25.4318 6.50269 25.376 6.32434 25.2983 6.16699C25.2206 6.00964 25.1226 5.87638 25.0098 5.77485C24.897 5.67331 24.7718 5.60549 24.6411 5.57528C24.3802 5.5233 24.1158 5.62363 23.9045 5.85478C23.6931 6.08595 23.5518 6.42958 23.5105 6.81215C23.4693 7.19471 23.5315 7.58584 23.6838 7.90182C23.8361 8.2178 24.0664 8.43354 24.3256 8.50288C24.5894 8.56341 24.859 8.46754 25.0749 8.23629C25.2908 8.00502 25.4356 7.65725 25.4775 7.2692ZM29.3518 16.0176C29.3615 15.7505 29.3354 15.4833 29.2747 15.2312C29.2142 14.979 29.1203 14.747 28.9987 14.5484C28.877 14.3497 28.7299 14.1882 28.5657 14.0733C28.4015 13.9585 28.2236 13.8924 28.042 13.8789C27.8605 13.8642 27.6786 13.9023 27.5071 13.9912C27.3356 14.0801 27.1777 14.218 27.0425 14.3969C26.9073 14.5758 26.7974 14.7922 26.7193 15.0338C26.6411 15.2754 26.5961 15.5371 26.5869 15.8044C26.5757 16.0728 26.6008 16.3418 26.6606 16.5959C26.7205 16.8501 26.814 17.0842 26.9358 17.285C27.0575 17.4856 27.2051 17.6488 27.3699 17.7652C27.5348 17.8816 27.7136 17.9487 27.8962 17.9627C28.0788 17.9768 28.2615 17.9375 28.4337 17.8472C28.606 17.7568 28.7643 17.6172 28.8996 17.4364C29.035 17.2555 29.1446 17.0371 29.2222 16.7935C29.2999 16.5499 29.3439 16.2863 29.3518 16.0176ZM15.5715 1.2399C15.5715 0.746315 15.2999 0.351562 14.9656 0.351562C14.809 0.359842 14.6608 0.457119 14.5521 0.622917C14.4433 0.788715 14.3826 1.0101 14.3826 1.24047C14.3826 1.47084 14.4433 1.69223 14.5521 1.85803C14.6608 2.02383 14.809 2.1211 14.9656 2.12938C15.2999 2.12938 15.5715 1.73233 15.5715 1.2399ZM21.5239 36.9893C21.417 37.0229 21.3157 37.0869 21.2256 37.1779C21.1355 37.269 21.0586 37.3852 20.9991 37.52C20.8789 37.7923 20.8372 38.1236 20.8831 38.4411C20.929 38.7586 21.0587 39.0363 21.2438 39.2131C21.4289 39.3899 21.6541 39.4513 21.87 39.3837C22.0858 39.3163 22.2746 39.1254 22.3948 38.8531C22.515 38.5809 22.5567 38.2495 22.5108 37.932C22.465 37.6145 22.3352 37.3369 22.1501 37.16C21.965 36.9832 21.7398 36.9219 21.5239 36.9893ZM24.3256 33.5728C24.1939 33.6013 24.0674 33.668 23.9534 33.769C23.8393 33.8698 23.74 34.0031 23.6612 34.1607C23.5824 34.3184 23.5256 34.4975 23.4941 34.6876C23.4626 34.8778 23.457 35.0753 23.4778 35.2687C23.4985 35.462 23.545 35.6475 23.6147 35.8142C23.6844 35.9809 23.7759 36.1256 23.8838 36.2401C23.9918 36.3545 24.1141 36.4363 24.2437 36.4808C24.3733 36.5253 24.5076 36.5316 24.6388 36.4992C24.9006 36.4348 25.1344 36.221 25.2896 35.9042C25.4447 35.5875 25.5087 35.1934 25.4674 34.8078C25.426 34.4221 25.2829 34.0761 25.0691 33.8448C24.8553 33.6135 24.5881 33.5158 24.3256 33.5728ZM26.4893 29.0989C26.1582 29.1502 25.8546 29.3926 25.6451 29.7731C25.4357 30.1537 25.3376 30.641 25.3724 31.1278C25.4073 31.6148 25.5721 32.0614 25.8308 32.3695C26.0895 32.6775 26.4208 32.8219 26.7517 32.7706C26.9158 32.7458 27.0749 32.6735 27.2199 32.5579C27.3649 32.4424 27.493 32.2859 27.5968 32.0975C27.7006 31.9089 27.778 31.6922 27.8247 31.4595C27.8715 31.2268 27.8865 30.9829 27.869 30.7417C27.834 30.2548 27.6691 29.8082 27.4103 29.5002C27.1516 29.1921 26.8203 29.0478 26.4893 29.0989ZM27.8948 24.128C27.5286 24.1575 27.1853 24.3992 26.9401 24.8003C26.695 25.2015 26.5679 25.7292 26.5869 26.2678C26.5961 26.5351 26.641 26.797 26.7192 27.0385C26.7973 27.2801 26.9071 27.4966 27.0423 27.6755C27.1776 27.8544 27.3355 27.9923 27.5071 28.0812C27.6786 28.17 27.8604 28.2082 28.042 28.1934C28.2236 28.1797 28.4014 28.1136 28.5656 27.9987C28.7297 27.8838 28.8768 27.7224 28.9984 27.5237C29.1201 27.325 29.2139 27.093 29.2744 26.8409C29.335 26.5889 29.3612 26.3216 29.3514 26.0547C29.3316 25.5153 29.167 25.0095 28.8939 24.6484C28.6208 24.2871 28.2615 24.1 27.8948 24.128ZM14.9656 39.9446C14.8079 39.9505 14.658 40.0467 14.548 40.2128C14.4379 40.379 14.3762 40.6018 14.3762 40.8338C14.3762 41.0658 14.4379 41.2886 14.548 41.4547C14.658 41.6208 14.8079 41.7171 14.9656 41.723C15.1259 41.723 15.2797 41.6292 15.393 41.4625C15.5063 41.2958 15.5701 41.0696 15.5701 40.8338C15.5701 40.598 15.5063 40.3718 15.393 40.205C15.2797 40.0382 15.1259 39.9446 14.9656 39.9446ZM1.50745 23.2524C1.90675 23.2511 2.28939 23.0169 2.57137 22.601C2.85334 22.1852 3.0116 21.6217 3.01139 21.0344C3.0117 20.7437 2.97302 20.4558 2.89755 20.1872C2.82208 19.9186 2.71132 19.6745 2.57161 19.4689C2.4319 19.2634 2.26599 19.1004 2.08338 18.9893C1.90077 18.8782 1.70506 18.8212 1.50745 18.8216C1.30952 18.8212 1.11348 18.8783 0.930543 18.9895C0.747614 19.1007 0.581381 19.2638 0.441365 19.4696C0.301349 19.6754 0.190296 19.9198 0.114562 20.1888C0.0388271 20.4578 -0.00010268 20.7461 2.03394e-07 21.0373C0.000827132 21.6247 0.159963 22.1878 0.442531 22.6031C0.725099 23.0182 1.10805 23.2518 1.50745 23.2524ZM8.40724 5.08342C8.62296 5.01598 8.81168 4.82524 8.93178 4.55315C9.05194 4.28106 9.09371 3.9499 9.04787 3.63254C9.0253 3.47546 8.98177 3.3265 8.91997 3.19419C8.85816 3.06187 8.77913 2.94884 8.68758 2.86154C8.59596 2.77425 8.49351 2.71444 8.38614 2.68552C8.27877 2.65661 8.16859 2.65918 8.06192 2.69307C7.95519 2.72643 7.854 2.79036 7.76407 2.88124C7.67421 2.97211 7.59736 3.08815 7.53794 3.22272C7.47853 3.35728 7.43768 3.50774 7.41778 3.66551C7.39795 3.82328 7.39935 3.98526 7.42207 4.14222C7.44471 4.29917 7.48816 4.44801 7.54997 4.58026C7.61177 4.7125 7.6906 4.82555 7.78207 4.91294C7.87355 5.00034 7.97586 5.06038 8.08316 5.08963C8.19039 5.11888 8.3005 5.11677 8.40724 5.08342ZM5.60637 8.50173C5.87042 8.43998 6.10702 8.22661 6.2642 7.90846C6.42137 7.59031 6.48628 7.19342 6.44467 6.80492C6.42399 6.61263 6.37773 6.42822 6.30854 6.26226C6.23934 6.09631 6.14857 5.95206 6.04141 5.83778C5.93426 5.72351 5.81283 5.64145 5.68409 5.59631C5.55534 5.55116 5.42181 5.54382 5.29113 5.5747C5.16056 5.60498 5.03533 5.67284 4.92262 5.77441C4.80991 5.87598 4.71192 6.00925 4.63427 6.16659C4.55662 6.32394 4.50083 6.50227 4.4701 6.69138C4.43937 6.88048 4.4343 7.07664 4.45517 7.26863C4.49669 7.65669 4.64129 8.0046 4.85717 8.23584C5.07306 8.46709 5.34255 8.56273 5.60637 8.50173ZM3.44109 12.9744C3.76619 12.9125 4.06195 12.6661 4.26519 12.2877C4.46843 11.9094 4.56306 11.4292 4.52883 10.9496C4.49461 10.47 4.33428 10.0291 4.08205 9.72107C3.82984 9.41304 3.50574 9.26229 3.17897 9.301C3.01485 9.32594 2.8557 9.39832 2.71065 9.51398C2.5656 9.62965 2.43751 9.78631 2.33374 9.97499C2.22997 10.1637 2.15255 10.3807 2.10595 10.6135C2.05934 10.8462 2.04446 11.0903 2.06216 11.3316C2.07926 11.5727 2.12852 11.8066 2.20709 12.0196C2.28568 12.2327 2.39204 12.4209 2.52011 12.5735C2.64818 12.7261 2.79544 12.84 2.95347 12.9088C3.1115 12.9776 3.2772 12.9999 3.44109 12.9744ZM2.03559 17.9447C2.40224 17.9161 2.74614 17.6745 2.99174 17.273C3.23734 16.8716 3.36454 16.3432 3.34539 15.8038C3.33615 15.5363 3.29108 15.2742 3.21276 15.0325C3.13444 14.7908 3.02442 14.5742 2.88902 14.3953C2.75362 14.2163 2.59552 14.0784 2.42378 13.9896C2.25205 13.9008 2.07008 13.8627 1.88832 13.8777C1.70681 13.8915 1.52894 13.9579 1.36487 14.0729C1.20079 14.1879 1.05375 14.3494 0.932132 14.5481C0.810524 14.7467 0.716732 14.9787 0.656123 15.2308C0.595515 15.4828 0.56928 15.75 0.578919 16.0169C0.598401 16.5566 0.762788 17.0629 1.03594 17.4244C1.30909 17.7859 1.66866 17.9731 2.03559 17.9447ZM7.42207 37.9305C7.39935 38.0877 7.39788 38.2497 7.41778 38.4077C7.43768 38.5655 7.47853 38.7161 7.53794 38.8507C7.59743 38.9854 7.67428 39.1016 7.76428 39.1926C7.85422 39.2835 7.95554 39.3475 8.06227 39.3809C8.16908 39.4142 8.27926 39.4164 8.38663 39.3871C8.49393 39.3579 8.59631 39.2978 8.68786 39.2104C8.77941 39.1229 8.85837 39.0098 8.92018 38.8774C8.98205 38.7451 9.02558 38.5962 9.04822 38.4391C9.09385 38.1219 9.05202 37.7909 8.93192 37.519C8.81182 37.2471 8.62324 37.0564 8.40759 36.9888C8.19207 36.9222 7.96735 36.9839 7.78264 37.1603C7.59792 37.3369 7.46826 37.6138 7.42207 37.9305ZM4.45557 34.8036C4.43447 34.9957 4.43939 35.192 4.47003 35.3812C4.50067 35.5705 4.55643 35.7489 4.63412 35.9064C4.71179 36.0639 4.80986 36.1972 4.92268 36.2988C5.0355 36.4003 5.16084 36.4681 5.29152 36.4981C5.48816 36.5442 5.68967 36.5033 5.87056 36.381C6.05145 36.2585 6.20359 36.0599 6.30774 35.8103C6.41189 35.5607 6.46338 35.2712 6.45568 34.9786C6.44799 34.6859 6.38147 34.4031 6.26452 34.1661C6.14758 33.929 5.98547 33.7483 5.79869 33.6467C5.61192 33.5453 5.40887 33.5275 5.21523 33.5958C5.0216 33.664 4.84606 33.8152 4.71084 34.0302C4.57562 34.2452 4.48679 34.5143 4.45557 34.8036ZM2.06216 30.7429C2.04451 30.984 2.05943 31.2279 2.10605 31.4605C2.15268 31.6931 2.23008 31.9099 2.33382 32.0983C2.43756 32.2868 2.56559 32.4432 2.71056 32.5588C2.85553 32.6742 3.01459 32.7464 3.17859 32.7712C3.34252 32.797 3.50832 32.7749 3.66645 32.7064C3.8246 32.6377 3.97198 32.5238 4.10014 32.3713C4.22832 32.2187 4.33476 32.0305 4.41339 31.8173C4.492 31.6041 4.54125 31.3703 4.5583 31.129C4.57552 30.8878 4.56026 30.644 4.51341 30.4114C4.46656 30.1789 4.38904 29.9622 4.28526 29.7738C4.18148 29.5853 4.05348 29.4288 3.90857 29.3131C3.76366 29.1974 3.60468 29.1248 3.4407 29.0995C3.27679 29.074 3.11106 29.0962 2.95301 29.1651C2.79496 29.2339 2.6477 29.3478 2.51964 29.5005C2.39158 29.6532 2.28526 29.8415 2.20676 30.0547C2.12826 30.2678 2.07912 30.5017 2.06216 30.7429ZM0.578919 26.0542C0.569176 26.3211 0.595342 26.5883 0.655916 26.8403C0.716493 27.0925 0.810285 27.3245 0.931921 27.5232C1.05356 27.7218 1.20065 27.8832 1.36476 27.9981C1.52888 28.113 1.7068 28.1792 1.88832 28.1928C2.07008 28.208 2.25209 28.1701 2.42386 28.0815C2.59563 27.9927 2.75379 27.855 2.88922 27.676C3.02464 27.497 3.13467 27.2804 3.21296 27.0387C3.29124 26.7969 3.33625 26.5348 3.34539 26.2673C3.36422 25.7282 3.23689 25.2002 2.99133 24.799C2.74578 24.3978 2.40205 24.1562 2.03559 24.1275C1.66892 24.0999 1.30976 24.2872 1.03674 24.6483C0.76373 25.0093 0.599107 25.5149 0.578919 26.0542ZM18.2804 39.2366C18.1142 39.3025 17.9723 39.4627 17.8861 39.6821C17.7999 39.9015 17.7764 40.1622 17.8207 40.4071C17.8655 40.6516 17.9745 40.8599 18.1237 40.9863C18.2729 41.1127 18.4501 41.1469 18.6164 41.0811C18.699 41.0491 18.7764 40.9934 18.8443 40.9172C18.9121 40.8411 18.9692 40.746 19.012 40.6373C19.0548 40.5287 19.0827 40.4087 19.0938 40.2842C19.1051 40.1596 19.0995 40.0331 19.0774 39.9118C19.0325 39.6669 18.9234 39.4582 18.774 39.3315C18.6245 39.2049 18.447 39.1708 18.2804 39.2366ZM11.6498 39.2366C11.485 39.1774 11.3109 39.2153 11.1648 39.3426C11.0188 39.4698 10.9124 39.676 10.8685 39.9172C10.8246 40.1583 10.8466 40.4152 10.9298 40.6327C11.0131 40.8503 11.151 41.0113 11.3139 41.0811C11.3969 41.1168 11.4839 41.1275 11.5698 41.113C11.6557 41.0985 11.7387 41.0588 11.8141 40.9965C11.8894 40.9341 11.9555 40.8502 12.0085 40.7498C12.0615 40.6493 12.1003 40.5343 12.1227 40.4114C12.1451 40.2886 12.1505 40.1605 12.1388 40.0345C12.1271 39.9084 12.0983 39.7872 12.0543 39.6778C12.0102 39.5683 11.9518 39.473 11.8823 39.3972C11.8129 39.3214 11.7339 39.2668 11.6498 39.2366ZM19.0777 2.16214C19.0997 2.0408 19.1052 1.91427 19.094 1.7898C19.0827 1.66532 19.0548 1.54534 19.012 1.43672C18.9691 1.32811 18.9121 1.233 18.8442 1.15683C18.7764 1.08066 18.699 1.02492 18.6164 0.992819C18.4529 0.939389 18.2817 0.980897 18.1386 1.10868C17.9954 1.23646 17.8913 1.44064 17.8479 1.67862C17.8047 1.91659 17.8255 2.16996 17.9062 2.38586C17.9869 2.60174 18.1211 2.76347 18.2809 2.83729C18.3633 2.87006 18.4493 2.87858 18.5341 2.86237C18.6188 2.84616 18.7005 2.80554 18.7745 2.74283C18.8485 2.68012 18.9134 2.59655 18.9654 2.49691C19.0175 2.39726 19.0557 2.2835 19.0777 2.16214ZM12.1108 1.66625C12.0887 1.54496 12.0505 1.43129 11.9984 1.33176C11.9464 1.23223 11.8815 1.14879 11.8074 1.08623C11.7334 1.02367 11.6517 0.983212 11.567 0.967182C11.4823 0.951153 11.3963 0.959866 11.3139 0.992819C11.2315 1.02498 11.1543 1.08071 11.0866 1.15682C11.019 1.23293 10.9622 1.32792 10.9194 1.43637C10.8767 1.54482 10.849 1.66459 10.8378 1.78883C10.8266 1.91306 10.8322 2.03934 10.8542 2.16041C10.8762 2.28179 10.9143 2.39558 10.9662 2.49529C11.0182 2.59502 11.083 2.6787 11.1569 2.74159C11.2309 2.80447 11.3125 2.84531 11.3972 2.86178C11.4819 2.87825 11.5679 2.87003 11.6505 2.83758C11.7329 2.80513 11.8103 2.7491 11.8781 2.67267C11.9459 2.59625 12.0028 2.50093 12.0456 2.39217C12.0883 2.2834 12.1161 2.16331 12.1273 2.03876C12.1384 1.9142 12.1329 1.78763 12.1108 1.66625Z"
      fill="#717375"
    />
</g>
</svg>
