<svg
  width="178"
  height="76"
  viewBox="0 15 178 76"
  fill="none"
  xmlns="http://www.w3.org/2000/svg"
>
<g id="wired-ar21 1" style="mix-blend-mode:luminosity">
<path
      id="Vector"
      d="M44.5723 25.4961H74.1841C74.2582 25.5584 74.2834 25.6644 74.2834 25.7479V50.0336C74.2834 50.2019 74.3338 50.3914 74.1841 50.5596H44.5723C44.4982 50.4973 44.473 50.3914 44.473 50.3078V26.0221C44.473 25.8538 44.4226 25.6644 44.5723 25.4961ZM133.483 50.5796H103.87C103.796 50.5172 103.771 50.4113 103.771 50.3278V26.042C103.771 25.8738 103.72 25.6843 103.87 25.516H133.482C133.556 25.5784 133.581 25.6843 133.581 25.7678V50.0536C133.556 50.243 133.606 50.4113 133.482 50.5796H133.483Z"
      fill="white"
    />
<path
      id="Vector_2"
      d="M103.845 25.4934V50.5782H74.1839V25.4934H103.845ZM44.5706 25.4934V50.5782H15.1605C14.9352 50.5782 14.8848 50.5358 14.8848 50.3463V25.724C14.8848 25.5346 14.9352 25.4922 15.1605 25.4922H44.5721L44.5706 25.4934ZM133.481 50.5769V25.4934H162.866C163.118 25.4934 163.142 25.5358 163.142 25.7452V50.3251C163.142 50.5146 163.117 50.5769 162.866 50.5769H133.481ZM59.4025 29.3823H66.1823C66.4344 29.3823 66.4818 29.4247 66.4818 29.6341V32.031C66.4818 32.1993 66.4314 32.2629 66.2298 32.2629H61.6782C61.4262 32.2629 61.3787 32.3053 61.3787 32.5147V43.6168C61.3787 43.785 61.4292 43.8486 61.6308 43.8486H66.2075C66.4329 43.8486 66.4596 43.891 66.4596 44.0804V46.4985C66.4596 46.688 66.4092 46.7304 66.1838 46.7304H52.5529C52.3527 46.7304 52.2771 46.7092 52.2771 46.5185V44.058C52.2771 43.8897 52.3513 43.8461 52.5292 43.8461H57.0807C57.3061 43.8461 57.3565 43.8037 57.3565 43.6143V32.491C57.3565 32.3227 57.3061 32.2791 57.1044 32.2791H52.5529C52.3275 32.2791 52.2771 32.2367 52.2771 32.0472V29.684C52.2771 29.4721 52.3275 29.4098 52.5766 29.4098L59.4039 29.3886L59.4025 29.3823ZM118.103 46.688H109.6C109.348 46.688 109.3 46.6257 109.3 46.4362V44.0181C109.3 43.8286 109.351 43.7863 109.576 43.7863H111.852C112.027 43.7863 112.104 43.7439 112.104 43.5968V32.4112C112.104 32.2641 112.054 32.1993 111.879 32.1993H109.578C109.378 32.1993 109.326 32.1569 109.326 31.9874V29.5269C109.326 29.3587 109.376 29.315 109.578 29.315H126.524C126.749 29.315 126.776 29.3774 126.776 29.5469V34.6137C126.776 34.8256 126.725 34.8879 126.45 34.8879C125.412 34.8667 124.374 34.8667 123.336 34.8879C123.136 34.8879 123.06 34.8455 123.06 34.6561V32.4262C123.06 32.2579 123.035 32.1744 122.785 32.1744H116.249C116.049 32.1744 115.997 32.2168 115.997 32.3863V36.1082C115.997 36.3201 116.097 36.34 116.297 36.34H121.338C121.59 36.34 121.637 36.4023 121.637 36.5918C121.612 37.3486 121.612 38.1059 121.637 38.8628C121.637 39.0946 121.563 39.1146 121.311 39.1146H116.294C116.068 39.1146 115.994 39.157 115.994 39.3464V43.5519C115.994 43.7202 116.045 43.7838 116.246 43.7838H122.974C123.2 43.7838 123.226 43.7215 123.226 43.5519V40.9656C123.226 40.7761 123.277 40.7337 123.502 40.7337H126.705C126.88 40.7337 126.957 40.7549 126.957 40.9232V46.4537C126.957 46.6656 126.832 46.6431 126.681 46.6431L118.103 46.6855V46.688Z"
      fill="#717375"
    />
<path
      id="Vector_3"
      d="M94.4178 38.6783C94.4682 38.7406 94.5661 38.7406 94.618 38.7618L95.3593 38.9089C96.6091 39.1606 97.2599 39.8761 97.4601 40.9069C97.6084 41.6224 97.5846 42.3777 97.635 43.0932L97.8604 46.309C97.9108 46.6667 97.9108 46.6667 97.4853 46.6667H94.0561C93.8559 46.6667 93.804 46.6244 93.7566 46.4349C93.5312 44.984 93.4571 43.512 93.4067 42.0399C93.4067 41.7034 93.3563 41.388 93.3074 41.0727C93.1591 40.3572 92.7069 40.0007 91.8322 39.9584L90.6461 39.916H85.3088C85.0568 39.916 84.9589 39.9584 84.9589 40.2101L84.9841 46.3925C84.9841 46.6044 84.9337 46.6667 84.6846 46.6667C83.4676 46.6455 82.2501 46.6455 81.033 46.6667C80.8077 46.6667 80.781 46.6244 80.781 46.4349V29.6079C80.781 29.4396 80.8314 29.376 81.033 29.376H93.6647C94.1009 29.3794 94.5359 29.4144 94.9649 29.4807C96.3407 29.7126 97.1651 30.4692 97.4912 31.5623C97.9657 33.1602 97.9657 34.7582 97.5906 36.3773C97.2644 37.6612 96.2562 38.3342 94.7647 38.5636C94.6165 38.6259 94.489 38.606 94.4386 38.6882L94.4178 38.6783ZM24.0393 43.1468L24.5138 41.2547L27.3396 30.1837C27.4879 29.6353 27.7651 29.406 28.4145 29.3636C29.381 29.3215 30.3494 29.3215 31.3159 29.3636C31.8911 29.3848 32.2054 29.6789 32.3166 30.1202L32.8652 32.2441L35.4894 42.4837C35.5398 42.6956 35.5635 42.9037 35.7147 43.1567L35.9401 42.0636L37.3901 34.9339L38.4279 29.6989C38.4783 29.467 38.5272 29.3623 38.8534 29.3835H42.1151C42.3404 29.3835 42.3908 29.4259 42.3404 29.6154L40.1907 38.4028L38.3671 45.9089C38.2188 46.5321 37.9164 46.7291 37.2166 46.7291H34.0142C33.3144 46.7291 33.0135 46.5172 32.8637 45.9313L29.86 34.0726C29.8348 34.0103 29.8096 33.948 29.7355 33.9044L29.4093 35.1658L26.6813 45.889C26.5331 46.5197 26.2069 46.7615 25.4315 46.7615H22.3181C21.5427 46.7615 21.2803 46.5496 21.132 45.9201L18.5315 35.3004L17.1053 29.5393C17.1053 29.4969 17.1053 29.477 17.0801 29.4147H21.0831C21.258 29.4147 21.258 29.5194 21.2832 29.6041L21.7829 32.0434L23.9697 42.8713C23.9697 42.9137 23.9697 42.996 24.069 43.1231L24.0393 43.1468ZM140.037 38.0264V29.6789C140.037 29.4471 140.111 29.3848 140.387 29.3848H150.691C151.616 29.3848 152.566 29.4471 153.466 29.659C155.592 30.1002 156.867 31.2794 157.392 33.0443C157.793 34.3693 157.917 35.7142 157.941 37.0604C157.991 38.3642 157.966 39.6468 157.816 40.9493C157.717 41.8218 157.541 42.6943 157.216 43.5569C156.563 45.1124 155.265 46.0585 153.391 46.4237C152.491 46.5919 151.567 46.6555 150.663 46.6755L140.409 46.6967C140.11 46.6967 140.059 46.6131 140.059 46.4025L140.034 38.0139L140.037 38.0264Z"
      fill="white"
    />
<path
      id="Vector_4"
      d="M88.9155 32.307L92.367 32.3494C92.9674 32.3918 93.2565 32.5812 93.4048 33.0649C93.5241 33.3992 93.583 33.7466 93.5797 34.0957C93.6049 34.8111 93.6301 35.5465 93.4048 36.262C93.2046 36.8852 92.9303 37.0597 92.1787 37.1245C91.2891 37.1868 90.4292 37.1457 89.5545 37.1457H85.2194C84.9674 37.1457 84.9199 37.0834 84.9199 36.8939V32.5526C84.9199 32.3407 84.9703 32.3008 85.2194 32.3008L88.9214 32.322L88.9155 32.307ZM144.261 38.0058V32.5588C144.261 32.3693 144.311 32.307 144.56 32.307H150.087C150.538 32.307 150.987 32.3282 151.421 32.3693C152.648 32.5376 153.245 33.0424 153.497 34.052C153.749 34.9769 153.773 35.9018 153.797 36.8491L153.672 40.9287L153.497 41.9595C153.198 43.0738 152.397 43.621 151.021 43.6833L146.944 43.7257C146.143 43.7257 145.343 43.7045 144.542 43.7257C144.266 43.7257 144.216 43.6634 144.216 43.4515L144.241 38.0045L144.261 38.0058Z"
      fill="#717375"
    />
</g>
</svg>
