<svg
  width="109"
  height="36"
  viewBox="0 0 109 36"
  fill="none"
  xmlns="http://www.w3.org/2000/svg"
>
<g id="Vector" style="mix-blend-mode:luminosity">
<path
      fill-rule="evenodd"
      clip-rule="evenodd"
      d="M38.8406 21.6705H44.7141V17.5329C44.7141 14.8187 44.7141 13.3209 44.76 13.1305C44.8154 12.7274 44.969 12.3403 45.2097 11.9968C45.4424 11.6947 45.7734 11.4652 46.1568 11.3396C46.5403 11.2141 46.9575 11.1988 47.351 11.2959C47.7445 11.393 48.0949 11.5976 48.354 11.8818C48.6132 12.1659 48.7683 12.5154 48.798 12.8823C48.798 13.0395 48.798 14.6697 48.798 17.384V21.6705H54.6716V16.7054C54.6716 12.5678 54.6716 11.6658 54.6074 11.2521C54.5129 9.95345 53.9265 8.72351 52.9462 7.76825C52.1205 7.02622 51.0397 6.55934 49.881 6.44422C49.1708 6.39221 48.4564 6.41442 47.7518 6.51042C46.7403 6.68805 45.8123 7.13818 45.0904 7.80135L44.6682 8.17373V0.155108H38.8406V21.6705ZM101.274 0.320611C101.118 0.651617 95.144 13.6601 95.144 13.685H102.1L105.193 6.94901C106.9 3.24174 108.323 0.196484 108.323 0.155108C108.323 0.113732 106.763 0.155108 104.854 0.155108H101.385L101.274 0.320611ZM25.9647 6.43595C24.8001 6.56452 23.6847 6.93565 22.7067 7.51999C21.7044 8.14937 20.8597 8.96142 20.2274 9.90363C19.5951 10.8458 19.1891 11.8973 19.0357 12.9899C18.8667 14.1325 18.9289 15.2932 19.2193 16.4158C19.5174 17.6212 20.1481 18.7393 21.0529 19.6665C21.9577 20.5936 23.1073 21.3 24.3953 21.7201C25.1567 21.9778 25.9697 22.0878 26.7814 22.0429C27.2386 22.0705 27.6977 22.0483 28.1489 21.9767C29.19 21.8064 30.1496 21.3564 30.9021 20.6857L31.2325 20.3465V21.6705H36.9225V6.77523H31.2325V8.13235L30.9663 7.87582C30.2139 7.19558 29.2566 6.72946 28.2131 6.53525C27.7893 6.44574 27.3538 6.40953 26.9191 6.42767C26.4786 6.4194 26.0381 6.42767 25.9647 6.43595ZM63.4636 6.43595C61.8412 6.6415 60.3118 7.24234 59.04 8.17373C57.876 9.04674 56.9845 10.1783 56.4534 11.4567C55.9223 12.7352 55.7699 14.1164 56.0115 15.4641C56.2496 16.983 56.9901 18.4019 58.1361 19.5356C59.282 20.6693 60.7804 21.4652 62.4357 21.8194C63.2125 21.9954 64.0117 22.0789 64.8126 22.0677C66.2562 22.109 67.6884 21.8246 68.9792 21.2402C70.2125 20.6884 71.2763 19.8713 72.0765 18.8611C72.8768 17.8508 73.389 16.6785 73.5679 15.4476C73.6688 14.6696 73.6688 13.8837 73.5679 13.1057C73.3673 11.8533 72.8387 10.6619 72.0261 9.63014C71.563 9.08985 71.0369 8.59599 70.4567 8.15718C69.1828 7.25961 67.6643 6.68792 66.0608 6.50215C65.1982 6.41416 64.328 6.40584 63.4636 6.47732V6.43595ZM82.1488 6.43595C80.5635 6.62675 79.0641 7.19838 77.8078 8.09098C77.2137 8.53616 76.6752 9.03838 76.2018 9.58876C75.3955 10.6227 74.8704 11.8134 74.6692 13.0643C74.5728 13.8425 74.5728 14.628 74.6692 15.4062C74.9068 17.0018 75.6963 18.4893 76.9254 19.657C78.1546 20.8247 79.7607 21.6132 81.5155 21.9105C82.1521 22.0304 82.8019 22.0832 83.452 22.0677C84.9275 22.092 86.387 21.7879 87.7011 21.1823C89.3918 20.3895 90.7442 19.1147 91.5477 17.5566C92.3513 15.9984 92.5605 14.2444 92.143 12.5678C91.7872 10.9663 90.8731 9.50924 89.5342 8.40917C88.1952 7.30908 86.5015 6.62351 84.7001 6.4525C83.8509 6.38217 82.996 6.39048 82.1488 6.47732V6.43595ZM0.0292969 6.77523C0.0292969 6.77523 1.61699 10.168 3.54424 14.289C5.4715 18.4101 7.06837 21.7946 7.05919 21.8112C7.05001 21.8277 6.45348 23.0607 5.80189 24.5337C5.15029 26.0067 4.54458 27.2231 4.54458 27.2314H10.776L15.4657 17.0364C18.0446 11.4341 20.1554 6.83315 20.1554 6.77523C19.1283 6.7225 18.0988 6.7225 17.0717 6.77523H13.979L12.0792 11.1197C11.0422 13.5029 10.1703 15.4476 10.1244 15.4393C10.0786 15.431 9.2893 13.4781 8.28897 11.0948L6.38924 6.77523H3.20468C1.46097 6.77523 0.0292969 6.77523 0.0292969 6.77523ZM28.8372 11.2852C29.4162 11.4182 29.9444 11.69 30.3661 12.0716C30.7878 12.4534 31.0871 12.9307 31.2325 13.4533C31.3651 13.9789 31.3651 14.5247 31.2325 15.0504C31.0864 15.5739 30.7856 16.0521 30.3623 16.4338C29.9388 16.8155 29.4087 17.0867 28.828 17.2185C28.2534 17.3301 27.6589 17.3301 27.0843 17.2185C26.5786 17.0947 26.1109 16.8686 25.7165 16.5574C25.3221 16.2463 25.0116 15.8583 24.8083 15.4227C24.605 14.9513 24.5282 14.4432 24.584 13.9399C24.6398 13.4366 24.8267 12.9523 25.1295 12.5264C25.5301 12 26.1014 11.5981 26.7651 11.3759C27.4289 11.1537 28.1526 11.122 28.8372 11.2852ZM65.4 11.2852C66.0218 11.3943 66.5943 11.6658 67.0463 12.066C67.4983 12.4662 67.8098 12.9774 67.9421 13.536C68.0558 14.0356 68.0558 14.5508 67.9421 15.0504C67.8011 15.5547 67.5145 16.0163 67.1116 16.3884C66.7086 16.7605 66.2036 17.0298 65.6478 17.1688C65.0679 17.2598 64.4748 17.2598 63.8949 17.1688C63.4412 17.0574 63.0199 16.8584 62.6602 16.5855C62.3004 16.3125 62.0109 15.9722 61.8116 15.5882C61.5835 15.164 61.4822 14.6933 61.5179 14.2228C61.4997 13.8112 61.5844 13.4011 61.7657 13.023C62.0141 12.501 62.4254 12.0553 62.9496 11.7403C63.678 11.3256 64.5512 11.1693 65.4 11.3017V11.2852ZM84.076 11.2852C84.6091 11.3657 85.1106 11.5675 85.5329 11.8716C85.9554 12.1757 86.2846 12.572 86.4897 13.023C86.671 13.4011 86.7557 13.8112 86.7375 14.2228C86.7595 14.6809 86.6521 15.1365 86.4254 15.5469C86.2257 15.9321 85.9349 16.2732 85.5734 16.5463C85.212 16.8193 84.7885 17.0177 84.333 17.1274C83.7561 17.2185 83.1662 17.2185 82.5893 17.1274C82.0378 16.9925 81.535 16.7297 81.1309 16.3654C80.7268 16.001 80.4354 15.5477 80.2857 15.0504C80.1665 14.5318 80.1665 13.9967 80.2857 13.4781C80.461 12.8447 80.8679 12.283 81.4407 11.8836C82.0135 11.4842 82.7188 11.2705 83.4428 11.2769C83.6542 11.2687 83.8661 11.277 84.076 11.3017V11.2852ZM96.5298 14.9759C95.7093 15.0622 94.9393 15.3773 94.3272 15.8773C93.715 16.3773 93.292 17.0371 93.1158 17.7646C93.0102 18.2844 93.0102 18.8171 93.1158 19.3369C93.2855 19.9661 93.6499 20.539 94.1666 20.9888C94.6833 21.4386 95.3312 21.7467 96.0342 21.8774C96.2985 21.9162 96.5656 21.9355 96.8326 21.9353C97.3484 21.9364 97.8596 21.8452 98.3368 21.6668C98.8131 21.4885 99.2463 21.2267 99.6097 20.8965C99.9731 20.5662 100.26 20.1743 100.455 19.7432C100.649 19.3121 100.747 18.8506 100.742 18.3853C100.761 17.7985 100.605 17.218 100.292 16.7032C99.9786 16.1884 99.5198 15.758 98.9618 15.4558C98.2257 15.0747 97.3741 14.9125 96.5298 14.9924V14.9759ZM48.1556 23.0938C47.8861 23.1719 47.639 23.3029 47.4323 23.4774C47.2255 23.6518 47.0641 23.8653 46.9597 24.1026C46.8553 24.34 46.8104 24.5952 46.8284 24.85C46.8464 25.1048 46.9267 25.3528 47.0635 25.5764C47.2963 25.8748 47.6131 26.1119 47.9813 26.2632C48.2268 26.3779 48.5057 26.4213 48.7797 26.3873C49.0566 26.4203 49.3381 26.3771 49.5873 26.2632C49.9795 26.078 50.2997 25.7894 50.505 25.4357C50.618 25.2338 50.6839 25.0131 50.6986 24.7872C50.7133 24.5615 50.6765 24.3353 50.5905 24.1229C50.5045 23.9104 50.3712 23.7161 50.1986 23.5519C50.026 23.3877 49.818 23.2572 49.5873 23.1683C49.3623 23.0584 49.109 23.0041 48.8531 23.0111C48.6169 22.9978 48.38 23.026 48.1556 23.0938ZM43.2457 23.1766C42.5077 23.2872 41.8248 23.5985 41.2884 24.0688C40.7521 24.5392 40.388 25.146 40.2447 25.8081C40.1792 26.0801 40.1423 26.3573 40.1346 26.6356V27.1817H38.8406V29.6643H40.1162V35.6058H43.521V29.7388H45.8429V27.2562H43.521V26.9831C43.512 26.7319 43.5979 26.4853 43.7646 26.2838C43.9314 26.0824 44.1691 25.9379 44.4388 25.8743C44.8626 25.7769 45.3085 25.7913 45.7236 25.9156L45.9898 25.9901C45.9898 25.9901 45.9898 25.4109 45.9898 24.7075V23.3752L45.7512 23.2924C45.2705 23.1435 44.7627 23.0789 44.2552 23.1021C43.9171 23.1041 43.5797 23.129 43.2457 23.1766ZM57.1862 27.0328C56.5215 27.1403 55.9239 27.4642 55.5067 27.9431L55.314 28.1748V27.2066H51.8633V35.6886H55.314V33.3798C55.314 32.0475 55.314 30.9635 55.314 30.8311C55.3643 30.5197 55.5216 30.2303 55.7637 30.0036C56.0055 29.84 56.3075 29.7661 56.6078 29.7969C56.9081 29.8276 57.184 29.9608 57.3789 30.1691C57.6359 30.5083 57.6359 30.467 57.6451 33.1812V35.6638H61.0866V32.9081C61.0866 29.9539 61.0866 29.5981 60.8939 29.0602C60.7526 28.5754 60.467 28.1347 60.0679 27.7858C59.7241 27.45 59.2818 27.209 58.7922 27.0907C58.2648 26.9864 57.7212 26.9667 57.1862 27.0328ZM65.8864 27.0328C65.2327 27.1346 64.6084 27.3541 64.0509 27.6782C63.0262 28.3791 62.3369 29.4062 62.1237 30.5497C62.0273 31.1728 62.0273 31.8051 62.1237 32.4282C62.261 33.1514 62.5744 33.8382 63.0414 34.439C63.6547 35.1761 64.5458 35.6853 65.5468 35.8706C66.1766 35.9739 66.823 35.9599 67.4465 35.8293C67.9787 35.7125 68.4666 35.4697 68.8599 35.1259L69.1994 34.8363V35.6638H72.6043V27.2066H69.1811V28.0837L68.9608 27.8686C68.4639 27.4217 67.8201 27.1314 67.1253 27.0411C66.7152 26.9868 66.2994 26.9757 65.8864 27.008V27.0328ZM79.2487 27.0328C78.5961 27.1667 78.0117 27.4928 77.5876 27.9596L77.4407 28.1334V27.2066H73.9717V35.6886H77.4591V33.2557C77.4591 30.707 77.4591 30.6573 77.661 30.3097C77.7521 30.1514 77.8908 30.0193 78.0612 29.9286C78.2316 29.8379 78.4269 29.7921 78.6246 29.7967C78.7712 29.7846 78.9189 29.8021 79.057 29.8479C79.1951 29.8938 79.3201 29.9667 79.4231 30.0615C79.7902 30.3925 79.781 30.2684 79.7902 33.1398V35.6224H83.2409V32.6102C83.2409 29.565 83.2409 29.5236 83.1307 29.2009C83.0455 28.9547 82.9412 28.714 82.8187 28.4809C82.6933 28.2204 82.5089 27.9865 82.2772 27.7941C81.9871 27.5105 81.6249 27.2947 81.2218 27.1652C80.5875 26.969 79.9072 26.9262 79.2487 27.0411V27.0328ZM88.3343 27.0328C87.6154 27.1216 86.9277 27.3551 86.3225 27.7161C85.7171 28.0771 85.2097 28.5562 84.8377 29.1181C84.6 29.4913 84.4209 29.8923 84.3055 30.3097C84.1955 30.6762 84.1551 31.0567 84.1861 31.4352C84.1618 31.9706 84.2554 32.5049 84.4615 33.0074C84.7208 33.7235 85.1891 34.3633 85.8173 34.8598C86.4454 35.3563 87.2103 35.6912 88.0315 35.8293C88.4189 35.8918 88.8131 35.9141 89.2062 35.8955C89.8599 35.937 90.5149 35.8347 91.1151 35.5976L91.4547 35.4734V32.6268L91.161 32.7757C90.7739 32.9889 90.3298 33.1034 89.8761 33.1067C89.4535 33.1499 89.0261 33.0809 88.6464 32.9081C88.2826 32.7392 87.9918 32.4653 87.8204 32.1303C87.6989 31.928 87.6508 31.6965 87.6827 31.4683C87.6708 31.2574 87.7051 31.0466 87.7837 30.8476C87.9385 30.5267 88.1957 30.2546 88.5226 30.066C88.8495 29.8774 89.2311 29.7807 89.6192 29.7884C90.2692 29.7484 90.9153 29.9058 91.4547 30.2353C91.4547 30.2353 91.4547 29.6064 91.4547 28.8285V27.4052L91.1793 27.3141C90.2733 27.0021 89.2929 26.908 88.3343 27.0411V27.0328ZM96.1718 27.0328C95.356 27.1885 94.5952 27.5199 93.9518 27.9985C93.3094 28.4771 92.8046 29.0889 92.4807 29.7815C92.1576 30.4743 92.0246 31.2272 92.0934 31.9763C92.1622 32.7253 92.4311 33.4482 92.8771 34.0832C93.2158 34.533 93.6508 34.9169 94.1574 35.2125C94.6631 35.5082 95.2293 35.7094 95.8231 35.8044C96.6995 35.9161 97.5898 35.9161 98.4662 35.8044C99.3665 35.6367 100.197 35.2438 100.861 34.6707C101.14 34.427 101.378 34.1483 101.568 33.8432L100.1 33.3219L98.6589 32.8254L98.4478 33.0157C98.2303 33.2277 97.9495 33.3798 97.6402 33.4543C97.4236 33.5169 97.1951 33.54 96.9675 33.5221C96.7408 33.5043 96.5206 33.4459 96.3187 33.3504C96.1177 33.2549 95.9387 33.1241 95.7937 32.9658C95.6487 32.8075 95.5404 32.6247 95.4744 32.4282V32.2627H101.954V31.5593C101.98 30.9513 101.87 30.3447 101.631 29.7759C101.391 29.2072 101.027 28.6879 100.559 28.2492C99.9162 27.6755 99.0976 27.2891 98.2092 27.1404C97.5393 27.019 96.8528 26.9855 96.1718 27.0411V27.0328ZM47.0085 35.6886H50.505V27.2066H47.0085V35.6886ZM97.5485 29.3995C97.7797 29.4501 97.9899 29.5593 98.1542 29.7139C98.3506 29.8712 98.4882 30.0793 98.5488 30.3097V30.467H96.9794C95.2082 30.467 95.3459 30.467 95.5019 30.136C95.6808 29.8064 95.9901 29.5485 96.3682 29.4125C96.7463 29.2763 97.1667 29.2718 97.5485 29.3995ZM67.8871 29.8215C68.1396 29.8909 68.3744 30.0051 68.5777 30.1571C68.7808 30.309 68.9486 30.496 69.071 30.707C69.1948 30.9206 69.2653 31.156 69.2776 31.3969C69.29 31.6377 69.2439 31.8781 69.1424 32.1011C69.041 32.3241 68.8868 32.5245 68.6906 32.6882C68.4944 32.852 68.2609 32.975 68.0064 33.0488C67.5976 33.1479 67.167 33.1479 66.7582 33.0488C66.4689 32.9636 66.2058 32.8179 65.9906 32.6238C65.7753 32.4298 65.6139 32.1926 65.5193 31.9317C65.4501 31.7368 65.425 31.5314 65.4459 31.3276C65.4401 31.1103 65.5004 30.8956 65.6202 30.707C65.826 30.3456 66.1644 30.0598 66.5778 29.8982C66.9913 29.7368 67.454 29.7096 67.8871 29.8215Z"
      fill="#717375"
    />
</g>
</svg>
